M48
; DRILL file {KiCad (6.0.7-1)-1} date Thursday, 29 December 2022 at 15:12:44
; FORMAT={-:-/ absolute / metric / decimal}
; #@! TF.CreationDate,2022-12-29T15:12:44+00:00
; #@! TF.GenerationSoftware,Kicad,Pcbnew,(6.0.7-1)-1
; #@! TF.FileFunction,MixedPlating,1,2
FMAT,2
METRIC
; #@! TA.AperFunction,Plated,PTH,ViaDrill
T1C0.300
; #@! TA.AperFunction,Plated,PTH,ViaDrill
T2C0.400
; #@! TA.AperFunction,Plated,PTH,ComponentDrill
T3C0.750
; #@! TA.AperFunction,Plated,PTH,ComponentDrill
T4C0.800
; #@! TA.AperFunction,Plated,PTH,ComponentDrill
T5C1.000
; #@! TA.AperFunction,Plated,PTH,ComponentDrill
T6C1.020
; #@! TA.AperFunction,Plated,PTH,ComponentDrill
T7C1.100
; #@! TA.AperFunction,NonPlated,NPTH,ComponentDrill
T8C0.900
; #@! TA.AperFunction,NonPlated,NPTH,ComponentDrill
T9C1.500
; #@! TA.AperFunction,NonPlated,NPTH,ComponentDrill
T10C1.800
; #@! TA.AperFunction,NonPlated,NPTH,ComponentDrill
T11C2.200
; #@! TA.AperFunction,NonPlated,NPTH,ComponentDrill
T12C3.200
%
G90
G05
T1
X120.14Y-85.01
T2
X106.11Y-133.83
X106.36Y-144.97
X106.58Y-110.61
X113.42Y-125.35
X115.39Y-124.36
X118.0Y-129.92
X119.52Y-128.5
X119.8Y-76.46
X121.8Y-116.02
X121.86Y-119.6
X121.94Y-105.56
X124.76Y-115.94
X124.78Y-75.27
X124.91Y-119.57
X146.95Y-128.33
X156.19Y-134.22
X156.31Y-129.86
X166.85Y-145.46
X167.532Y-129.69
X167.852Y-124.62
X168.623Y-129.68
X169.82Y-101.14
X173.02Y-129.9
X173.17Y-126.23
T3
X116.12Y-83.68
X116.12Y-85.68
X116.12Y-87.68
X116.12Y-89.68
X116.12Y-91.68
X116.12Y-93.68
X116.12Y-95.68
X116.12Y-97.68
T4
X169.58Y-113.47
X169.58Y-119.47
X172.12Y-113.47
X172.12Y-119.47
X174.66Y-113.47
X174.66Y-119.47
T5
X129.1Y-123.96
X131.64Y-123.96
X134.18Y-123.96
X136.72Y-123.96
X139.26Y-123.96
X141.8Y-123.96
X144.34Y-123.96
X146.88Y-123.96
X149.42Y-123.96
X161.16Y-80.5
X161.16Y-83.04
X166.51Y-90.96
X166.51Y-93.5
X166.51Y-96.04
X166.51Y-98.58
X166.51Y-101.12
X166.51Y-103.66
T6
X130.745Y-70.175
X130.745Y-72.715
X130.745Y-75.255
X130.745Y-77.795
X130.745Y-80.335
X130.745Y-82.875
X130.745Y-85.415
X130.745Y-87.955
X130.745Y-90.495
X130.745Y-93.035
X130.745Y-95.575
X130.745Y-98.115
X130.745Y-100.655
X130.745Y-103.195
X130.745Y-105.735
X130.745Y-108.275
X130.745Y-110.815
X130.745Y-113.355
X130.745Y-115.895
X130.745Y-118.435
X148.525Y-70.175
X148.525Y-72.715
X148.525Y-75.255
X148.525Y-77.795
X148.525Y-80.335
X148.525Y-82.875
X148.525Y-85.415
X148.525Y-87.955
X148.525Y-90.495
X148.525Y-93.035
X148.525Y-95.575
X148.525Y-98.115
X148.525Y-100.655
X148.525Y-103.195
X148.525Y-105.735
X148.525Y-108.275
X148.525Y-110.815
X148.525Y-113.355
X148.525Y-115.895
X148.525Y-118.435
T7
X103.04Y-126.44
X103.04Y-130.94
X103.12Y-138.29
X103.12Y-142.79
X109.54Y-126.44
X109.54Y-130.94
X109.62Y-138.29
X109.62Y-142.79
X163.78Y-138.92
X163.78Y-143.42
X170.28Y-138.92
X170.28Y-143.42
T8
X171.44Y-77.88
X171.44Y-80.88
T9
X137.21Y-73.335
X142.06Y-73.335
T10
X136.91Y-70.305
X142.36Y-70.305
T11
X97.2Y-69.5
X97.2Y-143.0
X177.1Y-69.5
X177.1Y-143.0
T12
X175.0Y-105.4
X175.02Y-89.24
T0
M30
