%TF.GenerationSoftware,KiCad,Pcbnew,(6.0.7-1)-1*%
%TF.CreationDate,2022-12-28T22:22:49+00:00*%
%TF.ProjectId,pico-gps-datalogger,7069636f-2d67-4707-932d-646174616c6f,rev?*%
%TF.SameCoordinates,Original*%
%TF.FileFunction,Copper,L1,Top*%
%TF.FilePolarity,Positive*%
%FSLAX46Y46*%
G04 Gerber Fmt 4.6, Leading zero omitted, Abs format (unit mm)*
G04 Created by KiCad (PCBNEW (6.0.7-1)-1) date 2022-12-28 22:22:49*
%MOMM*%
%LPD*%
G01*
G04 APERTURE LIST*
G04 Aperture macros list*
%AMRoundRect*
0 Rectangle with rounded corners*
0 $1 Rounding radius*
0 $2 $3 $4 $5 $6 $7 $8 $9 X,Y pos of 4 corners*
0 Add a 4 corners polygon primitive as box body*
4,1,4,$2,$3,$4,$5,$6,$7,$8,$9,$2,$3,0*
0 Add four circle primitives for the rounded corners*
1,1,$1+$1,$2,$3*
1,1,$1+$1,$4,$5*
1,1,$1+$1,$6,$7*
1,1,$1+$1,$8,$9*
0 Add four rect primitives between the rounded corners*
20,1,$1+$1,$2,$3,$4,$5,0*
20,1,$1+$1,$4,$5,$6,$7,0*
20,1,$1+$1,$6,$7,$8,$9,0*
20,1,$1+$1,$8,$9,$2,$3,0*%
G04 Aperture macros list end*
%TA.AperFunction,SMDPad,CuDef*%
%ADD10RoundRect,0.200000X0.275000X-0.200000X0.275000X0.200000X-0.275000X0.200000X-0.275000X-0.200000X0*%
%TD*%
%TA.AperFunction,ComponentPad*%
%ADD11C,1.700000*%
%TD*%
%TA.AperFunction,ComponentPad*%
%ADD12O,1.700000X1.700000*%
%TD*%
%TA.AperFunction,SMDPad,CuDef*%
%ADD13RoundRect,0.225000X0.250000X-0.225000X0.250000X0.225000X-0.250000X0.225000X-0.250000X-0.225000X0*%
%TD*%
%TA.AperFunction,SMDPad,CuDef*%
%ADD14R,1.500000X1.000000*%
%TD*%
%TA.AperFunction,ComponentPad*%
%ADD15O,2.000000X2.500000*%
%TD*%
%TA.AperFunction,ComponentPad*%
%ADD16O,1.850000X2.500000*%
%TD*%
%TA.AperFunction,ComponentPad*%
%ADD17RoundRect,0.250000X0.625000X-0.350000X0.625000X0.350000X-0.625000X0.350000X-0.625000X-0.350000X0*%
%TD*%
%TA.AperFunction,ComponentPad*%
%ADD18O,1.750000X1.200000*%
%TD*%
%TA.AperFunction,SMDPad,CuDef*%
%ADD19R,0.800000X1.000000*%
%TD*%
%TA.AperFunction,SMDPad,CuDef*%
%ADD20R,1.500000X0.700000*%
%TD*%
%TA.AperFunction,SMDPad,CuDef*%
%ADD21R,2.500000X1.000000*%
%TD*%
%TA.AperFunction,ComponentPad*%
%ADD22C,2.000000*%
%TD*%
%TA.AperFunction,ComponentPad*%
%ADD23R,1.700000X1.700000*%
%TD*%
%TA.AperFunction,SMDPad,CuDef*%
%ADD24RoundRect,0.218750X-0.256250X0.218750X-0.256250X-0.218750X0.256250X-0.218750X0.256250X0.218750X0*%
%TD*%
%TA.AperFunction,SMDPad,CuDef*%
%ADD25R,3.500000X1.700000*%
%TD*%
%TA.AperFunction,SMDPad,CuDef*%
%ADD26R,1.500000X2.000000*%
%TD*%
%TA.AperFunction,SMDPad,CuDef*%
%ADD27R,3.800000X2.000000*%
%TD*%
%TA.AperFunction,SMDPad,CuDef*%
%ADD28RoundRect,0.225000X-0.225000X-0.250000X0.225000X-0.250000X0.225000X0.250000X-0.225000X0.250000X0*%
%TD*%
%TA.AperFunction,ViaPad*%
%ADD29C,0.800000*%
%TD*%
%TA.AperFunction,ViaPad*%
%ADD30C,0.700000*%
%TD*%
%TA.AperFunction,Conductor*%
%ADD31C,0.500000*%
%TD*%
%TA.AperFunction,Conductor*%
%ADD32C,0.300000*%
%TD*%
%TA.AperFunction,Conductor*%
%ADD33C,0.250000*%
%TD*%
G04 APERTURE END LIST*
D10*
%TO.P,R1,1*%
%TO.N,/PWR_LED_K*%
X174847500Y-127875000D03*
%TO.P,R1,2*%
%TO.N,GND*%
X174847500Y-126225000D03*
%TD*%
D11*
%TO.P,J4,1,Pin_1*%
%TO.N,Net-(J4-Pad1)*%
X166510000Y-103660000D03*
D12*
%TO.P,J4,2,Pin_2*%
%TO.N,GND*%
X166510000Y-101120000D03*
%TO.P,J4,3,Pin_3*%
%TO.N,unconnected-(J4-Pad3)*%
X166510000Y-98580000D03*
%TO.P,J4,4,Pin_4*%
%TO.N,unconnected-(J4-Pad4)*%
X166510000Y-96040000D03*
%TO.P,J4,5,Pin_5*%
%TO.N,unconnected-(J4-Pad5)*%
X166510000Y-93500000D03*
%TO.P,J4,6,Pin_6*%
%TO.N,unconnected-(J4-Pad6)*%
X166510000Y-90960000D03*
%TD*%
D11*
%TO.P,J2,1,Pin_1*%
%TO.N,unconnected-(J2-Pad1)*%
X129100000Y-123960000D03*
D12*
%TO.P,J2,2,Pin_2*%
%TO.N,unconnected-(J2-Pad2)*%
X131640000Y-123960000D03*
%TO.P,J2,3,Pin_3*%
%TO.N,unconnected-(J2-Pad3)*%
X134180000Y-123960000D03*
%TO.P,J2,4,Pin_4*%
%TO.N,/SPI1 - CS*%
X136720000Y-123960000D03*
%TO.P,J2,5,Pin_5*%
%TO.N,/RX -> TX*%
X139260000Y-123960000D03*
%TO.P,J2,6,Pin_6*%
%TO.N,/TX -> RX*%
X141800000Y-123960000D03*
%TO.P,J2,7,Pin_7*%
%TO.N,/CLK*%
X144340000Y-123960000D03*
%TO.P,J2,8,Pin_8*%
%TO.N,GND*%
X146880000Y-123960000D03*
%TO.P,J2,9,Pin_9*%
%TO.N,+3.3V*%
X149420000Y-123960000D03*
%TD*%
D13*
%TO.P,C2,1*%
%TO.N,+3.3V*%
X171497500Y-131445000D03*
%TO.P,C2,2*%
%TO.N,GND*%
X171497500Y-129895000D03*
%TD*%
D14*
%TO.P,D2,1,VSS*%
%TO.N,GND*%
X119810000Y-74150000D03*
%TO.P,D2,2,DIN*%
%TO.N,Net-(D2-Pad2)*%
X119810000Y-70950000D03*
%TO.P,D2,3,VDD*%
%TO.N,+3.3V*%
X114910000Y-70950000D03*
%TO.P,D2,4,DOUT*%
%TO.N,unconnected-(D2-Pad4)*%
X114910000Y-74150000D03*
%TD*%
D15*
%TO.P,SW5,1*%
%TO.N,Net-(J4-Pad1)*%
X174860000Y-113470000D03*
D16*
%TO.P,SW5,2*%
%TO.N,unconnected-(SW5-Pad2)*%
X172120000Y-113470000D03*
D15*
%TO.P,SW5,3*%
%TO.N,unconnected-(SW5-Pad3)*%
X169380000Y-113470000D03*
%TO.P,SW5,4*%
%TO.N,unconnected-(SW5-Pad4)*%
X169380000Y-119470000D03*
D16*
%TO.P,SW5,5*%
%TO.N,VBUS*%
X172120000Y-119470000D03*
D15*
%TO.P,SW5,6*%
%TO.N,unconnected-(SW5-Pad6)*%
X174860000Y-119470000D03*
%TD*%
D17*
%TO.P,J1,1,Pin_1*%
%TO.N,/MISO - SPI0Rx - BL*%
X116120000Y-97680000D03*
D18*
%TO.P,J1,2,Pin_2*%
%TO.N,/RST*%
X116120000Y-95680000D03*
%TO.P,J1,3,Pin_3*%
%TO.N,/DC*%
X116120000Y-93680000D03*
%TO.P,J1,4,Pin_4*%
%TO.N,/SPI0 - CS*%
X116120000Y-91680000D03*
%TO.P,J1,5,Pin_5*%
%TO.N,/CLK - SPI0SCK*%
X116120000Y-89680000D03*
%TO.P,J1,6,Pin_6*%
%TO.N,/MOSI - SPI0Tx - DIN*%
X116120000Y-87680000D03*
%TO.P,J1,7,Pin_7*%
%TO.N,GND*%
X116120000Y-85680000D03*
%TO.P,J1,8,Pin_8*%
%TO.N,+3.3V*%
X116120000Y-83680000D03*
%TD*%
D19*
%TO.P,SW4,*%
%TO.N,*%
X172540000Y-75730000D03*
X170330000Y-75730000D03*
X172540000Y-83030000D03*
X170330000Y-83030000D03*
D20*
%TO.P,SW4,1,A*%
%TO.N,VBUS*%
X169680000Y-81630000D03*
%TO.P,SW4,2,B*%
%TO.N,Net-(SW4-Pad2)*%
X169680000Y-78630000D03*
%TO.P,SW4,3,C*%
%TO.N,unconnected-(SW4-Pad3)*%
X169680000Y-77130000D03*
%TD*%
D21*
%TO.P,U2,1,RXD1*%
%TO.N,Net-(U2-Pad1)*%
X102950000Y-105510000D03*
%TO.P,U2,2,TXD1*%
%TO.N,/GPS RX -> Pico TX*%
X102950000Y-108050000D03*
%TO.P,U2,3,GND*%
%TO.N,GND*%
X102950000Y-110590000D03*
%TO.P,U2,4,VCC*%
%TO.N,+3.3V*%
X102950000Y-113130000D03*
%TO.P,U2,5,V_BCKP*%
X102950000Y-115670000D03*
%TO.P,U2,6,1PPS*%
%TO.N,unconnected-(U2-Pad6)*%
X102950000Y-118210000D03*
%TO.P,U2,7,RESERVED*%
%TO.N,unconnected-(U2-Pad7)*%
X118450000Y-118210000D03*
%TO.P,U2,8,RESERVED*%
%TO.N,unconnected-(U2-Pad8)*%
X118450000Y-115670000D03*
%TO.P,U2,9,NC*%
%TO.N,unconnected-(U2-Pad9)*%
X118450000Y-113130000D03*
%TO.P,U2,10,~{RESET}*%
%TO.N,unconnected-(U2-Pad10)*%
X118450000Y-110590000D03*
%TO.P,U2,11,RESERVED*%
%TO.N,unconnected-(U2-Pad11)*%
X118450000Y-108050000D03*
%TO.P,U2,12,GND*%
%TO.N,GND*%
X118450000Y-105510000D03*
%TD*%
D22*
%TO.P,SW1,1,1*%
%TO.N,Net-(SW1-Pad1)*%
X109540000Y-126440000D03*
X103040000Y-126440000D03*
%TO.P,SW1,2,2*%
%TO.N,GND*%
X103040000Y-130940000D03*
X109540000Y-130940000D03*
%TD*%
%TO.P,SW3,1,1*%
%TO.N,Net-(SW3-Pad1)*%
X170280000Y-138920000D03*
X163780000Y-138920000D03*
%TO.P,SW3,2,2*%
%TO.N,GND*%
X163780000Y-143420000D03*
X170280000Y-143420000D03*
%TD*%
D23*
%TO.P,J3,1,Pin_1*%
%TO.N,Net-(J3-Pad1)*%
X161160000Y-80500000D03*
D12*
%TO.P,J3,2,Pin_2*%
%TO.N,Net-(J3-Pad2)*%
X161160000Y-83040000D03*
%TD*%
D24*
%TO.P,D1,1,K*%
%TO.N,/PWR_LED_K*%
X174817500Y-129822500D03*
%TO.P,D1,2,A*%
%TO.N,+3.3V*%
X174817500Y-131397500D03*
%TD*%
D25*
%TO.P,U3,1,GPIO0*%
%TO.N,Net-(U2-Pad1)*%
X129845000Y-70175000D03*
D12*
X130745000Y-70175000D03*
%TO.P,U3,2,GPIO1*%
%TO.N,/GPS RX -> Pico TX*%
X130745000Y-72715000D03*
D25*
X129845000Y-72715000D03*
D23*
%TO.P,U3,3,GND*%
%TO.N,GND*%
X130745000Y-75255000D03*
D25*
X129845000Y-75255000D03*
D12*
%TO.P,U3,4,GPIO2*%
%TO.N,/CLK - SPI0SCK*%
X130745000Y-77795000D03*
D25*
X129845000Y-77795000D03*
%TO.P,U3,5,GPIO3*%
%TO.N,/MOSI - SPI0Tx - DIN*%
X129845000Y-80335000D03*
D12*
X130745000Y-80335000D03*
D25*
%TO.P,U3,6,GPIO4*%
%TO.N,/MISO - SPI0Rx - BL*%
X129845000Y-82875000D03*
D12*
X130745000Y-82875000D03*
%TO.P,U3,7,GPIO5*%
%TO.N,/SPI0 - CS*%
X130745000Y-85415000D03*
D25*
X129845000Y-85415000D03*
D23*
%TO.P,U3,8,GND*%
%TO.N,unconnected-(U3-Pad8)*%
X130745000Y-87955000D03*
D25*
X129845000Y-87955000D03*
D12*
%TO.P,U3,9,GPIO6*%
%TO.N,/DC*%
X130745000Y-90495000D03*
D25*
X129845000Y-90495000D03*
D12*
%TO.P,U3,10,GPIO7*%
%TO.N,/RST*%
X130745000Y-93035000D03*
D25*
X129845000Y-93035000D03*
D12*
%TO.P,U3,11,GPIO8*%
%TO.N,unconnected-(U3-Pad11)*%
X130745000Y-95575000D03*
D25*
X129845000Y-95575000D03*
%TO.P,U3,12,GPIO9*%
%TO.N,unconnected-(U3-Pad12)*%
X129845000Y-98115000D03*
D12*
X130745000Y-98115000D03*
D23*
%TO.P,U3,13,GND*%
%TO.N,unconnected-(U3-Pad13)*%
X130745000Y-100655000D03*
D25*
X129845000Y-100655000D03*
D12*
%TO.P,U3,14,GPIO10*%
%TO.N,/CLK*%
X130745000Y-103195000D03*
D25*
X129845000Y-103195000D03*
%TO.P,U3,15,GPIO11*%
%TO.N,/RX -> TX*%
X129845000Y-105735000D03*
D12*
X130745000Y-105735000D03*
%TO.P,U3,16,GPIO12*%
%TO.N,/TX -> RX*%
X130745000Y-108275000D03*
D25*
X129845000Y-108275000D03*
%TO.P,U3,17,GPIO13*%
%TO.N,/SPI1 - CS*%
X129845000Y-110815000D03*
D12*
X130745000Y-110815000D03*
D23*
%TO.P,U3,18,GND*%
%TO.N,unconnected-(U3-Pad18)*%
X130745000Y-113355000D03*
D25*
X129845000Y-113355000D03*
D12*
%TO.P,U3,19,GPIO14*%
%TO.N,Net-(SW1-Pad1)*%
X130745000Y-115895000D03*
D25*
X129845000Y-115895000D03*
%TO.P,U3,20,GPIO15*%
%TO.N,Net-(SW2-Pad1)*%
X129845000Y-118435000D03*
D12*
X130745000Y-118435000D03*
%TO.P,U3,21,GPIO16*%
%TO.N,Net-(SW3-Pad1)*%
X148525000Y-118435000D03*
D25*
X149425000Y-118435000D03*
%TO.P,U3,22,GPIO17*%
%TO.N,unconnected-(U3-Pad22)*%
X149425000Y-115895000D03*
D12*
X148525000Y-115895000D03*
D23*
%TO.P,U3,23,GND*%
%TO.N,unconnected-(U3-Pad23)*%
X148525000Y-113355000D03*
D25*
X149425000Y-113355000D03*
D12*
%TO.P,U3,24,GPIO18*%
%TO.N,unconnected-(U3-Pad24)*%
X148525000Y-110815000D03*
D25*
X149425000Y-110815000D03*
%TO.P,U3,25,GPIO19*%
%TO.N,unconnected-(U3-Pad25)*%
X149425000Y-108275000D03*
D12*
X148525000Y-108275000D03*
D25*
%TO.P,U3,26,GPIO20*%
%TO.N,unconnected-(U3-Pad26)*%
X149425000Y-105735000D03*
D12*
X148525000Y-105735000D03*
%TO.P,U3,27,GPIO21*%
%TO.N,unconnected-(U3-Pad27)*%
X148525000Y-103195000D03*
D25*
X149425000Y-103195000D03*
%TO.P,U3,28,GND*%
%TO.N,Net-(J3-Pad2)*%
X149425000Y-100655000D03*
D23*
X148525000Y-100655000D03*
D25*
%TO.P,U3,29,GPIO22*%
%TO.N,unconnected-(U3-Pad29)*%
X149425000Y-98115000D03*
D12*
X148525000Y-98115000D03*
D25*
%TO.P,U3,30,RUN*%
%TO.N,unconnected-(U3-Pad30)*%
X149425000Y-95575000D03*
D12*
X148525000Y-95575000D03*
D25*
%TO.P,U3,31,GPIO26_ADC0*%
%TO.N,unconnected-(U3-Pad31)*%
X149425000Y-93035000D03*
D12*
X148525000Y-93035000D03*
D25*
%TO.P,U3,32,GPIO27_ADC1*%
%TO.N,unconnected-(U3-Pad32)*%
X149425000Y-90495000D03*
D12*
X148525000Y-90495000D03*
D25*
%TO.P,U3,33,AGND*%
%TO.N,unconnected-(U3-Pad33)*%
X149425000Y-87955000D03*
D23*
X148525000Y-87955000D03*
D12*
%TO.P,U3,34,GPIO28_ADC2*%
%TO.N,Net-(D2-Pad2)*%
X148525000Y-85415000D03*
D25*
X149425000Y-85415000D03*
%TO.P,U3,35,ADC_VREF*%
%TO.N,unconnected-(U3-Pad35)*%
X149425000Y-82875000D03*
D12*
X148525000Y-82875000D03*
%TO.P,U3,36,3V3*%
%TO.N,Net-(J3-Pad1)*%
X148525000Y-80335000D03*
D25*
X149425000Y-80335000D03*
%TO.P,U3,37,3V3_EN*%
%TO.N,unconnected-(U3-Pad37)*%
X149425000Y-77795000D03*
D12*
X148525000Y-77795000D03*
D23*
%TO.P,U3,38,GND*%
%TO.N,unconnected-(U3-Pad38)*%
X148525000Y-75255000D03*
D25*
X149425000Y-75255000D03*
%TO.P,U3,39,VSYS*%
%TO.N,Net-(SW4-Pad2)*%
X149425000Y-72715000D03*
D12*
X148525000Y-72715000D03*
%TO.P,U3,40,VBUS*%
%TO.N,unconnected-(U3-Pad40)*%
X148525000Y-70175000D03*
D25*
X149425000Y-70175000D03*
%TD*%
D26*
%TO.P,U1,1,GND*%
%TO.N,GND*%
X168232500Y-127730000D03*
%TO.P,U1,2,VO*%
%TO.N,+3.3V*%
X165932500Y-127730000D03*
D27*
X165932500Y-134030000D03*
D26*
%TO.P,U1,3,VI*%
%TO.N,VBUS*%
X163632500Y-127730000D03*
%TD*%
D22*
%TO.P,SW2,1,1*%
%TO.N,Net-(SW2-Pad1)*%
X103120000Y-138290000D03*
X109620000Y-138290000D03*
%TO.P,SW2,2,2*%
%TO.N,GND*%
X103120000Y-142790000D03*
X109620000Y-142790000D03*
%TD*%
D28*
%TO.P,C1,1*%
%TO.N,VBUS*%
X163307500Y-124272500D03*
%TO.P,C1,2*%
%TO.N,GND*%
X164857500Y-124272500D03*
%TD*%
D29*
%TO.N,GND*%
X169820000Y-101140000D03*
X106110000Y-133830000D03*
X166850000Y-145460000D03*
X121940000Y-105560000D03*
X168622500Y-129680000D03*
X106360000Y-144970000D03*
X167532500Y-129690000D03*
X167852500Y-124620000D03*
X146950000Y-128330000D03*
X173170000Y-126230000D03*
D30*
X120140000Y-85010000D03*
D29*
X124780000Y-75270000D03*
X106580000Y-110610000D03*
X119800000Y-76460000D03*
X173020000Y-129900000D03*
%TO.N,Net-(SW1-Pad1)*%
X115390000Y-124360000D03*
X113420000Y-125350000D03*
X124760000Y-115940000D03*
X121800000Y-116020000D03*
%TO.N,Net-(SW2-Pad1)*%
X119520000Y-128500000D03*
X121860000Y-119600000D03*
X118000000Y-129920000D03*
X124910000Y-119570000D03*
%TO.N,Net-(SW3-Pad1)*%
X156310000Y-129860000D03*
X156190000Y-134220000D03*
%TD*%
D31*
%TO.N,VBUS*%
X167432500Y-116980000D02*
X165731250Y-118681250D01*
X163130000Y-86220000D02*
X164290000Y-85060000D01*
X165731250Y-118681250D02*
X163132500Y-121280000D01*
X165731250Y-111591250D02*
X163130000Y-108990000D01*
X165731250Y-118681250D02*
X165731250Y-111591250D01*
X163130000Y-108990000D02*
X163130000Y-86220000D01*
X164290000Y-85060000D02*
X167510000Y-85060000D01*
X167510000Y-85060000D02*
X167510000Y-83800000D01*
X167510000Y-83800000D02*
X169680000Y-81630000D01*
%TO.N,+3.3V*%
X121400000Y-131630000D02*
X149470000Y-131630000D01*
X149470000Y-131630000D02*
X155930000Y-131630000D01*
X149420000Y-123960000D02*
X149420000Y-131580000D01*
X149420000Y-131580000D02*
X149470000Y-131630000D01*
X110620000Y-120850000D02*
X121400000Y-131630000D01*
X173472500Y-132940000D02*
X173472500Y-131620000D01*
X155930000Y-131630000D02*
X160960000Y-136660000D01*
X160960000Y-136660000D02*
X169752500Y-136660000D01*
X110620000Y-115850000D02*
X110620000Y-120850000D01*
X169752500Y-136660000D02*
X173472500Y-132940000D01*
%TO.N,Net-(SW3-Pad1)*%
X156310000Y-129860000D02*
X157080000Y-129090000D01*
X157080000Y-123090000D02*
X157070000Y-123090000D01*
X157080000Y-129090000D02*
X157080000Y-123090000D01*
X157070000Y-123090000D02*
X152415000Y-118435000D01*
X152415000Y-118435000D02*
X148525000Y-118435000D01*
%TO.N,Net-(SW4-Pad2)*%
X148525000Y-72715000D02*
X161545000Y-72715000D01*
X161545000Y-72715000D02*
X167460000Y-78630000D01*
%TO.N,VBUS*%
X163182500Y-124147500D02*
X163307500Y-124272500D01*
X172120000Y-117600000D02*
X171500000Y-116980000D01*
X171500000Y-116980000D02*
X167432500Y-116980000D01*
X163182500Y-124222500D02*
X163132500Y-124272500D01*
X163162500Y-124127500D02*
X163307500Y-124272500D01*
X163132500Y-124272500D02*
X163132500Y-126000000D01*
X163632500Y-126500000D02*
X163632500Y-127730000D01*
X163232500Y-124347500D02*
X163307500Y-124272500D01*
X163132500Y-126000000D02*
X163632500Y-126500000D01*
X172120000Y-119470000D02*
X172120000Y-117600000D01*
X163132500Y-121280000D02*
X163132500Y-124272500D01*
D32*
%TO.N,GND*%
X106650000Y-133830000D02*
X106110000Y-133830000D01*
D31*
X165380000Y-124620000D02*
X165032500Y-124272500D01*
X130745000Y-75255000D02*
X124795000Y-75255000D01*
X119810000Y-74150000D02*
X119810000Y-76450000D01*
X116120000Y-85680000D02*
X119470000Y-85680000D01*
X146950000Y-124030000D02*
X146880000Y-123960000D01*
X167852500Y-124620000D02*
X165380000Y-124620000D01*
D32*
X107440000Y-144970000D02*
X106360000Y-144970000D01*
X109540000Y-130940000D02*
X106650000Y-133830000D01*
D31*
X119810000Y-76450000D02*
X119800000Y-76460000D01*
D32*
X165820000Y-145460000D02*
X166850000Y-145460000D01*
D31*
X168232500Y-125000000D02*
X167852500Y-124620000D01*
X171457500Y-129680000D02*
X171497500Y-129720000D01*
D32*
X106360000Y-144970000D02*
X105300000Y-144970000D01*
D31*
X168232500Y-128990000D02*
X167532500Y-129690000D01*
X168232500Y-127730000D02*
X168232500Y-128990000D01*
X168622500Y-129680000D02*
X171457500Y-129680000D01*
D32*
X168240000Y-145460000D02*
X166850000Y-145460000D01*
D31*
X168232500Y-129290000D02*
X168622500Y-129680000D01*
X118450000Y-105510000D02*
X121890000Y-105510000D01*
X168232500Y-128990000D02*
X168232500Y-129290000D01*
X173015000Y-129895000D02*
X173020000Y-129900000D01*
X169800000Y-101120000D02*
X169820000Y-101140000D01*
X173175000Y-126225000D02*
X173170000Y-126230000D01*
X168232500Y-127730000D02*
X168232500Y-125000000D01*
D32*
X170280000Y-143420000D02*
X168240000Y-145460000D01*
X109620000Y-142790000D02*
X107440000Y-144970000D01*
D31*
X171282500Y-129680000D02*
X171497500Y-129895000D01*
D32*
X105300000Y-144970000D02*
X103120000Y-142790000D01*
X105930000Y-133830000D02*
X106110000Y-133830000D01*
D33*
X106560000Y-110590000D02*
X102950000Y-110590000D01*
D31*
X146950000Y-128330000D02*
X146950000Y-124030000D01*
D32*
X103040000Y-130940000D02*
X105930000Y-133830000D01*
X163780000Y-143420000D02*
X165820000Y-145460000D01*
D31*
X174847500Y-126225000D02*
X173175000Y-126225000D01*
X124795000Y-75255000D02*
X124780000Y-75270000D01*
D33*
X106580000Y-110610000D02*
X106560000Y-110590000D01*
D31*
X171497500Y-129895000D02*
X173015000Y-129895000D01*
X121890000Y-105510000D02*
X121940000Y-105560000D01*
X166510000Y-101120000D02*
X169800000Y-101120000D01*
X119470000Y-85680000D02*
X120140000Y-85010000D01*
%TO.N,+3.3V*%
X110620000Y-72190000D02*
X111860000Y-70950000D01*
X110620000Y-113150000D02*
X110620000Y-115850000D01*
X165932500Y-127730000D02*
X165932500Y-134030000D01*
X116120000Y-83680000D02*
X114080000Y-81640000D01*
X114080000Y-81640000D02*
X110860000Y-81640000D01*
X110620000Y-83380000D02*
X110620000Y-81400000D01*
X165932500Y-134030000D02*
X169087500Y-134030000D01*
X110620000Y-113150000D02*
X112400000Y-113150000D01*
X174595000Y-131620000D02*
X174817500Y-131397500D01*
X110040000Y-83960000D02*
X110620000Y-83380000D01*
X110620000Y-81400000D02*
X110620000Y-72190000D01*
X110860000Y-81640000D02*
X110620000Y-81400000D01*
X110600000Y-113130000D02*
X110620000Y-113150000D01*
X112400000Y-113150000D02*
X114920000Y-110630000D01*
X102950000Y-115670000D02*
X110440000Y-115670000D01*
X111860000Y-70950000D02*
X114910000Y-70950000D01*
X114920000Y-101430000D02*
X114220000Y-100730000D01*
X110040000Y-100730000D02*
X110040000Y-83960000D01*
X171497500Y-131620000D02*
X173472500Y-131620000D01*
X110440000Y-115670000D02*
X110620000Y-115850000D01*
X102950000Y-113130000D02*
X110600000Y-113130000D01*
X114220000Y-100730000D02*
X110040000Y-100730000D01*
X173472500Y-131620000D02*
X174595000Y-131620000D01*
X169087500Y-134030000D02*
X171497500Y-131620000D01*
X114920000Y-110630000D02*
X114920000Y-101430000D01*
%TO.N,/PWR_LED_K*%
X174817500Y-129822500D02*
X174817500Y-127905000D01*
X174817500Y-127905000D02*
X174847500Y-127875000D01*
D33*
%TO.N,Net-(D2-Pad2)*%
X147545134Y-85415000D02*
X148525000Y-85415000D01*
X136084999Y-73954865D02*
X147545134Y-85415000D01*
X119810000Y-70950000D02*
X122814865Y-73954865D01*
X122814865Y-73954865D02*
X136084999Y-73954865D01*
D32*
%TO.N,/MISO - SPI0Rx - BL*%
X133855000Y-82875000D02*
X130745000Y-82875000D01*
X127410000Y-96890000D02*
X133110000Y-96890000D01*
X134220000Y-83240000D02*
X133855000Y-82875000D01*
X126620000Y-97680000D02*
X127410000Y-96890000D01*
X133110000Y-96890000D02*
X134220000Y-95780000D01*
X134220000Y-95780000D02*
X134220000Y-83240000D01*
X116120000Y-97680000D02*
X126620000Y-97680000D01*
%TO.N,/RST*%
X116120000Y-95680000D02*
X121400000Y-95680000D01*
X121400000Y-95680000D02*
X124045000Y-93035000D01*
X124045000Y-93035000D02*
X130745000Y-93035000D01*
%TO.N,/DC*%
X116120000Y-93680000D02*
X119990000Y-93680000D01*
X119990000Y-93680000D02*
X123175000Y-90495000D01*
X123175000Y-90495000D02*
X130745000Y-90495000D01*
%TO.N,/CLK - SPI0SCK*%
X133875000Y-77795000D02*
X130745000Y-77795000D01*
X116120000Y-89680000D02*
X119550000Y-89680000D01*
X134220000Y-79990000D02*
X134220000Y-78140000D01*
X119550000Y-89680000D02*
X127620000Y-81610000D01*
X134220000Y-78140000D02*
X133875000Y-77795000D01*
X132600000Y-81610000D02*
X134220000Y-79990000D01*
X127620000Y-81610000D02*
X132600000Y-81610000D01*
%TO.N,/MOSI - SPI0Tx - DIN*%
X127775661Y-80335000D02*
X130745000Y-80335000D01*
X116120000Y-87680000D02*
X120430661Y-87680000D01*
X120430661Y-87680000D02*
X127775661Y-80335000D01*
%TO.N,/RX -> TX*%
X134390000Y-128830000D02*
X139260000Y-123960000D01*
X123210000Y-111610000D02*
X123210000Y-127920000D01*
X129085000Y-105735000D02*
X123210000Y-111610000D01*
X123210000Y-127920000D02*
X124120000Y-128830000D01*
X130745000Y-105735000D02*
X129085000Y-105735000D01*
X124120000Y-128830000D02*
X134390000Y-128830000D01*
%TO.N,/TX -> RX*%
X137665000Y-108275000D02*
X141800000Y-112410000D01*
X141800000Y-112410000D02*
X141800000Y-123960000D01*
X137665000Y-108275000D02*
X130745000Y-108275000D01*
%TO.N,/CLK*%
X130745000Y-103195000D02*
X130760000Y-103180000D01*
X141850000Y-103180000D02*
X144340000Y-105670000D01*
X130760000Y-103180000D02*
X141850000Y-103180000D01*
X144340000Y-105670000D02*
X144340000Y-123960000D01*
%TO.N,Net-(SW1-Pad1)*%
X109540000Y-126440000D02*
X103040000Y-126440000D01*
X109540000Y-126440000D02*
X110630000Y-125350000D01*
X110630000Y-125350000D02*
X113420000Y-125350000D01*
X121800000Y-117950000D02*
X121800000Y-116020000D01*
X124760000Y-115940000D02*
X130700000Y-115940000D01*
X130700000Y-115940000D02*
X130745000Y-115895000D01*
X115390000Y-124360000D02*
X121800000Y-117950000D01*
D31*
%TO.N,Net-(J4-Pad1)*%
X174790000Y-110920000D02*
X174790000Y-113340000D01*
X174790000Y-113340000D02*
X174660000Y-113470000D01*
X166510000Y-103660000D02*
X173770000Y-110920000D01*
X173770000Y-110920000D02*
X174790000Y-110920000D01*
D32*
%TO.N,Net-(SW2-Pad1)*%
X109620000Y-138290000D02*
X103120000Y-138290000D01*
X124910000Y-119570000D02*
X126045000Y-118435000D01*
X121860000Y-126160000D02*
X121860000Y-119600000D01*
X119520000Y-128500000D02*
X121860000Y-126160000D01*
X117990000Y-129920000D02*
X118000000Y-129920000D01*
X109620000Y-138290000D02*
X117990000Y-129920000D01*
X126045000Y-118435000D02*
X130745000Y-118435000D01*
%TO.N,Net-(SW3-Pad1)*%
X160890000Y-138920000D02*
X156190000Y-134220000D01*
X163780000Y-138920000D02*
X160890000Y-138920000D01*
X170280000Y-138920000D02*
X163780000Y-138920000D01*
D31*
%TO.N,Net-(SW4-Pad2)*%
X167460000Y-78630000D02*
X169680000Y-78630000D01*
D32*
%TO.N,Net-(U2-Pad1)*%
X107910000Y-102250000D02*
X107910000Y-68950000D01*
X104650000Y-105510000D02*
X107910000Y-102250000D01*
X102950000Y-105510000D02*
X104650000Y-105510000D01*
X126320000Y-70210000D02*
X130710000Y-70210000D01*
X108280000Y-68580000D02*
X124690000Y-68580000D01*
X124690000Y-68580000D02*
X126320000Y-70210000D01*
X130710000Y-70210000D02*
X130745000Y-70175000D01*
X107910000Y-68950000D02*
X108280000Y-68580000D01*
%TO.N,/GPS RX -> Pico TX*%
X109160000Y-104890000D02*
X109160000Y-69760000D01*
X102950000Y-108050000D02*
X106000000Y-108050000D01*
X109770000Y-69150000D02*
X120830000Y-69150000D01*
X106000000Y-108050000D02*
X109160000Y-104890000D01*
X109160000Y-69760000D02*
X109770000Y-69150000D01*
X120830000Y-69150000D02*
X124395000Y-72715000D01*
X124395000Y-72715000D02*
X130745000Y-72715000D01*
D31*
%TO.N,Net-(J3-Pad2)*%
X148525000Y-100655000D02*
X152805000Y-100655000D01*
X152805000Y-100655000D02*
X161160000Y-92300000D01*
X161160000Y-92300000D02*
X161160000Y-83040000D01*
%TO.N,Net-(J3-Pad1)*%
X160995000Y-80335000D02*
X161160000Y-80500000D01*
X148525000Y-80335000D02*
X160995000Y-80335000D01*
D32*
%TO.N,/SPI0 - CS*%
X116120000Y-91680000D02*
X118750000Y-91680000D01*
X125015000Y-85415000D02*
X130745000Y-85415000D01*
X118750000Y-91680000D02*
X125015000Y-85415000D01*
%TO.N,/SPI1 - CS*%
X136720000Y-114860000D02*
X132650000Y-110790000D01*
X136720000Y-123960000D02*
X136720000Y-114860000D01*
X132650000Y-110790000D02*
X130770000Y-110790000D01*
X130770000Y-110790000D02*
X130745000Y-110815000D01*
%TD*%
M02*
