%TF.GenerationSoftware,KiCad,Pcbnew,(6.0.7-1)-1*%
%TF.CreationDate,2023-01-01T12:44:42+00:00*%
%TF.ProjectId,pico-gps-datalogger,7069636f-2d67-4707-932d-646174616c6f,rev?*%
%TF.SameCoordinates,Original*%
%TF.FileFunction,Soldermask,Bot*%
%TF.FilePolarity,Negative*%
%FSLAX46Y46*%
G04 Gerber Fmt 4.6, Leading zero omitted, Abs format (unit mm)*
G04 Created by KiCad (PCBNEW (6.0.7-1)-1) date 2023-01-01 12:44:42*
%MOMM*%
%LPD*%
G01*
G04 APERTURE LIST*
G04 Aperture macros list*
%AMRoundRect*
0 Rectangle with rounded corners*
0 $1 Rounding radius*
0 $2 $3 $4 $5 $6 $7 $8 $9 X,Y pos of 4 corners*
0 Add a 4 corners polygon primitive as box body*
4,1,4,$2,$3,$4,$5,$6,$7,$8,$9,$2,$3,0*
0 Add four circle primitives for the rounded corners*
1,1,$1+$1,$2,$3*
1,1,$1+$1,$4,$5*
1,1,$1+$1,$6,$7*
1,1,$1+$1,$8,$9*
0 Add four rect primitives between the rounded corners*
20,1,$1+$1,$2,$3,$4,$5,0*
20,1,$1+$1,$4,$5,$6,$7,0*
20,1,$1+$1,$6,$7,$8,$9,0*
20,1,$1+$1,$8,$9,$2,$3,0*%
G04 Aperture macros list end*
%ADD10C,1.700000*%
%ADD11O,1.700000X1.700000*%
%ADD12C,2.200000*%
%ADD13O,2.000000X2.500000*%
%ADD14O,1.850000X2.500000*%
%ADD15RoundRect,0.250000X0.625000X-0.350000X0.625000X0.350000X-0.625000X0.350000X-0.625000X-0.350000X0*%
%ADD16O,1.750000X1.200000*%
%ADD17C,3.200000*%
%ADD18C,0.900000*%
%ADD19C,2.000000*%
%ADD20R,1.700000X1.700000*%
%ADD21O,1.500000X1.500000*%
%ADD22O,1.800000X1.800000*%
G04 APERTURE END LIST*
D10*
%TO.C,J4*%
X166510000Y-103660000D03*
D11*
X166510000Y-101120000D03*
X166510000Y-98580000D03*
X166510000Y-96040000D03*
X166510000Y-93500000D03*
X166510000Y-90960000D03*
%TD*%
D12*
%TO.C,H4*%
X177100000Y-143000000D03*
%TD*%
%TO.C,H1*%
X97200000Y-69500000D03*
%TD*%
D10*
%TO.C,J2*%
X129100000Y-123960000D03*
D11*
X131640000Y-123960000D03*
X134180000Y-123960000D03*
X136720000Y-123960000D03*
X139260000Y-123960000D03*
X141800000Y-123960000D03*
X144340000Y-123960000D03*
X146880000Y-123960000D03*
X149420000Y-123960000D03*
%TD*%
D12*
%TO.C,H2*%
X177100000Y-69500000D03*
%TD*%
D13*
%TO.C,SW5*%
X174860000Y-119470000D03*
D14*
X172120000Y-119470000D03*
D13*
X169380000Y-119470000D03*
X169380000Y-113470000D03*
D14*
X172120000Y-113470000D03*
D13*
X174860000Y-113470000D03*
%TD*%
D15*
%TO.C,J1*%
X116120000Y-97680000D03*
D16*
X116120000Y-95680000D03*
X116120000Y-93680000D03*
X116120000Y-91680000D03*
X116120000Y-89680000D03*
X116120000Y-87680000D03*
X116120000Y-85680000D03*
X116120000Y-83680000D03*
%TD*%
D12*
%TO.C,H3*%
X97200000Y-143000000D03*
%TD*%
D17*
%TO.C,H6*%
X175000000Y-105400000D03*
%TD*%
D18*
%TO.C,SW4*%
X171440000Y-77880000D03*
X171440000Y-80880000D03*
%TD*%
D19*
%TO.C,SW1*%
X109540000Y-126440000D03*
X103040000Y-126440000D03*
X103040000Y-130940000D03*
X109540000Y-130940000D03*
%TD*%
%TO.C,SW3*%
X170280000Y-138920000D03*
X163780000Y-138920000D03*
X163780000Y-143420000D03*
X170280000Y-143420000D03*
%TD*%
D20*
%TO.C,J3*%
X161160000Y-80500000D03*
D11*
X161160000Y-83040000D03*
%TD*%
D21*
%TO.C,U3*%
X142060000Y-73335000D03*
X137210000Y-73335000D03*
D22*
X142360000Y-70305000D03*
X136910000Y-70305000D03*
D11*
X130745000Y-70175000D03*
X130745000Y-72715000D03*
D20*
X130745000Y-75255000D03*
D11*
X130745000Y-77795000D03*
X130745000Y-80335000D03*
X130745000Y-82875000D03*
X130745000Y-85415000D03*
D20*
X130745000Y-87955000D03*
D11*
X130745000Y-90495000D03*
X130745000Y-93035000D03*
X130745000Y-95575000D03*
X130745000Y-98115000D03*
D20*
X130745000Y-100655000D03*
D11*
X130745000Y-103195000D03*
X130745000Y-105735000D03*
X130745000Y-108275000D03*
X130745000Y-110815000D03*
D20*
X130745000Y-113355000D03*
D11*
X130745000Y-115895000D03*
X130745000Y-118435000D03*
X148525000Y-118435000D03*
X148525000Y-115895000D03*
D20*
X148525000Y-113355000D03*
D11*
X148525000Y-110815000D03*
X148525000Y-108275000D03*
X148525000Y-105735000D03*
X148525000Y-103195000D03*
D20*
X148525000Y-100655000D03*
D11*
X148525000Y-98115000D03*
X148525000Y-95575000D03*
X148525000Y-93035000D03*
X148525000Y-90495000D03*
D20*
X148525000Y-87955000D03*
D11*
X148525000Y-85415000D03*
X148525000Y-82875000D03*
X148525000Y-80335000D03*
X148525000Y-77795000D03*
D20*
X148525000Y-75255000D03*
D11*
X148525000Y-72715000D03*
X148525000Y-70175000D03*
%TD*%
D19*
%TO.C,SW2*%
X103120000Y-138290000D03*
X109620000Y-138290000D03*
X103120000Y-142790000D03*
X109620000Y-142790000D03*
%TD*%
D17*
%TO.C,H5*%
X175020000Y-89240000D03*
%TD*%
M02*
