%TF.GenerationSoftware,KiCad,Pcbnew,(6.0.7-1)-1*%
%TF.CreationDate,2022-12-28T20:51:33+00:00*%
%TF.ProjectId,pico-gps-datalogger,7069636f-2d67-4707-932d-646174616c6f,rev?*%
%TF.SameCoordinates,Original*%
%TF.FileFunction,Legend,Top*%
%TF.FilePolarity,Positive*%
%FSLAX46Y46*%
G04 Gerber Fmt 4.6, Leading zero omitted, Abs format (unit mm)*
G04 Created by KiCad (PCBNEW (6.0.7-1)-1) date 2022-12-28 20:51:33*
%MOMM*%
%LPD*%
G01*
G04 APERTURE LIST*
%ADD10C,0.150000*%
%ADD11C,0.200000*%
%ADD12C,0.500000*%
%ADD13C,0.120000*%
%ADD14C,0.127000*%
G04 APERTURE END LIST*
D10*
X126340000Y-121640000D02*
X151870000Y-121640000D01*
X151870000Y-121640000D02*
X151870000Y-144440000D01*
X151870000Y-144440000D02*
X126340000Y-144440000D01*
X126340000Y-144440000D02*
X126340000Y-121640000D01*
X164650000Y-86590000D02*
X168020000Y-86590000D01*
X168020000Y-86590000D02*
X168020000Y-89590000D01*
X168020000Y-89590000D02*
X164650000Y-89590000D01*
X164650000Y-89590000D02*
X164650000Y-86590000D01*
X164650000Y-86590000D02*
X177650000Y-86590000D01*
X177650000Y-86590000D02*
X177650000Y-108090000D01*
X177650000Y-108090000D02*
X164650000Y-108090000D01*
X164650000Y-108090000D02*
X164650000Y-86590000D01*
X164650000Y-105090000D02*
X168020000Y-105090000D01*
X168020000Y-105090000D02*
X168020000Y-108090000D01*
X168020000Y-108090000D02*
X164650000Y-108090000D01*
X164650000Y-108090000D02*
X164650000Y-105090000D01*
X163429523Y-79882380D02*
X164048571Y-79882380D01*
X163715238Y-80263333D01*
X163858095Y-80263333D01*
X163953333Y-80310952D01*
X164000952Y-80358571D01*
X164048571Y-80453809D01*
X164048571Y-80691904D01*
X164000952Y-80787142D01*
X163953333Y-80834761D01*
X163858095Y-80882380D01*
X163572380Y-80882380D01*
X163477142Y-80834761D01*
X163429523Y-80787142D01*
X164381904Y-80215714D02*
X164620000Y-80882380D01*
X164858095Y-80215714D01*
X165143809Y-79882380D02*
X165762857Y-79882380D01*
X165429523Y-80263333D01*
X165572380Y-80263333D01*
X165667619Y-80310952D01*
X165715238Y-80358571D01*
X165762857Y-80453809D01*
X165762857Y-80691904D01*
X165715238Y-80787142D01*
X165667619Y-80834761D01*
X165572380Y-80882380D01*
X165286666Y-80882380D01*
X165191428Y-80834761D01*
X165143809Y-80787142D01*
X111099523Y-83182380D02*
X111718571Y-83182380D01*
X111385238Y-83563333D01*
X111528095Y-83563333D01*
X111623333Y-83610952D01*
X111670952Y-83658571D01*
X111718571Y-83753809D01*
X111718571Y-83991904D01*
X111670952Y-84087142D01*
X111623333Y-84134761D01*
X111528095Y-84182380D01*
X111242380Y-84182380D01*
X111147142Y-84134761D01*
X111099523Y-84087142D01*
X112051904Y-83515714D02*
X112290000Y-84182380D01*
X112528095Y-83515714D01*
X112813809Y-83182380D02*
X113432857Y-83182380D01*
X113099523Y-83563333D01*
X113242380Y-83563333D01*
X113337619Y-83610952D01*
X113385238Y-83658571D01*
X113432857Y-83753809D01*
X113432857Y-83991904D01*
X113385238Y-84087142D01*
X113337619Y-84134761D01*
X113242380Y-84182380D01*
X112956666Y-84182380D01*
X112861428Y-84134761D01*
X112813809Y-84087142D01*
X111615714Y-91190000D02*
X111520476Y-91142380D01*
X111377619Y-91142380D01*
X111234761Y-91190000D01*
X111139523Y-91285238D01*
X111091904Y-91380476D01*
X111044285Y-91570952D01*
X111044285Y-91713809D01*
X111091904Y-91904285D01*
X111139523Y-91999523D01*
X111234761Y-92094761D01*
X111377619Y-92142380D01*
X111472857Y-92142380D01*
X111615714Y-92094761D01*
X111663333Y-92047142D01*
X111663333Y-91713809D01*
X111472857Y-91713809D01*
X112091904Y-92142380D02*
X112091904Y-91142380D01*
X112472857Y-91142380D01*
X112568095Y-91190000D01*
X112615714Y-91237619D01*
X112663333Y-91332857D01*
X112663333Y-91475714D01*
X112615714Y-91570952D01*
X112568095Y-91618571D01*
X112472857Y-91666190D01*
X112091904Y-91666190D01*
X113568095Y-91142380D02*
X113091904Y-91142380D01*
X113044285Y-91618571D01*
X113091904Y-91570952D01*
X113187142Y-91523333D01*
X113425238Y-91523333D01*
X113520476Y-91570952D01*
X113568095Y-91618571D01*
X113615714Y-91713809D01*
X113615714Y-91951904D01*
X113568095Y-92047142D01*
X113520476Y-92094761D01*
X113425238Y-92142380D01*
X113187142Y-92142380D01*
X113091904Y-92094761D01*
X113044285Y-92047142D01*
D11*
X112362857Y-139893571D02*
X112505714Y-139941190D01*
X112553333Y-139988809D01*
X112600952Y-140084047D01*
X112600952Y-140226904D01*
X112553333Y-140322142D01*
X112505714Y-140369761D01*
X112410476Y-140417380D01*
X112029523Y-140417380D01*
X112029523Y-139417380D01*
X112362857Y-139417380D01*
X112458095Y-139465000D01*
X112505714Y-139512619D01*
X112553333Y-139607857D01*
X112553333Y-139703095D01*
X112505714Y-139798333D01*
X112458095Y-139845952D01*
X112362857Y-139893571D01*
X112029523Y-139893571D01*
X113458095Y-139750714D02*
X113458095Y-140417380D01*
X113029523Y-139750714D02*
X113029523Y-140274523D01*
X113077142Y-140369761D01*
X113172380Y-140417380D01*
X113315238Y-140417380D01*
X113410476Y-140369761D01*
X113458095Y-140322142D01*
X113791428Y-139750714D02*
X114172380Y-139750714D01*
X113934285Y-139417380D02*
X113934285Y-140274523D01*
X113981904Y-140369761D01*
X114077142Y-140417380D01*
X114172380Y-140417380D01*
X114362857Y-139750714D02*
X114743809Y-139750714D01*
X114505714Y-139417380D02*
X114505714Y-140274523D01*
X114553333Y-140369761D01*
X114648571Y-140417380D01*
X114743809Y-140417380D01*
X115220000Y-140417380D02*
X115124761Y-140369761D01*
X115077142Y-140322142D01*
X115029523Y-140226904D01*
X115029523Y-139941190D01*
X115077142Y-139845952D01*
X115124761Y-139798333D01*
X115220000Y-139750714D01*
X115362857Y-139750714D01*
X115458095Y-139798333D01*
X115505714Y-139845952D01*
X115553333Y-139941190D01*
X115553333Y-140226904D01*
X115505714Y-140322142D01*
X115458095Y-140369761D01*
X115362857Y-140417380D01*
X115220000Y-140417380D01*
X115981904Y-139750714D02*
X115981904Y-140417380D01*
X115981904Y-139845952D02*
X116029523Y-139798333D01*
X116124761Y-139750714D01*
X116267619Y-139750714D01*
X116362857Y-139798333D01*
X116410476Y-139893571D01*
X116410476Y-140417380D01*
X113029523Y-141075000D02*
X112934285Y-141027380D01*
X112791428Y-141027380D01*
X112648571Y-141075000D01*
X112553333Y-141170238D01*
X112505714Y-141265476D01*
X112458095Y-141455952D01*
X112458095Y-141598809D01*
X112505714Y-141789285D01*
X112553333Y-141884523D01*
X112648571Y-141979761D01*
X112791428Y-142027380D01*
X112886666Y-142027380D01*
X113029523Y-141979761D01*
X113077142Y-141932142D01*
X113077142Y-141598809D01*
X112886666Y-141598809D01*
X113505714Y-142027380D02*
X113505714Y-141027380D01*
X113886666Y-141027380D01*
X113981904Y-141075000D01*
X114029523Y-141122619D01*
X114077142Y-141217857D01*
X114077142Y-141360714D01*
X114029523Y-141455952D01*
X113981904Y-141503571D01*
X113886666Y-141551190D01*
X113505714Y-141551190D01*
X115029523Y-142027380D02*
X114458095Y-142027380D01*
X114743809Y-142027380D02*
X114743809Y-141027380D01*
X114648571Y-141170238D01*
X114553333Y-141265476D01*
X114458095Y-141313095D01*
X115934285Y-141027380D02*
X115458095Y-141027380D01*
X115410476Y-141503571D01*
X115458095Y-141455952D01*
X115553333Y-141408333D01*
X115791428Y-141408333D01*
X115886666Y-141455952D01*
X115934285Y-141503571D01*
X115981904Y-141598809D01*
X115981904Y-141836904D01*
X115934285Y-141932142D01*
X115886666Y-141979761D01*
X115791428Y-142027380D01*
X115553333Y-142027380D01*
X115458095Y-141979761D01*
X115410476Y-141932142D01*
D10*
X163928095Y-82740000D02*
X163832857Y-82692380D01*
X163690000Y-82692380D01*
X163547142Y-82740000D01*
X163451904Y-82835238D01*
X163404285Y-82930476D01*
X163356666Y-83120952D01*
X163356666Y-83263809D01*
X163404285Y-83454285D01*
X163451904Y-83549523D01*
X163547142Y-83644761D01*
X163690000Y-83692380D01*
X163785238Y-83692380D01*
X163928095Y-83644761D01*
X163975714Y-83597142D01*
X163975714Y-83263809D01*
X163785238Y-83263809D01*
X164404285Y-83692380D02*
X164404285Y-82692380D01*
X164975714Y-83692380D01*
X164975714Y-82692380D01*
X165451904Y-83692380D02*
X165451904Y-82692380D01*
X165690000Y-82692380D01*
X165832857Y-82740000D01*
X165928095Y-82835238D01*
X165975714Y-82930476D01*
X166023333Y-83120952D01*
X166023333Y-83263809D01*
X165975714Y-83454285D01*
X165928095Y-83549523D01*
X165832857Y-83644761D01*
X165690000Y-83692380D01*
X165451904Y-83692380D01*
X134326666Y-141379761D02*
X134469523Y-141427380D01*
X134707619Y-141427380D01*
X134802857Y-141379761D01*
X134850476Y-141332142D01*
X134898095Y-141236904D01*
X134898095Y-141141666D01*
X134850476Y-141046428D01*
X134802857Y-140998809D01*
X134707619Y-140951190D01*
X134517142Y-140903571D01*
X134421904Y-140855952D01*
X134374285Y-140808333D01*
X134326666Y-140713095D01*
X134326666Y-140617857D01*
X134374285Y-140522619D01*
X134421904Y-140475000D01*
X134517142Y-140427380D01*
X134755238Y-140427380D01*
X134898095Y-140475000D01*
X135326666Y-141427380D02*
X135326666Y-140427380D01*
X135564761Y-140427380D01*
X135707619Y-140475000D01*
X135802857Y-140570238D01*
X135850476Y-140665476D01*
X135898095Y-140855952D01*
X135898095Y-140998809D01*
X135850476Y-141189285D01*
X135802857Y-141284523D01*
X135707619Y-141379761D01*
X135564761Y-141427380D01*
X135326666Y-141427380D01*
X137660000Y-141332142D02*
X137612380Y-141379761D01*
X137469523Y-141427380D01*
X137374285Y-141427380D01*
X137231428Y-141379761D01*
X137136190Y-141284523D01*
X137088571Y-141189285D01*
X137040952Y-140998809D01*
X137040952Y-140855952D01*
X137088571Y-140665476D01*
X137136190Y-140570238D01*
X137231428Y-140475000D01*
X137374285Y-140427380D01*
X137469523Y-140427380D01*
X137612380Y-140475000D01*
X137660000Y-140522619D01*
X138517142Y-141427380D02*
X138517142Y-140903571D01*
X138469523Y-140808333D01*
X138374285Y-140760714D01*
X138183809Y-140760714D01*
X138088571Y-140808333D01*
X138517142Y-141379761D02*
X138421904Y-141427380D01*
X138183809Y-141427380D01*
X138088571Y-141379761D01*
X138040952Y-141284523D01*
X138040952Y-141189285D01*
X138088571Y-141094047D01*
X138183809Y-141046428D01*
X138421904Y-141046428D01*
X138517142Y-140998809D01*
X138993333Y-141427380D02*
X138993333Y-140760714D01*
X138993333Y-140951190D02*
X139040952Y-140855952D01*
X139088571Y-140808333D01*
X139183809Y-140760714D01*
X139279047Y-140760714D01*
X140040952Y-141427380D02*
X140040952Y-140427380D01*
X140040952Y-141379761D02*
X139945714Y-141427380D01*
X139755238Y-141427380D01*
X139660000Y-141379761D01*
X139612380Y-141332142D01*
X139564761Y-141236904D01*
X139564761Y-140951190D01*
X139612380Y-140855952D01*
X139660000Y-140808333D01*
X139755238Y-140760714D01*
X139945714Y-140760714D01*
X140040952Y-140808333D01*
X141850476Y-141427380D02*
X141517142Y-140951190D01*
X141279047Y-141427380D02*
X141279047Y-140427380D01*
X141660000Y-140427380D01*
X141755238Y-140475000D01*
X141802857Y-140522619D01*
X141850476Y-140617857D01*
X141850476Y-140760714D01*
X141802857Y-140855952D01*
X141755238Y-140903571D01*
X141660000Y-140951190D01*
X141279047Y-140951190D01*
X142660000Y-141379761D02*
X142564761Y-141427380D01*
X142374285Y-141427380D01*
X142279047Y-141379761D01*
X142231428Y-141284523D01*
X142231428Y-140903571D01*
X142279047Y-140808333D01*
X142374285Y-140760714D01*
X142564761Y-140760714D01*
X142660000Y-140808333D01*
X142707619Y-140903571D01*
X142707619Y-140998809D01*
X142231428Y-141094047D01*
X143564761Y-141427380D02*
X143564761Y-140903571D01*
X143517142Y-140808333D01*
X143421904Y-140760714D01*
X143231428Y-140760714D01*
X143136190Y-140808333D01*
X143564761Y-141379761D02*
X143469523Y-141427380D01*
X143231428Y-141427380D01*
X143136190Y-141379761D01*
X143088571Y-141284523D01*
X143088571Y-141189285D01*
X143136190Y-141094047D01*
X143231428Y-141046428D01*
X143469523Y-141046428D01*
X143564761Y-140998809D01*
X144469523Y-141427380D02*
X144469523Y-140427380D01*
X144469523Y-141379761D02*
X144374285Y-141427380D01*
X144183809Y-141427380D01*
X144088571Y-141379761D01*
X144040952Y-141332142D01*
X143993333Y-141236904D01*
X143993333Y-140951190D01*
X144040952Y-140855952D01*
X144088571Y-140808333D01*
X144183809Y-140760714D01*
X144374285Y-140760714D01*
X144469523Y-140808333D01*
X145326666Y-141379761D02*
X145231428Y-141427380D01*
X145040952Y-141427380D01*
X144945714Y-141379761D01*
X144898095Y-141284523D01*
X144898095Y-140903571D01*
X144945714Y-140808333D01*
X145040952Y-140760714D01*
X145231428Y-140760714D01*
X145326666Y-140808333D01*
X145374285Y-140903571D01*
X145374285Y-140998809D01*
X144898095Y-141094047D01*
X145802857Y-141427380D02*
X145802857Y-140760714D01*
X145802857Y-140951190D02*
X145850476Y-140855952D01*
X145898095Y-140808333D01*
X145993333Y-140760714D01*
X146088571Y-140760714D01*
X139136190Y-142989761D02*
X139279047Y-143037380D01*
X139517142Y-143037380D01*
X139612380Y-142989761D01*
X139660000Y-142942142D01*
X139707619Y-142846904D01*
X139707619Y-142751666D01*
X139660000Y-142656428D01*
X139612380Y-142608809D01*
X139517142Y-142561190D01*
X139326666Y-142513571D01*
X139231428Y-142465952D01*
X139183809Y-142418333D01*
X139136190Y-142323095D01*
X139136190Y-142227857D01*
X139183809Y-142132619D01*
X139231428Y-142085000D01*
X139326666Y-142037380D01*
X139564761Y-142037380D01*
X139707619Y-142085000D01*
X140136190Y-143037380D02*
X140136190Y-142037380D01*
X140517142Y-142037380D01*
X140612380Y-142085000D01*
X140660000Y-142132619D01*
X140707619Y-142227857D01*
X140707619Y-142370714D01*
X140660000Y-142465952D01*
X140612380Y-142513571D01*
X140517142Y-142561190D01*
X140136190Y-142561190D01*
X141136190Y-143037380D02*
X141136190Y-142037380D01*
X143990000Y-128930476D02*
X143942380Y-129025714D01*
X143942380Y-129168571D01*
X143990000Y-129311428D01*
X144085238Y-129406666D01*
X144180476Y-129454285D01*
X144370952Y-129501904D01*
X144513809Y-129501904D01*
X144704285Y-129454285D01*
X144799523Y-129406666D01*
X144894761Y-129311428D01*
X144942380Y-129168571D01*
X144942380Y-129073333D01*
X144894761Y-128930476D01*
X144847142Y-128882857D01*
X144513809Y-128882857D01*
X144513809Y-129073333D01*
X144942380Y-128454285D02*
X143942380Y-128454285D01*
X143942380Y-128073333D01*
X143990000Y-127978095D01*
X144037619Y-127930476D01*
X144132857Y-127882857D01*
X144275714Y-127882857D01*
X144370952Y-127930476D01*
X144418571Y-127978095D01*
X144466190Y-128073333D01*
X144466190Y-128454285D01*
X144942380Y-126930476D02*
X144942380Y-127501904D01*
X144942380Y-127216190D02*
X143942380Y-127216190D01*
X144085238Y-127311428D01*
X144180476Y-127406666D01*
X144228095Y-127501904D01*
X143942380Y-126311428D02*
X143942380Y-126216190D01*
X143990000Y-126120952D01*
X144037619Y-126073333D01*
X144132857Y-126025714D01*
X144323333Y-125978095D01*
X144561428Y-125978095D01*
X144751904Y-126025714D01*
X144847142Y-126073333D01*
X144894761Y-126120952D01*
X144942380Y-126216190D01*
X144942380Y-126311428D01*
X144894761Y-126406666D01*
X144847142Y-126454285D01*
X144751904Y-126501904D01*
X144561428Y-126549523D01*
X144323333Y-126549523D01*
X144132857Y-126501904D01*
X144037619Y-126454285D01*
X143990000Y-126406666D01*
X143942380Y-126311428D01*
D11*
X112062857Y-128213571D02*
X112205714Y-128261190D01*
X112253333Y-128308809D01*
X112300952Y-128404047D01*
X112300952Y-128546904D01*
X112253333Y-128642142D01*
X112205714Y-128689761D01*
X112110476Y-128737380D01*
X111729523Y-128737380D01*
X111729523Y-127737380D01*
X112062857Y-127737380D01*
X112158095Y-127785000D01*
X112205714Y-127832619D01*
X112253333Y-127927857D01*
X112253333Y-128023095D01*
X112205714Y-128118333D01*
X112158095Y-128165952D01*
X112062857Y-128213571D01*
X111729523Y-128213571D01*
X113158095Y-128070714D02*
X113158095Y-128737380D01*
X112729523Y-128070714D02*
X112729523Y-128594523D01*
X112777142Y-128689761D01*
X112872380Y-128737380D01*
X113015238Y-128737380D01*
X113110476Y-128689761D01*
X113158095Y-128642142D01*
X113491428Y-128070714D02*
X113872380Y-128070714D01*
X113634285Y-127737380D02*
X113634285Y-128594523D01*
X113681904Y-128689761D01*
X113777142Y-128737380D01*
X113872380Y-128737380D01*
X114062857Y-128070714D02*
X114443809Y-128070714D01*
X114205714Y-127737380D02*
X114205714Y-128594523D01*
X114253333Y-128689761D01*
X114348571Y-128737380D01*
X114443809Y-128737380D01*
X114920000Y-128737380D02*
X114824761Y-128689761D01*
X114777142Y-128642142D01*
X114729523Y-128546904D01*
X114729523Y-128261190D01*
X114777142Y-128165952D01*
X114824761Y-128118333D01*
X114920000Y-128070714D01*
X115062857Y-128070714D01*
X115158095Y-128118333D01*
X115205714Y-128165952D01*
X115253333Y-128261190D01*
X115253333Y-128546904D01*
X115205714Y-128642142D01*
X115158095Y-128689761D01*
X115062857Y-128737380D01*
X114920000Y-128737380D01*
X115681904Y-128070714D02*
X115681904Y-128737380D01*
X115681904Y-128165952D02*
X115729523Y-128118333D01*
X115824761Y-128070714D01*
X115967619Y-128070714D01*
X116062857Y-128118333D01*
X116110476Y-128213571D01*
X116110476Y-128737380D01*
X112729523Y-129395000D02*
X112634285Y-129347380D01*
X112491428Y-129347380D01*
X112348571Y-129395000D01*
X112253333Y-129490238D01*
X112205714Y-129585476D01*
X112158095Y-129775952D01*
X112158095Y-129918809D01*
X112205714Y-130109285D01*
X112253333Y-130204523D01*
X112348571Y-130299761D01*
X112491428Y-130347380D01*
X112586666Y-130347380D01*
X112729523Y-130299761D01*
X112777142Y-130252142D01*
X112777142Y-129918809D01*
X112586666Y-129918809D01*
X113205714Y-130347380D02*
X113205714Y-129347380D01*
X113586666Y-129347380D01*
X113681904Y-129395000D01*
X113729523Y-129442619D01*
X113777142Y-129537857D01*
X113777142Y-129680714D01*
X113729523Y-129775952D01*
X113681904Y-129823571D01*
X113586666Y-129871190D01*
X113205714Y-129871190D01*
X114729523Y-130347380D02*
X114158095Y-130347380D01*
X114443809Y-130347380D02*
X114443809Y-129347380D01*
X114348571Y-129490238D01*
X114253333Y-129585476D01*
X114158095Y-129633095D01*
X115586666Y-129680714D02*
X115586666Y-130347380D01*
X115348571Y-129299761D02*
X115110476Y-130014047D01*
X115729523Y-130014047D01*
D10*
X141380000Y-128890476D02*
X141332380Y-128985714D01*
X141332380Y-129128571D01*
X141380000Y-129271428D01*
X141475238Y-129366666D01*
X141570476Y-129414285D01*
X141760952Y-129461904D01*
X141903809Y-129461904D01*
X142094285Y-129414285D01*
X142189523Y-129366666D01*
X142284761Y-129271428D01*
X142332380Y-129128571D01*
X142332380Y-129033333D01*
X142284761Y-128890476D01*
X142237142Y-128842857D01*
X141903809Y-128842857D01*
X141903809Y-129033333D01*
X142332380Y-128414285D02*
X141332380Y-128414285D01*
X141332380Y-128033333D01*
X141380000Y-127938095D01*
X141427619Y-127890476D01*
X141522857Y-127842857D01*
X141665714Y-127842857D01*
X141760952Y-127890476D01*
X141808571Y-127938095D01*
X141856190Y-128033333D01*
X141856190Y-128414285D01*
X142332380Y-126890476D02*
X142332380Y-127461904D01*
X142332380Y-127176190D02*
X141332380Y-127176190D01*
X141475238Y-127271428D01*
X141570476Y-127366666D01*
X141618095Y-127461904D01*
X141427619Y-126509523D02*
X141380000Y-126461904D01*
X141332380Y-126366666D01*
X141332380Y-126128571D01*
X141380000Y-126033333D01*
X141427619Y-125985714D01*
X141522857Y-125938095D01*
X141618095Y-125938095D01*
X141760952Y-125985714D01*
X142332380Y-126557142D01*
X142332380Y-125938095D01*
X138780000Y-128830476D02*
X138732380Y-128925714D01*
X138732380Y-129068571D01*
X138780000Y-129211428D01*
X138875238Y-129306666D01*
X138970476Y-129354285D01*
X139160952Y-129401904D01*
X139303809Y-129401904D01*
X139494285Y-129354285D01*
X139589523Y-129306666D01*
X139684761Y-129211428D01*
X139732380Y-129068571D01*
X139732380Y-128973333D01*
X139684761Y-128830476D01*
X139637142Y-128782857D01*
X139303809Y-128782857D01*
X139303809Y-128973333D01*
X139732380Y-128354285D02*
X138732380Y-128354285D01*
X138732380Y-127973333D01*
X138780000Y-127878095D01*
X138827619Y-127830476D01*
X138922857Y-127782857D01*
X139065714Y-127782857D01*
X139160952Y-127830476D01*
X139208571Y-127878095D01*
X139256190Y-127973333D01*
X139256190Y-128354285D01*
X139732380Y-126830476D02*
X139732380Y-127401904D01*
X139732380Y-127116190D02*
X138732380Y-127116190D01*
X138875238Y-127211428D01*
X138970476Y-127306666D01*
X139018095Y-127401904D01*
X139732380Y-125878095D02*
X139732380Y-126449523D01*
X139732380Y-126163809D02*
X138732380Y-126163809D01*
X138875238Y-126259047D01*
X138970476Y-126354285D01*
X139018095Y-126449523D01*
X111528095Y-85180000D02*
X111432857Y-85132380D01*
X111290000Y-85132380D01*
X111147142Y-85180000D01*
X111051904Y-85275238D01*
X111004285Y-85370476D01*
X110956666Y-85560952D01*
X110956666Y-85703809D01*
X111004285Y-85894285D01*
X111051904Y-85989523D01*
X111147142Y-86084761D01*
X111290000Y-86132380D01*
X111385238Y-86132380D01*
X111528095Y-86084761D01*
X111575714Y-86037142D01*
X111575714Y-85703809D01*
X111385238Y-85703809D01*
X112004285Y-86132380D02*
X112004285Y-85132380D01*
X112575714Y-86132380D01*
X112575714Y-85132380D01*
X113051904Y-86132380D02*
X113051904Y-85132380D01*
X113290000Y-85132380D01*
X113432857Y-85180000D01*
X113528095Y-85275238D01*
X113575714Y-85370476D01*
X113623333Y-85560952D01*
X113623333Y-85703809D01*
X113575714Y-85894285D01*
X113528095Y-85989523D01*
X113432857Y-86084761D01*
X113290000Y-86132380D01*
X113051904Y-86132380D01*
X95377976Y-85093904D02*
X95377976Y-84293904D01*
X95644642Y-84865333D01*
X95911309Y-84293904D01*
X95911309Y-85093904D01*
X96635119Y-85093904D02*
X96635119Y-84674857D01*
X96597023Y-84598666D01*
X96520833Y-84560571D01*
X96368452Y-84560571D01*
X96292261Y-84598666D01*
X96635119Y-85055809D02*
X96558928Y-85093904D01*
X96368452Y-85093904D01*
X96292261Y-85055809D01*
X96254166Y-84979619D01*
X96254166Y-84903428D01*
X96292261Y-84827238D01*
X96368452Y-84789142D01*
X96558928Y-84789142D01*
X96635119Y-84751047D01*
X97016071Y-85093904D02*
X97016071Y-84560571D01*
X97016071Y-84712952D02*
X97054166Y-84636761D01*
X97092261Y-84598666D01*
X97168452Y-84560571D01*
X97244642Y-84560571D01*
X97511309Y-85093904D02*
X97511309Y-84293904D01*
X97587500Y-84789142D02*
X97816071Y-85093904D01*
X97816071Y-84560571D02*
X97511309Y-84865333D01*
X98768452Y-85093904D02*
X98768452Y-84293904D01*
X99035119Y-84865333D01*
X99301785Y-84293904D01*
X99301785Y-85093904D01*
X100025595Y-85055809D02*
X99949404Y-85093904D01*
X99797023Y-85093904D01*
X99720833Y-85055809D01*
X99682738Y-85017714D01*
X99644642Y-84941523D01*
X99644642Y-84712952D01*
X99682738Y-84636761D01*
X99720833Y-84598666D01*
X99797023Y-84560571D01*
X99949404Y-84560571D01*
X100025595Y-84598666D01*
X100787500Y-84332000D02*
X100711309Y-84293904D01*
X100597023Y-84293904D01*
X100482738Y-84332000D01*
X100406547Y-84408190D01*
X100368452Y-84484380D01*
X100330357Y-84636761D01*
X100330357Y-84751047D01*
X100368452Y-84903428D01*
X100406547Y-84979619D01*
X100482738Y-85055809D01*
X100597023Y-85093904D01*
X100673214Y-85093904D01*
X100787500Y-85055809D01*
X100825595Y-85017714D01*
X100825595Y-84751047D01*
X100673214Y-84751047D01*
X101282738Y-85093904D02*
X101206547Y-85055809D01*
X101168452Y-85017714D01*
X101130357Y-84941523D01*
X101130357Y-84712952D01*
X101168452Y-84636761D01*
X101206547Y-84598666D01*
X101282738Y-84560571D01*
X101397023Y-84560571D01*
X101473214Y-84598666D01*
X101511309Y-84636761D01*
X101549404Y-84712952D01*
X101549404Y-84941523D01*
X101511309Y-85017714D01*
X101473214Y-85055809D01*
X101397023Y-85093904D01*
X101282738Y-85093904D01*
X102006547Y-85093904D02*
X101930357Y-85055809D01*
X101892261Y-85017714D01*
X101854166Y-84941523D01*
X101854166Y-84712952D01*
X101892261Y-84636761D01*
X101930357Y-84598666D01*
X102006547Y-84560571D01*
X102120833Y-84560571D01*
X102197023Y-84598666D01*
X102235119Y-84636761D01*
X102273214Y-84712952D01*
X102273214Y-84941523D01*
X102235119Y-85017714D01*
X102197023Y-85055809D01*
X102120833Y-85093904D01*
X102006547Y-85093904D01*
X102616071Y-85093904D02*
X102616071Y-84293904D01*
X102692261Y-84789142D02*
X102920833Y-85093904D01*
X102920833Y-84560571D02*
X102616071Y-84865333D01*
X103263690Y-85093904D02*
X103263690Y-84560571D01*
X103263690Y-84293904D02*
X103225595Y-84332000D01*
X103263690Y-84370095D01*
X103301785Y-84332000D01*
X103263690Y-84293904D01*
X103263690Y-84370095D01*
X103644642Y-84560571D02*
X103644642Y-85093904D01*
X103644642Y-84636761D02*
X103682738Y-84598666D01*
X103758928Y-84560571D01*
X103873214Y-84560571D01*
X103949404Y-84598666D01*
X103987500Y-84674857D01*
X103987500Y-85093904D01*
X95835119Y-86381904D02*
X95568452Y-86000952D01*
X95377976Y-86381904D02*
X95377976Y-85581904D01*
X95682738Y-85581904D01*
X95758928Y-85620000D01*
X95797023Y-85658095D01*
X95835119Y-85734285D01*
X95835119Y-85848571D01*
X95797023Y-85924761D01*
X95758928Y-85962857D01*
X95682738Y-86000952D01*
X95377976Y-86000952D01*
X96520833Y-86381904D02*
X96520833Y-85962857D01*
X96482738Y-85886666D01*
X96406547Y-85848571D01*
X96254166Y-85848571D01*
X96177976Y-85886666D01*
X96520833Y-86343809D02*
X96444642Y-86381904D01*
X96254166Y-86381904D01*
X96177976Y-86343809D01*
X96139880Y-86267619D01*
X96139880Y-86191428D01*
X96177976Y-86115238D01*
X96254166Y-86077142D01*
X96444642Y-86077142D01*
X96520833Y-86039047D01*
X96863690Y-86343809D02*
X96939880Y-86381904D01*
X97092261Y-86381904D01*
X97168452Y-86343809D01*
X97206547Y-86267619D01*
X97206547Y-86229523D01*
X97168452Y-86153333D01*
X97092261Y-86115238D01*
X96977976Y-86115238D01*
X96901785Y-86077142D01*
X96863690Y-86000952D01*
X96863690Y-85962857D01*
X96901785Y-85886666D01*
X96977976Y-85848571D01*
X97092261Y-85848571D01*
X97168452Y-85886666D01*
X97549404Y-85848571D02*
X97549404Y-86648571D01*
X97549404Y-85886666D02*
X97625595Y-85848571D01*
X97777976Y-85848571D01*
X97854166Y-85886666D01*
X97892261Y-85924761D01*
X97930357Y-86000952D01*
X97930357Y-86229523D01*
X97892261Y-86305714D01*
X97854166Y-86343809D01*
X97777976Y-86381904D01*
X97625595Y-86381904D01*
X97549404Y-86343809D01*
X98273214Y-86381904D02*
X98273214Y-85581904D01*
X98273214Y-85886666D02*
X98349404Y-85848571D01*
X98501785Y-85848571D01*
X98577976Y-85886666D01*
X98616071Y-85924761D01*
X98654166Y-86000952D01*
X98654166Y-86229523D01*
X98616071Y-86305714D01*
X98577976Y-86343809D01*
X98501785Y-86381904D01*
X98349404Y-86381904D01*
X98273214Y-86343809D01*
X99301785Y-86343809D02*
X99225595Y-86381904D01*
X99073214Y-86381904D01*
X98997023Y-86343809D01*
X98958928Y-86267619D01*
X98958928Y-85962857D01*
X98997023Y-85886666D01*
X99073214Y-85848571D01*
X99225595Y-85848571D01*
X99301785Y-85886666D01*
X99339880Y-85962857D01*
X99339880Y-86039047D01*
X98958928Y-86115238D01*
X99682738Y-86381904D02*
X99682738Y-85848571D01*
X99682738Y-86000952D02*
X99720833Y-85924761D01*
X99758928Y-85886666D01*
X99835119Y-85848571D01*
X99911309Y-85848571D01*
X100177976Y-86381904D02*
X100177976Y-85848571D01*
X100177976Y-86000952D02*
X100216071Y-85924761D01*
X100254166Y-85886666D01*
X100330357Y-85848571D01*
X100406547Y-85848571D01*
X100597023Y-85848571D02*
X100787500Y-86381904D01*
X100977976Y-85848571D02*
X100787500Y-86381904D01*
X100711309Y-86572380D01*
X100673214Y-86610476D01*
X100597023Y-86648571D01*
X101892261Y-86381904D02*
X101892261Y-85581904D01*
X102197023Y-85581904D01*
X102273214Y-85620000D01*
X102311309Y-85658095D01*
X102349404Y-85734285D01*
X102349404Y-85848571D01*
X102311309Y-85924761D01*
X102273214Y-85962857D01*
X102197023Y-86000952D01*
X101892261Y-86000952D01*
X102692261Y-86381904D02*
X102692261Y-85848571D01*
X102692261Y-85581904D02*
X102654166Y-85620000D01*
X102692261Y-85658095D01*
X102730357Y-85620000D01*
X102692261Y-85581904D01*
X102692261Y-85658095D01*
X103682738Y-86381904D02*
X103682738Y-85581904D01*
X103987500Y-85581904D01*
X104063690Y-85620000D01*
X104101785Y-85658095D01*
X104139880Y-85734285D01*
X104139880Y-85848571D01*
X104101785Y-85924761D01*
X104063690Y-85962857D01*
X103987500Y-86000952D01*
X103682738Y-86000952D01*
X104482738Y-86381904D02*
X104482738Y-85848571D01*
X104482738Y-85581904D02*
X104444642Y-85620000D01*
X104482738Y-85658095D01*
X104520833Y-85620000D01*
X104482738Y-85581904D01*
X104482738Y-85658095D01*
X105206547Y-86343809D02*
X105130357Y-86381904D01*
X104977976Y-86381904D01*
X104901785Y-86343809D01*
X104863690Y-86305714D01*
X104825595Y-86229523D01*
X104825595Y-86000952D01*
X104863690Y-85924761D01*
X104901785Y-85886666D01*
X104977976Y-85848571D01*
X105130357Y-85848571D01*
X105206547Y-85886666D01*
X105663690Y-86381904D02*
X105587500Y-86343809D01*
X105549404Y-86305714D01*
X105511309Y-86229523D01*
X105511309Y-86000952D01*
X105549404Y-85924761D01*
X105587500Y-85886666D01*
X105663690Y-85848571D01*
X105777976Y-85848571D01*
X105854166Y-85886666D01*
X105892261Y-85924761D01*
X105930357Y-86000952D01*
X105930357Y-86229523D01*
X105892261Y-86305714D01*
X105854166Y-86343809D01*
X105777976Y-86381904D01*
X105663690Y-86381904D01*
X95987500Y-87365142D02*
X96597023Y-87365142D01*
X97549404Y-87631809D02*
X97663690Y-87669904D01*
X97854166Y-87669904D01*
X97930357Y-87631809D01*
X97968452Y-87593714D01*
X98006547Y-87517523D01*
X98006547Y-87441333D01*
X97968452Y-87365142D01*
X97930357Y-87327047D01*
X97854166Y-87288952D01*
X97701785Y-87250857D01*
X97625595Y-87212761D01*
X97587500Y-87174666D01*
X97549404Y-87098476D01*
X97549404Y-87022285D01*
X97587500Y-86946095D01*
X97625595Y-86908000D01*
X97701785Y-86869904D01*
X97892261Y-86869904D01*
X98006547Y-86908000D01*
X98349404Y-87669904D02*
X98349404Y-86869904D01*
X98654166Y-86869904D01*
X98730357Y-86908000D01*
X98768452Y-86946095D01*
X98806547Y-87022285D01*
X98806547Y-87136571D01*
X98768452Y-87212761D01*
X98730357Y-87250857D01*
X98654166Y-87288952D01*
X98349404Y-87288952D01*
X99149404Y-87669904D02*
X99149404Y-86869904D01*
X100101785Y-87631809D02*
X100216071Y-87669904D01*
X100406547Y-87669904D01*
X100482738Y-87631809D01*
X100520833Y-87593714D01*
X100558928Y-87517523D01*
X100558928Y-87441333D01*
X100520833Y-87365142D01*
X100482738Y-87327047D01*
X100406547Y-87288952D01*
X100254166Y-87250857D01*
X100177976Y-87212761D01*
X100139880Y-87174666D01*
X100101785Y-87098476D01*
X100101785Y-87022285D01*
X100139880Y-86946095D01*
X100177976Y-86908000D01*
X100254166Y-86869904D01*
X100444642Y-86869904D01*
X100558928Y-86908000D01*
X101244642Y-87631809D02*
X101168452Y-87669904D01*
X101016071Y-87669904D01*
X100939880Y-87631809D01*
X100901785Y-87593714D01*
X100863690Y-87517523D01*
X100863690Y-87288952D01*
X100901785Y-87212761D01*
X100939880Y-87174666D01*
X101016071Y-87136571D01*
X101168452Y-87136571D01*
X101244642Y-87174666D01*
X101587500Y-87669904D02*
X101587500Y-87136571D01*
X101587500Y-87288952D02*
X101625595Y-87212761D01*
X101663690Y-87174666D01*
X101739880Y-87136571D01*
X101816071Y-87136571D01*
X102387500Y-87631809D02*
X102311309Y-87669904D01*
X102158928Y-87669904D01*
X102082738Y-87631809D01*
X102044642Y-87555619D01*
X102044642Y-87250857D01*
X102082738Y-87174666D01*
X102158928Y-87136571D01*
X102311309Y-87136571D01*
X102387500Y-87174666D01*
X102425595Y-87250857D01*
X102425595Y-87327047D01*
X102044642Y-87403238D01*
X103073214Y-87631809D02*
X102997023Y-87669904D01*
X102844642Y-87669904D01*
X102768452Y-87631809D01*
X102730357Y-87555619D01*
X102730357Y-87250857D01*
X102768452Y-87174666D01*
X102844642Y-87136571D01*
X102997023Y-87136571D01*
X103073214Y-87174666D01*
X103111309Y-87250857D01*
X103111309Y-87327047D01*
X102730357Y-87403238D01*
X103454166Y-87136571D02*
X103454166Y-87669904D01*
X103454166Y-87212761D02*
X103492261Y-87174666D01*
X103568452Y-87136571D01*
X103682738Y-87136571D01*
X103758928Y-87174666D01*
X103797023Y-87250857D01*
X103797023Y-87669904D01*
X95987500Y-88653142D02*
X96597023Y-88653142D01*
X97587500Y-88957904D02*
X97587500Y-88157904D01*
X98044642Y-88957904D01*
X98044642Y-88157904D01*
X98730357Y-88919809D02*
X98654166Y-88957904D01*
X98501785Y-88957904D01*
X98425595Y-88919809D01*
X98387500Y-88843619D01*
X98387500Y-88538857D01*
X98425595Y-88462666D01*
X98501785Y-88424571D01*
X98654166Y-88424571D01*
X98730357Y-88462666D01*
X98768452Y-88538857D01*
X98768452Y-88615047D01*
X98387500Y-88691238D01*
X99225595Y-88957904D02*
X99149404Y-88919809D01*
X99111309Y-88881714D01*
X99073214Y-88805523D01*
X99073214Y-88576952D01*
X99111309Y-88500761D01*
X99149404Y-88462666D01*
X99225595Y-88424571D01*
X99339880Y-88424571D01*
X99416071Y-88462666D01*
X99454166Y-88500761D01*
X99492261Y-88576952D01*
X99492261Y-88805523D01*
X99454166Y-88881714D01*
X99416071Y-88919809D01*
X99339880Y-88957904D01*
X99225595Y-88957904D01*
X99835119Y-88424571D02*
X99835119Y-89224571D01*
X99835119Y-88462666D02*
X99911309Y-88424571D01*
X100063690Y-88424571D01*
X100139880Y-88462666D01*
X100177976Y-88500761D01*
X100216071Y-88576952D01*
X100216071Y-88805523D01*
X100177976Y-88881714D01*
X100139880Y-88919809D01*
X100063690Y-88957904D01*
X99911309Y-88957904D01*
X99835119Y-88919809D01*
X100558928Y-88957904D02*
X100558928Y-88424571D01*
X100558928Y-88157904D02*
X100520833Y-88196000D01*
X100558928Y-88234095D01*
X100597023Y-88196000D01*
X100558928Y-88157904D01*
X100558928Y-88234095D01*
X100863690Y-88957904D02*
X101282738Y-88424571D01*
X100863690Y-88424571D02*
X101282738Y-88957904D01*
X101892261Y-88919809D02*
X101816071Y-88957904D01*
X101663690Y-88957904D01*
X101587500Y-88919809D01*
X101549404Y-88843619D01*
X101549404Y-88538857D01*
X101587500Y-88462666D01*
X101663690Y-88424571D01*
X101816071Y-88424571D01*
X101892261Y-88462666D01*
X101930357Y-88538857D01*
X101930357Y-88615047D01*
X101549404Y-88691238D01*
X102387500Y-88957904D02*
X102311309Y-88919809D01*
X102273214Y-88843619D01*
X102273214Y-88157904D01*
X95987500Y-89941142D02*
X96597023Y-89941142D01*
X97549404Y-90207809D02*
X97663690Y-90245904D01*
X97854166Y-90245904D01*
X97930357Y-90207809D01*
X97968452Y-90169714D01*
X98006547Y-90093523D01*
X98006547Y-90017333D01*
X97968452Y-89941142D01*
X97930357Y-89903047D01*
X97854166Y-89864952D01*
X97701785Y-89826857D01*
X97625595Y-89788761D01*
X97587500Y-89750666D01*
X97549404Y-89674476D01*
X97549404Y-89598285D01*
X97587500Y-89522095D01*
X97625595Y-89484000D01*
X97701785Y-89445904D01*
X97892261Y-89445904D01*
X98006547Y-89484000D01*
X98349404Y-90245904D02*
X98349404Y-89445904D01*
X98539880Y-89445904D01*
X98654166Y-89484000D01*
X98730357Y-89560190D01*
X98768452Y-89636380D01*
X98806547Y-89788761D01*
X98806547Y-89903047D01*
X98768452Y-90055428D01*
X98730357Y-90131619D01*
X98654166Y-90207809D01*
X98539880Y-90245904D01*
X98349404Y-90245904D01*
X100216071Y-90169714D02*
X100177976Y-90207809D01*
X100063690Y-90245904D01*
X99987500Y-90245904D01*
X99873214Y-90207809D01*
X99797023Y-90131619D01*
X99758928Y-90055428D01*
X99720833Y-89903047D01*
X99720833Y-89788761D01*
X99758928Y-89636380D01*
X99797023Y-89560190D01*
X99873214Y-89484000D01*
X99987500Y-89445904D01*
X100063690Y-89445904D01*
X100177976Y-89484000D01*
X100216071Y-89522095D01*
X100901785Y-90245904D02*
X100901785Y-89826857D01*
X100863690Y-89750666D01*
X100787500Y-89712571D01*
X100635119Y-89712571D01*
X100558928Y-89750666D01*
X100901785Y-90207809D02*
X100825595Y-90245904D01*
X100635119Y-90245904D01*
X100558928Y-90207809D01*
X100520833Y-90131619D01*
X100520833Y-90055428D01*
X100558928Y-89979238D01*
X100635119Y-89941142D01*
X100825595Y-89941142D01*
X100901785Y-89903047D01*
X101282738Y-90245904D02*
X101282738Y-89712571D01*
X101282738Y-89864952D02*
X101320833Y-89788761D01*
X101358928Y-89750666D01*
X101435119Y-89712571D01*
X101511309Y-89712571D01*
X102120833Y-90245904D02*
X102120833Y-89445904D01*
X102120833Y-90207809D02*
X102044642Y-90245904D01*
X101892261Y-90245904D01*
X101816071Y-90207809D01*
X101777976Y-90169714D01*
X101739880Y-90093523D01*
X101739880Y-89864952D01*
X101777976Y-89788761D01*
X101816071Y-89750666D01*
X101892261Y-89712571D01*
X102044642Y-89712571D01*
X102120833Y-89750666D01*
X95987500Y-91229142D02*
X96597023Y-91229142D01*
X98006547Y-90772000D02*
X97930357Y-90733904D01*
X97816071Y-90733904D01*
X97701785Y-90772000D01*
X97625595Y-90848190D01*
X97587500Y-90924380D01*
X97549404Y-91076761D01*
X97549404Y-91191047D01*
X97587500Y-91343428D01*
X97625595Y-91419619D01*
X97701785Y-91495809D01*
X97816071Y-91533904D01*
X97892261Y-91533904D01*
X98006547Y-91495809D01*
X98044642Y-91457714D01*
X98044642Y-91191047D01*
X97892261Y-91191047D01*
X98387500Y-91533904D02*
X98387500Y-90733904D01*
X98692261Y-90733904D01*
X98768452Y-90772000D01*
X98806547Y-90810095D01*
X98844642Y-90886285D01*
X98844642Y-91000571D01*
X98806547Y-91076761D01*
X98768452Y-91114857D01*
X98692261Y-91152952D01*
X98387500Y-91152952D01*
X99149404Y-91495809D02*
X99263690Y-91533904D01*
X99454166Y-91533904D01*
X99530357Y-91495809D01*
X99568452Y-91457714D01*
X99606547Y-91381523D01*
X99606547Y-91305333D01*
X99568452Y-91229142D01*
X99530357Y-91191047D01*
X99454166Y-91152952D01*
X99301785Y-91114857D01*
X99225595Y-91076761D01*
X99187500Y-91038666D01*
X99149404Y-90962476D01*
X99149404Y-90886285D01*
X99187500Y-90810095D01*
X99225595Y-90772000D01*
X99301785Y-90733904D01*
X99492261Y-90733904D01*
X99606547Y-90772000D01*
X100939880Y-91533904D02*
X100558928Y-91533904D01*
X100558928Y-90733904D01*
X101320833Y-91533904D02*
X101244642Y-91495809D01*
X101206547Y-91457714D01*
X101168452Y-91381523D01*
X101168452Y-91152952D01*
X101206547Y-91076761D01*
X101244642Y-91038666D01*
X101320833Y-91000571D01*
X101435119Y-91000571D01*
X101511309Y-91038666D01*
X101549404Y-91076761D01*
X101587500Y-91152952D01*
X101587500Y-91381523D01*
X101549404Y-91457714D01*
X101511309Y-91495809D01*
X101435119Y-91533904D01*
X101320833Y-91533904D01*
X102273214Y-91000571D02*
X102273214Y-91648190D01*
X102235119Y-91724380D01*
X102197023Y-91762476D01*
X102120833Y-91800571D01*
X102006547Y-91800571D01*
X101930357Y-91762476D01*
X102273214Y-91495809D02*
X102197023Y-91533904D01*
X102044642Y-91533904D01*
X101968452Y-91495809D01*
X101930357Y-91457714D01*
X101892261Y-91381523D01*
X101892261Y-91152952D01*
X101930357Y-91076761D01*
X101968452Y-91038666D01*
X102044642Y-91000571D01*
X102197023Y-91000571D01*
X102273214Y-91038666D01*
X102997023Y-91000571D02*
X102997023Y-91648190D01*
X102958928Y-91724380D01*
X102920833Y-91762476D01*
X102844642Y-91800571D01*
X102730357Y-91800571D01*
X102654166Y-91762476D01*
X102997023Y-91495809D02*
X102920833Y-91533904D01*
X102768452Y-91533904D01*
X102692261Y-91495809D01*
X102654166Y-91457714D01*
X102616071Y-91381523D01*
X102616071Y-91152952D01*
X102654166Y-91076761D01*
X102692261Y-91038666D01*
X102768452Y-91000571D01*
X102920833Y-91000571D01*
X102997023Y-91038666D01*
X103682738Y-91495809D02*
X103606547Y-91533904D01*
X103454166Y-91533904D01*
X103377976Y-91495809D01*
X103339880Y-91419619D01*
X103339880Y-91114857D01*
X103377976Y-91038666D01*
X103454166Y-91000571D01*
X103606547Y-91000571D01*
X103682738Y-91038666D01*
X103720833Y-91114857D01*
X103720833Y-91191047D01*
X103339880Y-91267238D01*
X104063690Y-91533904D02*
X104063690Y-91000571D01*
X104063690Y-91152952D02*
X104101785Y-91076761D01*
X104139880Y-91038666D01*
X104216071Y-91000571D01*
X104292261Y-91000571D01*
X95377976Y-92821904D02*
X95377976Y-92021904D01*
X95568452Y-92021904D01*
X95682738Y-92060000D01*
X95758928Y-92136190D01*
X95797023Y-92212380D01*
X95835119Y-92364761D01*
X95835119Y-92479047D01*
X95797023Y-92631428D01*
X95758928Y-92707619D01*
X95682738Y-92783809D01*
X95568452Y-92821904D01*
X95377976Y-92821904D01*
X96482738Y-92783809D02*
X96406547Y-92821904D01*
X96254166Y-92821904D01*
X96177976Y-92783809D01*
X96139880Y-92707619D01*
X96139880Y-92402857D01*
X96177976Y-92326666D01*
X96254166Y-92288571D01*
X96406547Y-92288571D01*
X96482738Y-92326666D01*
X96520833Y-92402857D01*
X96520833Y-92479047D01*
X96139880Y-92555238D01*
X97206547Y-92783809D02*
X97130357Y-92821904D01*
X96977976Y-92821904D01*
X96901785Y-92783809D01*
X96863690Y-92745714D01*
X96825595Y-92669523D01*
X96825595Y-92440952D01*
X96863690Y-92364761D01*
X96901785Y-92326666D01*
X96977976Y-92288571D01*
X97130357Y-92288571D01*
X97206547Y-92326666D01*
X98120833Y-92098095D02*
X98158928Y-92060000D01*
X98235119Y-92021904D01*
X98425595Y-92021904D01*
X98501785Y-92060000D01*
X98539880Y-92098095D01*
X98577976Y-92174285D01*
X98577976Y-92250476D01*
X98539880Y-92364761D01*
X98082738Y-92821904D01*
X98577976Y-92821904D01*
X99073214Y-92021904D02*
X99149404Y-92021904D01*
X99225595Y-92060000D01*
X99263690Y-92098095D01*
X99301785Y-92174285D01*
X99339880Y-92326666D01*
X99339880Y-92517142D01*
X99301785Y-92669523D01*
X99263690Y-92745714D01*
X99225595Y-92783809D01*
X99149404Y-92821904D01*
X99073214Y-92821904D01*
X98997023Y-92783809D01*
X98958928Y-92745714D01*
X98920833Y-92669523D01*
X98882738Y-92517142D01*
X98882738Y-92326666D01*
X98920833Y-92174285D01*
X98958928Y-92098095D01*
X98997023Y-92060000D01*
X99073214Y-92021904D01*
X99644642Y-92098095D02*
X99682738Y-92060000D01*
X99758928Y-92021904D01*
X99949404Y-92021904D01*
X100025595Y-92060000D01*
X100063690Y-92098095D01*
X100101785Y-92174285D01*
X100101785Y-92250476D01*
X100063690Y-92364761D01*
X99606547Y-92821904D01*
X100101785Y-92821904D01*
X100406547Y-92098095D02*
X100444642Y-92060000D01*
X100520833Y-92021904D01*
X100711309Y-92021904D01*
X100787500Y-92060000D01*
X100825595Y-92098095D01*
X100863690Y-92174285D01*
X100863690Y-92250476D01*
X100825595Y-92364761D01*
X100368452Y-92821904D01*
X100863690Y-92821904D01*
X95301785Y-93576571D02*
X95492261Y-94109904D01*
X95682738Y-93576571D01*
X96139880Y-93309904D02*
X96216071Y-93309904D01*
X96292261Y-93348000D01*
X96330357Y-93386095D01*
X96368452Y-93462285D01*
X96406547Y-93614666D01*
X96406547Y-93805142D01*
X96368452Y-93957523D01*
X96330357Y-94033714D01*
X96292261Y-94071809D01*
X96216071Y-94109904D01*
X96139880Y-94109904D01*
X96063690Y-94071809D01*
X96025595Y-94033714D01*
X95987500Y-93957523D01*
X95949404Y-93805142D01*
X95949404Y-93614666D01*
X95987500Y-93462285D01*
X96025595Y-93386095D01*
X96063690Y-93348000D01*
X96139880Y-93309904D01*
X96749404Y-94033714D02*
X96787500Y-94071809D01*
X96749404Y-94109904D01*
X96711309Y-94071809D01*
X96749404Y-94033714D01*
X96749404Y-94109904D01*
X97054166Y-93309904D02*
X97549404Y-93309904D01*
X97282738Y-93614666D01*
X97397023Y-93614666D01*
X97473214Y-93652761D01*
X97511309Y-93690857D01*
X97549404Y-93767047D01*
X97549404Y-93957523D01*
X97511309Y-94033714D01*
X97473214Y-94071809D01*
X97397023Y-94109904D01*
X97168452Y-94109904D01*
X97092261Y-94071809D01*
X97054166Y-94033714D01*
X171092380Y-102748571D02*
X171901904Y-102748571D01*
X171997142Y-102700952D01*
X172044761Y-102653333D01*
X172092380Y-102558095D01*
X172092380Y-102367619D01*
X172044761Y-102272380D01*
X171997142Y-102224761D01*
X171901904Y-102177142D01*
X171092380Y-102177142D01*
X172044761Y-101748571D02*
X172092380Y-101605714D01*
X172092380Y-101367619D01*
X172044761Y-101272380D01*
X171997142Y-101224761D01*
X171901904Y-101177142D01*
X171806666Y-101177142D01*
X171711428Y-101224761D01*
X171663809Y-101272380D01*
X171616190Y-101367619D01*
X171568571Y-101558095D01*
X171520952Y-101653333D01*
X171473333Y-101700952D01*
X171378095Y-101748571D01*
X171282857Y-101748571D01*
X171187619Y-101700952D01*
X171140000Y-101653333D01*
X171092380Y-101558095D01*
X171092380Y-101320000D01*
X171140000Y-101177142D01*
X171568571Y-100415238D02*
X171616190Y-100272380D01*
X171663809Y-100224761D01*
X171759047Y-100177142D01*
X171901904Y-100177142D01*
X171997142Y-100224761D01*
X172044761Y-100272380D01*
X172092380Y-100367619D01*
X172092380Y-100748571D01*
X171092380Y-100748571D01*
X171092380Y-100415238D01*
X171140000Y-100320000D01*
X171187619Y-100272380D01*
X171282857Y-100224761D01*
X171378095Y-100224761D01*
X171473333Y-100272380D01*
X171520952Y-100320000D01*
X171568571Y-100415238D01*
X171568571Y-100748571D01*
X171997142Y-99177142D02*
X172044761Y-99224761D01*
X172092380Y-99367619D01*
X172092380Y-99462857D01*
X172044761Y-99605714D01*
X171949523Y-99700952D01*
X171854285Y-99748571D01*
X171663809Y-99796190D01*
X171520952Y-99796190D01*
X171330476Y-99748571D01*
X171235238Y-99700952D01*
X171140000Y-99605714D01*
X171092380Y-99462857D01*
X171092380Y-99367619D01*
X171140000Y-99224761D01*
X171187619Y-99177142D01*
X171568571Y-97653333D02*
X171616190Y-97510476D01*
X171663809Y-97462857D01*
X171759047Y-97415238D01*
X171901904Y-97415238D01*
X171997142Y-97462857D01*
X172044761Y-97510476D01*
X172092380Y-97605714D01*
X172092380Y-97986666D01*
X171092380Y-97986666D01*
X171092380Y-97653333D01*
X171140000Y-97558095D01*
X171187619Y-97510476D01*
X171282857Y-97462857D01*
X171378095Y-97462857D01*
X171473333Y-97510476D01*
X171520952Y-97558095D01*
X171568571Y-97653333D01*
X171568571Y-97986666D01*
X172092380Y-96986666D02*
X171425714Y-96986666D01*
X171616190Y-96986666D02*
X171520952Y-96939047D01*
X171473333Y-96891428D01*
X171425714Y-96796190D01*
X171425714Y-96700952D01*
X172044761Y-95986666D02*
X172092380Y-96081904D01*
X172092380Y-96272380D01*
X172044761Y-96367619D01*
X171949523Y-96415238D01*
X171568571Y-96415238D01*
X171473333Y-96367619D01*
X171425714Y-96272380D01*
X171425714Y-96081904D01*
X171473333Y-95986666D01*
X171568571Y-95939047D01*
X171663809Y-95939047D01*
X171759047Y-96415238D01*
X172092380Y-95081904D02*
X171568571Y-95081904D01*
X171473333Y-95129523D01*
X171425714Y-95224761D01*
X171425714Y-95415238D01*
X171473333Y-95510476D01*
X172044761Y-95081904D02*
X172092380Y-95177142D01*
X172092380Y-95415238D01*
X172044761Y-95510476D01*
X171949523Y-95558095D01*
X171854285Y-95558095D01*
X171759047Y-95510476D01*
X171711428Y-95415238D01*
X171711428Y-95177142D01*
X171663809Y-95081904D01*
X172092380Y-94605714D02*
X171092380Y-94605714D01*
X171711428Y-94510476D02*
X172092380Y-94224761D01*
X171425714Y-94224761D02*
X171806666Y-94605714D01*
X172092380Y-93653333D02*
X172044761Y-93748571D01*
X171997142Y-93796190D01*
X171901904Y-93843809D01*
X171616190Y-93843809D01*
X171520952Y-93796190D01*
X171473333Y-93748571D01*
X171425714Y-93653333D01*
X171425714Y-93510476D01*
X171473333Y-93415238D01*
X171520952Y-93367619D01*
X171616190Y-93320000D01*
X171901904Y-93320000D01*
X171997142Y-93367619D01*
X172044761Y-93415238D01*
X172092380Y-93510476D01*
X172092380Y-93653333D01*
X171425714Y-92462857D02*
X172092380Y-92462857D01*
X171425714Y-92891428D02*
X171949523Y-92891428D01*
X172044761Y-92843809D01*
X172092380Y-92748571D01*
X172092380Y-92605714D01*
X172044761Y-92510476D01*
X171997142Y-92462857D01*
X171425714Y-92129523D02*
X171425714Y-91748571D01*
X171092380Y-91986666D02*
X171949523Y-91986666D01*
X172044761Y-91939047D01*
X172092380Y-91843809D01*
X172092380Y-91748571D01*
D11*
X156952857Y-142903571D02*
X157095714Y-142951190D01*
X157143333Y-142998809D01*
X157190952Y-143094047D01*
X157190952Y-143236904D01*
X157143333Y-143332142D01*
X157095714Y-143379761D01*
X157000476Y-143427380D01*
X156619523Y-143427380D01*
X156619523Y-142427380D01*
X156952857Y-142427380D01*
X157048095Y-142475000D01*
X157095714Y-142522619D01*
X157143333Y-142617857D01*
X157143333Y-142713095D01*
X157095714Y-142808333D01*
X157048095Y-142855952D01*
X156952857Y-142903571D01*
X156619523Y-142903571D01*
X158048095Y-142760714D02*
X158048095Y-143427380D01*
X157619523Y-142760714D02*
X157619523Y-143284523D01*
X157667142Y-143379761D01*
X157762380Y-143427380D01*
X157905238Y-143427380D01*
X158000476Y-143379761D01*
X158048095Y-143332142D01*
X158381428Y-142760714D02*
X158762380Y-142760714D01*
X158524285Y-142427380D02*
X158524285Y-143284523D01*
X158571904Y-143379761D01*
X158667142Y-143427380D01*
X158762380Y-143427380D01*
X158952857Y-142760714D02*
X159333809Y-142760714D01*
X159095714Y-142427380D02*
X159095714Y-143284523D01*
X159143333Y-143379761D01*
X159238571Y-143427380D01*
X159333809Y-143427380D01*
X159810000Y-143427380D02*
X159714761Y-143379761D01*
X159667142Y-143332142D01*
X159619523Y-143236904D01*
X159619523Y-142951190D01*
X159667142Y-142855952D01*
X159714761Y-142808333D01*
X159810000Y-142760714D01*
X159952857Y-142760714D01*
X160048095Y-142808333D01*
X160095714Y-142855952D01*
X160143333Y-142951190D01*
X160143333Y-143236904D01*
X160095714Y-143332142D01*
X160048095Y-143379761D01*
X159952857Y-143427380D01*
X159810000Y-143427380D01*
X160571904Y-142760714D02*
X160571904Y-143427380D01*
X160571904Y-142855952D02*
X160619523Y-142808333D01*
X160714761Y-142760714D01*
X160857619Y-142760714D01*
X160952857Y-142808333D01*
X161000476Y-142903571D01*
X161000476Y-143427380D01*
X157619523Y-144085000D02*
X157524285Y-144037380D01*
X157381428Y-144037380D01*
X157238571Y-144085000D01*
X157143333Y-144180238D01*
X157095714Y-144275476D01*
X157048095Y-144465952D01*
X157048095Y-144608809D01*
X157095714Y-144799285D01*
X157143333Y-144894523D01*
X157238571Y-144989761D01*
X157381428Y-145037380D01*
X157476666Y-145037380D01*
X157619523Y-144989761D01*
X157667142Y-144942142D01*
X157667142Y-144608809D01*
X157476666Y-144608809D01*
X158095714Y-145037380D02*
X158095714Y-144037380D01*
X158476666Y-144037380D01*
X158571904Y-144085000D01*
X158619523Y-144132619D01*
X158667142Y-144227857D01*
X158667142Y-144370714D01*
X158619523Y-144465952D01*
X158571904Y-144513571D01*
X158476666Y-144561190D01*
X158095714Y-144561190D01*
X159619523Y-145037380D02*
X159048095Y-145037380D01*
X159333809Y-145037380D02*
X159333809Y-144037380D01*
X159238571Y-144180238D01*
X159143333Y-144275476D01*
X159048095Y-144323095D01*
X160476666Y-144037380D02*
X160286190Y-144037380D01*
X160190952Y-144085000D01*
X160143333Y-144132619D01*
X160048095Y-144275476D01*
X160000476Y-144465952D01*
X160000476Y-144846904D01*
X160048095Y-144942142D01*
X160095714Y-144989761D01*
X160190952Y-145037380D01*
X160381428Y-145037380D01*
X160476666Y-144989761D01*
X160524285Y-144942142D01*
X160571904Y-144846904D01*
X160571904Y-144608809D01*
X160524285Y-144513571D01*
X160476666Y-144465952D01*
X160381428Y-144418333D01*
X160190952Y-144418333D01*
X160095714Y-144465952D01*
X160048095Y-144513571D01*
X160000476Y-144608809D01*
D12*
X99910000Y-103661428D02*
X100052857Y-103804285D01*
X99910000Y-103947142D01*
X99767142Y-103804285D01*
X99910000Y-103661428D01*
X99910000Y-103947142D01*
D10*
X111675714Y-97110000D02*
X111580476Y-97062380D01*
X111437619Y-97062380D01*
X111294761Y-97110000D01*
X111199523Y-97205238D01*
X111151904Y-97300476D01*
X111104285Y-97490952D01*
X111104285Y-97633809D01*
X111151904Y-97824285D01*
X111199523Y-97919523D01*
X111294761Y-98014761D01*
X111437619Y-98062380D01*
X111532857Y-98062380D01*
X111675714Y-98014761D01*
X111723333Y-97967142D01*
X111723333Y-97633809D01*
X111532857Y-97633809D01*
X112151904Y-98062380D02*
X112151904Y-97062380D01*
X112532857Y-97062380D01*
X112628095Y-97110000D01*
X112675714Y-97157619D01*
X112723333Y-97252857D01*
X112723333Y-97395714D01*
X112675714Y-97490952D01*
X112628095Y-97538571D01*
X112532857Y-97586190D01*
X112151904Y-97586190D01*
X113580476Y-97395714D02*
X113580476Y-98062380D01*
X113342380Y-97014761D02*
X113104285Y-97729047D01*
X113723333Y-97729047D01*
X175294761Y-77662380D02*
X175485238Y-77662380D01*
X175580476Y-77710000D01*
X175675714Y-77805238D01*
X175723333Y-77995714D01*
X175723333Y-78329047D01*
X175675714Y-78519523D01*
X175580476Y-78614761D01*
X175485238Y-78662380D01*
X175294761Y-78662380D01*
X175199523Y-78614761D01*
X175104285Y-78519523D01*
X175056666Y-78329047D01*
X175056666Y-77995714D01*
X175104285Y-77805238D01*
X175199523Y-77710000D01*
X175294761Y-77662380D01*
X111565714Y-89220000D02*
X111470476Y-89172380D01*
X111327619Y-89172380D01*
X111184761Y-89220000D01*
X111089523Y-89315238D01*
X111041904Y-89410476D01*
X110994285Y-89600952D01*
X110994285Y-89743809D01*
X111041904Y-89934285D01*
X111089523Y-90029523D01*
X111184761Y-90124761D01*
X111327619Y-90172380D01*
X111422857Y-90172380D01*
X111565714Y-90124761D01*
X111613333Y-90077142D01*
X111613333Y-89743809D01*
X111422857Y-89743809D01*
X112041904Y-90172380D02*
X112041904Y-89172380D01*
X112422857Y-89172380D01*
X112518095Y-89220000D01*
X112565714Y-89267619D01*
X112613333Y-89362857D01*
X112613333Y-89505714D01*
X112565714Y-89600952D01*
X112518095Y-89648571D01*
X112422857Y-89696190D01*
X112041904Y-89696190D01*
X112994285Y-89267619D02*
X113041904Y-89220000D01*
X113137142Y-89172380D01*
X113375238Y-89172380D01*
X113470476Y-89220000D01*
X113518095Y-89267619D01*
X113565714Y-89362857D01*
X113565714Y-89458095D01*
X113518095Y-89600952D01*
X112946666Y-90172380D01*
X113565714Y-90172380D01*
D11*
X167744285Y-122992380D02*
X167744285Y-121992380D01*
X168125238Y-121992380D01*
X168220476Y-122040000D01*
X168268095Y-122087619D01*
X168315714Y-122182857D01*
X168315714Y-122325714D01*
X168268095Y-122420952D01*
X168220476Y-122468571D01*
X168125238Y-122516190D01*
X167744285Y-122516190D01*
X168887142Y-122992380D02*
X168791904Y-122944761D01*
X168744285Y-122897142D01*
X168696666Y-122801904D01*
X168696666Y-122516190D01*
X168744285Y-122420952D01*
X168791904Y-122373333D01*
X168887142Y-122325714D01*
X169030000Y-122325714D01*
X169125238Y-122373333D01*
X169172857Y-122420952D01*
X169220476Y-122516190D01*
X169220476Y-122801904D01*
X169172857Y-122897142D01*
X169125238Y-122944761D01*
X169030000Y-122992380D01*
X168887142Y-122992380D01*
X169553809Y-122325714D02*
X169744285Y-122992380D01*
X169934761Y-122516190D01*
X170125238Y-122992380D01*
X170315714Y-122325714D01*
X171077619Y-122944761D02*
X170982380Y-122992380D01*
X170791904Y-122992380D01*
X170696666Y-122944761D01*
X170649047Y-122849523D01*
X170649047Y-122468571D01*
X170696666Y-122373333D01*
X170791904Y-122325714D01*
X170982380Y-122325714D01*
X171077619Y-122373333D01*
X171125238Y-122468571D01*
X171125238Y-122563809D01*
X170649047Y-122659047D01*
X171553809Y-122992380D02*
X171553809Y-122325714D01*
X171553809Y-122516190D02*
X171601428Y-122420952D01*
X171649047Y-122373333D01*
X171744285Y-122325714D01*
X171839523Y-122325714D01*
X173268095Y-122468571D02*
X173410952Y-122516190D01*
X173458571Y-122563809D01*
X173506190Y-122659047D01*
X173506190Y-122801904D01*
X173458571Y-122897142D01*
X173410952Y-122944761D01*
X173315714Y-122992380D01*
X172934761Y-122992380D01*
X172934761Y-121992380D01*
X173268095Y-121992380D01*
X173363333Y-122040000D01*
X173410952Y-122087619D01*
X173458571Y-122182857D01*
X173458571Y-122278095D01*
X173410952Y-122373333D01*
X173363333Y-122420952D01*
X173268095Y-122468571D01*
X172934761Y-122468571D01*
X174363333Y-122325714D02*
X174363333Y-122992380D01*
X173934761Y-122325714D02*
X173934761Y-122849523D01*
X173982380Y-122944761D01*
X174077619Y-122992380D01*
X174220476Y-122992380D01*
X174315714Y-122944761D01*
X174363333Y-122897142D01*
X174696666Y-122325714D02*
X175077619Y-122325714D01*
X174839523Y-121992380D02*
X174839523Y-122849523D01*
X174887142Y-122944761D01*
X174982380Y-122992380D01*
X175077619Y-122992380D01*
X175268095Y-122325714D02*
X175649047Y-122325714D01*
X175410952Y-121992380D02*
X175410952Y-122849523D01*
X175458571Y-122944761D01*
X175553809Y-122992380D01*
X175649047Y-122992380D01*
X176125238Y-122992380D02*
X176030000Y-122944761D01*
X175982380Y-122897142D01*
X175934761Y-122801904D01*
X175934761Y-122516190D01*
X175982380Y-122420952D01*
X176030000Y-122373333D01*
X176125238Y-122325714D01*
X176268095Y-122325714D01*
X176363333Y-122373333D01*
X176410952Y-122420952D01*
X176458571Y-122516190D01*
X176458571Y-122801904D01*
X176410952Y-122897142D01*
X176363333Y-122944761D01*
X176268095Y-122992380D01*
X176125238Y-122992380D01*
X176887142Y-122325714D02*
X176887142Y-122992380D01*
X176887142Y-122420952D02*
X176934761Y-122373333D01*
X177030000Y-122325714D01*
X177172857Y-122325714D01*
X177268095Y-122373333D01*
X177315714Y-122468571D01*
X177315714Y-122992380D01*
D10*
X115330952Y-78237380D02*
X115330952Y-77237380D01*
X115902380Y-78237380D01*
X115902380Y-77237380D01*
X116759523Y-78189761D02*
X116664285Y-78237380D01*
X116473809Y-78237380D01*
X116378571Y-78189761D01*
X116330952Y-78094523D01*
X116330952Y-77713571D01*
X116378571Y-77618333D01*
X116473809Y-77570714D01*
X116664285Y-77570714D01*
X116759523Y-77618333D01*
X116807142Y-77713571D01*
X116807142Y-77808809D01*
X116330952Y-77904047D01*
X117378571Y-78237380D02*
X117283333Y-78189761D01*
X117235714Y-78142142D01*
X117188095Y-78046904D01*
X117188095Y-77761190D01*
X117235714Y-77665952D01*
X117283333Y-77618333D01*
X117378571Y-77570714D01*
X117521428Y-77570714D01*
X117616666Y-77618333D01*
X117664285Y-77665952D01*
X117711904Y-77761190D01*
X117711904Y-78046904D01*
X117664285Y-78142142D01*
X117616666Y-78189761D01*
X117521428Y-78237380D01*
X117378571Y-78237380D01*
X118140476Y-77570714D02*
X118140476Y-78570714D01*
X118140476Y-77618333D02*
X118235714Y-77570714D01*
X118426190Y-77570714D01*
X118521428Y-77618333D01*
X118569047Y-77665952D01*
X118616666Y-77761190D01*
X118616666Y-78046904D01*
X118569047Y-78142142D01*
X118521428Y-78189761D01*
X118426190Y-78237380D01*
X118235714Y-78237380D01*
X118140476Y-78189761D01*
X119045238Y-78237380D02*
X119045238Y-77570714D01*
X119045238Y-77237380D02*
X118997619Y-77285000D01*
X119045238Y-77332619D01*
X119092857Y-77285000D01*
X119045238Y-77237380D01*
X119045238Y-77332619D01*
X119426190Y-78237380D02*
X119950000Y-77570714D01*
X119426190Y-77570714D02*
X119950000Y-78237380D01*
X120711904Y-78189761D02*
X120616666Y-78237380D01*
X120426190Y-78237380D01*
X120330952Y-78189761D01*
X120283333Y-78094523D01*
X120283333Y-77713571D01*
X120330952Y-77618333D01*
X120426190Y-77570714D01*
X120616666Y-77570714D01*
X120711904Y-77618333D01*
X120759523Y-77713571D01*
X120759523Y-77808809D01*
X120283333Y-77904047D01*
X121330952Y-78237380D02*
X121235714Y-78189761D01*
X121188095Y-78094523D01*
X121188095Y-77237380D01*
X122616666Y-78237380D02*
X122521428Y-78189761D01*
X122473809Y-78142142D01*
X122426190Y-78046904D01*
X122426190Y-77761190D01*
X122473809Y-77665952D01*
X122521428Y-77618333D01*
X122616666Y-77570714D01*
X122759523Y-77570714D01*
X122854761Y-77618333D01*
X122902380Y-77665952D01*
X122950000Y-77761190D01*
X122950000Y-78046904D01*
X122902380Y-78142142D01*
X122854761Y-78189761D01*
X122759523Y-78237380D01*
X122616666Y-78237380D01*
X123378571Y-77570714D02*
X123378571Y-78237380D01*
X123378571Y-77665952D02*
X123426190Y-77618333D01*
X123521428Y-77570714D01*
X123664285Y-77570714D01*
X123759523Y-77618333D01*
X123807142Y-77713571D01*
X123807142Y-78237380D01*
X118759523Y-78895000D02*
X118664285Y-78847380D01*
X118521428Y-78847380D01*
X118378571Y-78895000D01*
X118283333Y-78990238D01*
X118235714Y-79085476D01*
X118188095Y-79275952D01*
X118188095Y-79418809D01*
X118235714Y-79609285D01*
X118283333Y-79704523D01*
X118378571Y-79799761D01*
X118521428Y-79847380D01*
X118616666Y-79847380D01*
X118759523Y-79799761D01*
X118807142Y-79752142D01*
X118807142Y-79418809D01*
X118616666Y-79418809D01*
X119235714Y-79847380D02*
X119235714Y-78847380D01*
X119616666Y-78847380D01*
X119711904Y-78895000D01*
X119759523Y-78942619D01*
X119807142Y-79037857D01*
X119807142Y-79180714D01*
X119759523Y-79275952D01*
X119711904Y-79323571D01*
X119616666Y-79371190D01*
X119235714Y-79371190D01*
X120188095Y-78942619D02*
X120235714Y-78895000D01*
X120330952Y-78847380D01*
X120569047Y-78847380D01*
X120664285Y-78895000D01*
X120711904Y-78942619D01*
X120759523Y-79037857D01*
X120759523Y-79133095D01*
X120711904Y-79275952D01*
X120140476Y-79847380D01*
X120759523Y-79847380D01*
X121330952Y-79275952D02*
X121235714Y-79228333D01*
X121188095Y-79180714D01*
X121140476Y-79085476D01*
X121140476Y-79037857D01*
X121188095Y-78942619D01*
X121235714Y-78895000D01*
X121330952Y-78847380D01*
X121521428Y-78847380D01*
X121616666Y-78895000D01*
X121664285Y-78942619D01*
X121711904Y-79037857D01*
X121711904Y-79085476D01*
X121664285Y-79180714D01*
X121616666Y-79228333D01*
X121521428Y-79275952D01*
X121330952Y-79275952D01*
X121235714Y-79323571D01*
X121188095Y-79371190D01*
X121140476Y-79466428D01*
X121140476Y-79656904D01*
X121188095Y-79752142D01*
X121235714Y-79799761D01*
X121330952Y-79847380D01*
X121521428Y-79847380D01*
X121616666Y-79799761D01*
X121664285Y-79752142D01*
X121711904Y-79656904D01*
X121711904Y-79466428D01*
X121664285Y-79371190D01*
X121616666Y-79323571D01*
X121521428Y-79275952D01*
X175430000Y-80942380D02*
X175430000Y-79942380D01*
X111565714Y-93110000D02*
X111470476Y-93062380D01*
X111327619Y-93062380D01*
X111184761Y-93110000D01*
X111089523Y-93205238D01*
X111041904Y-93300476D01*
X110994285Y-93490952D01*
X110994285Y-93633809D01*
X111041904Y-93824285D01*
X111089523Y-93919523D01*
X111184761Y-94014761D01*
X111327619Y-94062380D01*
X111422857Y-94062380D01*
X111565714Y-94014761D01*
X111613333Y-93967142D01*
X111613333Y-93633809D01*
X111422857Y-93633809D01*
X112041904Y-94062380D02*
X112041904Y-93062380D01*
X112422857Y-93062380D01*
X112518095Y-93110000D01*
X112565714Y-93157619D01*
X112613333Y-93252857D01*
X112613333Y-93395714D01*
X112565714Y-93490952D01*
X112518095Y-93538571D01*
X112422857Y-93586190D01*
X112041904Y-93586190D01*
X113470476Y-93062380D02*
X113280000Y-93062380D01*
X113184761Y-93110000D01*
X113137142Y-93157619D01*
X113041904Y-93300476D01*
X112994285Y-93490952D01*
X112994285Y-93871904D01*
X113041904Y-93967142D01*
X113089523Y-94014761D01*
X113184761Y-94062380D01*
X113375238Y-94062380D01*
X113470476Y-94014761D01*
X113518095Y-93967142D01*
X113565714Y-93871904D01*
X113565714Y-93633809D01*
X113518095Y-93538571D01*
X113470476Y-93490952D01*
X113375238Y-93443333D01*
X113184761Y-93443333D01*
X113089523Y-93490952D01*
X113041904Y-93538571D01*
X112994285Y-93633809D01*
D11*
X105790952Y-121602380D02*
X105314761Y-121602380D01*
X105314761Y-120602380D01*
X106267142Y-121030952D02*
X106171904Y-120983333D01*
X106124285Y-120935714D01*
X106076666Y-120840476D01*
X106076666Y-120792857D01*
X106124285Y-120697619D01*
X106171904Y-120650000D01*
X106267142Y-120602380D01*
X106457619Y-120602380D01*
X106552857Y-120650000D01*
X106600476Y-120697619D01*
X106648095Y-120792857D01*
X106648095Y-120840476D01*
X106600476Y-120935714D01*
X106552857Y-120983333D01*
X106457619Y-121030952D01*
X106267142Y-121030952D01*
X106171904Y-121078571D01*
X106124285Y-121126190D01*
X106076666Y-121221428D01*
X106076666Y-121411904D01*
X106124285Y-121507142D01*
X106171904Y-121554761D01*
X106267142Y-121602380D01*
X106457619Y-121602380D01*
X106552857Y-121554761D01*
X106600476Y-121507142D01*
X106648095Y-121411904D01*
X106648095Y-121221428D01*
X106600476Y-121126190D01*
X106552857Y-121078571D01*
X106457619Y-121030952D01*
X107267142Y-120602380D02*
X107362380Y-120602380D01*
X107457619Y-120650000D01*
X107505238Y-120697619D01*
X107552857Y-120792857D01*
X107600476Y-120983333D01*
X107600476Y-121221428D01*
X107552857Y-121411904D01*
X107505238Y-121507142D01*
X107457619Y-121554761D01*
X107362380Y-121602380D01*
X107267142Y-121602380D01*
X107171904Y-121554761D01*
X107124285Y-121507142D01*
X107076666Y-121411904D01*
X107029047Y-121221428D01*
X107029047Y-120983333D01*
X107076666Y-120792857D01*
X107124285Y-120697619D01*
X107171904Y-120650000D01*
X107267142Y-120602380D01*
X108029047Y-121221428D02*
X108790952Y-121221428D01*
X109838571Y-121602380D02*
X109505238Y-121126190D01*
X109267142Y-121602380D02*
X109267142Y-120602380D01*
X109648095Y-120602380D01*
X109743333Y-120650000D01*
X109790952Y-120697619D01*
X109838571Y-120792857D01*
X109838571Y-120935714D01*
X109790952Y-121030952D01*
X109743333Y-121078571D01*
X109648095Y-121126190D01*
X109267142Y-121126190D01*
X111029047Y-121221428D02*
X111790952Y-121221428D01*
X113552857Y-120650000D02*
X113457619Y-120602380D01*
X113314761Y-120602380D01*
X113171904Y-120650000D01*
X113076666Y-120745238D01*
X113029047Y-120840476D01*
X112981428Y-121030952D01*
X112981428Y-121173809D01*
X113029047Y-121364285D01*
X113076666Y-121459523D01*
X113171904Y-121554761D01*
X113314761Y-121602380D01*
X113410000Y-121602380D01*
X113552857Y-121554761D01*
X113600476Y-121507142D01*
X113600476Y-121173809D01*
X113410000Y-121173809D01*
X114029047Y-121602380D02*
X114029047Y-120602380D01*
X114410000Y-120602380D01*
X114505238Y-120650000D01*
X114552857Y-120697619D01*
X114600476Y-120792857D01*
X114600476Y-120935714D01*
X114552857Y-121030952D01*
X114505238Y-121078571D01*
X114410000Y-121126190D01*
X114029047Y-121126190D01*
X114981428Y-121554761D02*
X115124285Y-121602380D01*
X115362380Y-121602380D01*
X115457619Y-121554761D01*
X115505238Y-121507142D01*
X115552857Y-121411904D01*
X115552857Y-121316666D01*
X115505238Y-121221428D01*
X115457619Y-121173809D01*
X115362380Y-121126190D01*
X115171904Y-121078571D01*
X115076666Y-121030952D01*
X115029047Y-120983333D01*
X114981428Y-120888095D01*
X114981428Y-120792857D01*
X115029047Y-120697619D01*
X115076666Y-120650000D01*
X115171904Y-120602380D01*
X115410000Y-120602380D01*
X115552857Y-120650000D01*
D10*
X136400000Y-128990476D02*
X136352380Y-129085714D01*
X136352380Y-129228571D01*
X136400000Y-129371428D01*
X136495238Y-129466666D01*
X136590476Y-129514285D01*
X136780952Y-129561904D01*
X136923809Y-129561904D01*
X137114285Y-129514285D01*
X137209523Y-129466666D01*
X137304761Y-129371428D01*
X137352380Y-129228571D01*
X137352380Y-129133333D01*
X137304761Y-128990476D01*
X137257142Y-128942857D01*
X136923809Y-128942857D01*
X136923809Y-129133333D01*
X137352380Y-128514285D02*
X136352380Y-128514285D01*
X136352380Y-128133333D01*
X136400000Y-128038095D01*
X136447619Y-127990476D01*
X136542857Y-127942857D01*
X136685714Y-127942857D01*
X136780952Y-127990476D01*
X136828571Y-128038095D01*
X136876190Y-128133333D01*
X136876190Y-128514285D01*
X137352380Y-126990476D02*
X137352380Y-127561904D01*
X137352380Y-127276190D02*
X136352380Y-127276190D01*
X136495238Y-127371428D01*
X136590476Y-127466666D01*
X136638095Y-127561904D01*
X136352380Y-126657142D02*
X136352380Y-126038095D01*
X136733333Y-126371428D01*
X136733333Y-126228571D01*
X136780952Y-126133333D01*
X136828571Y-126085714D01*
X136923809Y-126038095D01*
X137161904Y-126038095D01*
X137257142Y-126085714D01*
X137304761Y-126133333D01*
X137352380Y-126228571D01*
X137352380Y-126514285D01*
X137304761Y-126609523D01*
X137257142Y-126657142D01*
X136229047Y-99762380D02*
X135895714Y-99286190D01*
X135657619Y-99762380D02*
X135657619Y-98762380D01*
X136038571Y-98762380D01*
X136133809Y-98810000D01*
X136181428Y-98857619D01*
X136229047Y-98952857D01*
X136229047Y-99095714D01*
X136181428Y-99190952D01*
X136133809Y-99238571D01*
X136038571Y-99286190D01*
X135657619Y-99286190D01*
X136657619Y-99762380D02*
X136657619Y-98762380D01*
X137038571Y-98762380D01*
X137133809Y-98810000D01*
X137181428Y-98857619D01*
X137229047Y-98952857D01*
X137229047Y-99095714D01*
X137181428Y-99190952D01*
X137133809Y-99238571D01*
X137038571Y-99286190D01*
X136657619Y-99286190D01*
X137657619Y-99762380D02*
X137657619Y-98762380D01*
X138895714Y-99762380D02*
X138895714Y-98762380D01*
X139276666Y-98762380D01*
X139371904Y-98810000D01*
X139419523Y-98857619D01*
X139467142Y-98952857D01*
X139467142Y-99095714D01*
X139419523Y-99190952D01*
X139371904Y-99238571D01*
X139276666Y-99286190D01*
X138895714Y-99286190D01*
X139895714Y-99762380D02*
X139895714Y-99095714D01*
X139895714Y-98762380D02*
X139848095Y-98810000D01*
X139895714Y-98857619D01*
X139943333Y-98810000D01*
X139895714Y-98762380D01*
X139895714Y-98857619D01*
X140800476Y-99714761D02*
X140705238Y-99762380D01*
X140514761Y-99762380D01*
X140419523Y-99714761D01*
X140371904Y-99667142D01*
X140324285Y-99571904D01*
X140324285Y-99286190D01*
X140371904Y-99190952D01*
X140419523Y-99143333D01*
X140514761Y-99095714D01*
X140705238Y-99095714D01*
X140800476Y-99143333D01*
X141371904Y-99762380D02*
X141276666Y-99714761D01*
X141229047Y-99667142D01*
X141181428Y-99571904D01*
X141181428Y-99286190D01*
X141229047Y-99190952D01*
X141276666Y-99143333D01*
X141371904Y-99095714D01*
X141514761Y-99095714D01*
X141610000Y-99143333D01*
X141657619Y-99190952D01*
X141705238Y-99286190D01*
X141705238Y-99571904D01*
X141657619Y-99667142D01*
X141610000Y-99714761D01*
X141514761Y-99762380D01*
X141371904Y-99762380D01*
X142800476Y-98762380D02*
X143038571Y-99762380D01*
X143229047Y-99048095D01*
X143419523Y-99762380D01*
X143657619Y-98762380D01*
X111505714Y-87190000D02*
X111410476Y-87142380D01*
X111267619Y-87142380D01*
X111124761Y-87190000D01*
X111029523Y-87285238D01*
X110981904Y-87380476D01*
X110934285Y-87570952D01*
X110934285Y-87713809D01*
X110981904Y-87904285D01*
X111029523Y-87999523D01*
X111124761Y-88094761D01*
X111267619Y-88142380D01*
X111362857Y-88142380D01*
X111505714Y-88094761D01*
X111553333Y-88047142D01*
X111553333Y-87713809D01*
X111362857Y-87713809D01*
X111981904Y-88142380D02*
X111981904Y-87142380D01*
X112362857Y-87142380D01*
X112458095Y-87190000D01*
X112505714Y-87237619D01*
X112553333Y-87332857D01*
X112553333Y-87475714D01*
X112505714Y-87570952D01*
X112458095Y-87618571D01*
X112362857Y-87666190D01*
X111981904Y-87666190D01*
X112886666Y-87142380D02*
X113505714Y-87142380D01*
X113172380Y-87523333D01*
X113315238Y-87523333D01*
X113410476Y-87570952D01*
X113458095Y-87618571D01*
X113505714Y-87713809D01*
X113505714Y-87951904D01*
X113458095Y-88047142D01*
X113410476Y-88094761D01*
X113315238Y-88142380D01*
X113029523Y-88142380D01*
X112934285Y-88094761D01*
X112886666Y-88047142D01*
X111615714Y-95190000D02*
X111520476Y-95142380D01*
X111377619Y-95142380D01*
X111234761Y-95190000D01*
X111139523Y-95285238D01*
X111091904Y-95380476D01*
X111044285Y-95570952D01*
X111044285Y-95713809D01*
X111091904Y-95904285D01*
X111139523Y-95999523D01*
X111234761Y-96094761D01*
X111377619Y-96142380D01*
X111472857Y-96142380D01*
X111615714Y-96094761D01*
X111663333Y-96047142D01*
X111663333Y-95713809D01*
X111472857Y-95713809D01*
X112091904Y-96142380D02*
X112091904Y-95142380D01*
X112472857Y-95142380D01*
X112568095Y-95190000D01*
X112615714Y-95237619D01*
X112663333Y-95332857D01*
X112663333Y-95475714D01*
X112615714Y-95570952D01*
X112568095Y-95618571D01*
X112472857Y-95666190D01*
X112091904Y-95666190D01*
X112996666Y-95142380D02*
X113663333Y-95142380D01*
X113234761Y-96142380D01*
X158620476Y-72327380D02*
X158620476Y-71327380D01*
X159049047Y-72279761D02*
X159144285Y-72327380D01*
X159334761Y-72327380D01*
X159430000Y-72279761D01*
X159477619Y-72184523D01*
X159477619Y-72136904D01*
X159430000Y-72041666D01*
X159334761Y-71994047D01*
X159191904Y-71994047D01*
X159096666Y-71946428D01*
X159049047Y-71851190D01*
X159049047Y-71803571D01*
X159096666Y-71708333D01*
X159191904Y-71660714D01*
X159334761Y-71660714D01*
X159430000Y-71708333D01*
X160049047Y-72327380D02*
X159953809Y-72279761D01*
X159906190Y-72232142D01*
X159858571Y-72136904D01*
X159858571Y-71851190D01*
X159906190Y-71755952D01*
X159953809Y-71708333D01*
X160049047Y-71660714D01*
X160191904Y-71660714D01*
X160287142Y-71708333D01*
X160334761Y-71755952D01*
X160382380Y-71851190D01*
X160382380Y-72136904D01*
X160334761Y-72232142D01*
X160287142Y-72279761D01*
X160191904Y-72327380D01*
X160049047Y-72327380D01*
X160953809Y-72327380D02*
X160858571Y-72279761D01*
X160810952Y-72184523D01*
X160810952Y-71327380D01*
X161763333Y-72327380D02*
X161763333Y-71803571D01*
X161715714Y-71708333D01*
X161620476Y-71660714D01*
X161430000Y-71660714D01*
X161334761Y-71708333D01*
X161763333Y-72279761D02*
X161668095Y-72327380D01*
X161430000Y-72327380D01*
X161334761Y-72279761D01*
X161287142Y-72184523D01*
X161287142Y-72089285D01*
X161334761Y-71994047D01*
X161430000Y-71946428D01*
X161668095Y-71946428D01*
X161763333Y-71898809D01*
X162096666Y-71660714D02*
X162477619Y-71660714D01*
X162239523Y-71327380D02*
X162239523Y-72184523D01*
X162287142Y-72279761D01*
X162382380Y-72327380D01*
X162477619Y-72327380D01*
X163191904Y-72279761D02*
X163096666Y-72327380D01*
X162906190Y-72327380D01*
X162810952Y-72279761D01*
X162763333Y-72184523D01*
X162763333Y-71803571D01*
X162810952Y-71708333D01*
X162906190Y-71660714D01*
X163096666Y-71660714D01*
X163191904Y-71708333D01*
X163239523Y-71803571D01*
X163239523Y-71898809D01*
X162763333Y-71994047D01*
X164430000Y-72327380D02*
X164430000Y-71327380D01*
X164810952Y-71327380D01*
X164906190Y-71375000D01*
X164953809Y-71422619D01*
X165001428Y-71517857D01*
X165001428Y-71660714D01*
X164953809Y-71755952D01*
X164906190Y-71803571D01*
X164810952Y-71851190D01*
X164430000Y-71851190D01*
X165430000Y-72327380D02*
X165430000Y-71327380D01*
X166477619Y-72232142D02*
X166430000Y-72279761D01*
X166287142Y-72327380D01*
X166191904Y-72327380D01*
X166049047Y-72279761D01*
X165953809Y-72184523D01*
X165906190Y-72089285D01*
X165858571Y-71898809D01*
X165858571Y-71755952D01*
X165906190Y-71565476D01*
X165953809Y-71470238D01*
X166049047Y-71375000D01*
X166191904Y-71327380D01*
X166287142Y-71327380D01*
X166430000Y-71375000D01*
X166477619Y-71422619D01*
X167096666Y-71327380D02*
X167287142Y-71327380D01*
X167382380Y-71375000D01*
X167477619Y-71470238D01*
X167525238Y-71660714D01*
X167525238Y-71994047D01*
X167477619Y-72184523D01*
X167382380Y-72279761D01*
X167287142Y-72327380D01*
X167096666Y-72327380D01*
X167001428Y-72279761D01*
X166906190Y-72184523D01*
X166858571Y-71994047D01*
X166858571Y-71660714D01*
X166906190Y-71470238D01*
X167001428Y-71375000D01*
X167096666Y-71327380D01*
X157096666Y-73413571D02*
X156763333Y-73413571D01*
X156763333Y-73937380D02*
X156763333Y-72937380D01*
X157239523Y-72937380D01*
X157620476Y-73937380D02*
X157620476Y-73270714D01*
X157620476Y-73461190D02*
X157668095Y-73365952D01*
X157715714Y-73318333D01*
X157810952Y-73270714D01*
X157906190Y-73270714D01*
X158382380Y-73937380D02*
X158287142Y-73889761D01*
X158239523Y-73842142D01*
X158191904Y-73746904D01*
X158191904Y-73461190D01*
X158239523Y-73365952D01*
X158287142Y-73318333D01*
X158382380Y-73270714D01*
X158525238Y-73270714D01*
X158620476Y-73318333D01*
X158668095Y-73365952D01*
X158715714Y-73461190D01*
X158715714Y-73746904D01*
X158668095Y-73842142D01*
X158620476Y-73889761D01*
X158525238Y-73937380D01*
X158382380Y-73937380D01*
X159144285Y-73937380D02*
X159144285Y-73270714D01*
X159144285Y-73365952D02*
X159191904Y-73318333D01*
X159287142Y-73270714D01*
X159430000Y-73270714D01*
X159525238Y-73318333D01*
X159572857Y-73413571D01*
X159572857Y-73937380D01*
X159572857Y-73413571D02*
X159620476Y-73318333D01*
X159715714Y-73270714D01*
X159858571Y-73270714D01*
X159953809Y-73318333D01*
X160001428Y-73413571D01*
X160001428Y-73937380D01*
X161239523Y-73937380D02*
X161239523Y-72937380D01*
X161239523Y-73318333D02*
X161334761Y-73270714D01*
X161525238Y-73270714D01*
X161620476Y-73318333D01*
X161668095Y-73365952D01*
X161715714Y-73461190D01*
X161715714Y-73746904D01*
X161668095Y-73842142D01*
X161620476Y-73889761D01*
X161525238Y-73937380D01*
X161334761Y-73937380D01*
X161239523Y-73889761D01*
X162287142Y-73937380D02*
X162191904Y-73889761D01*
X162144285Y-73842142D01*
X162096666Y-73746904D01*
X162096666Y-73461190D01*
X162144285Y-73365952D01*
X162191904Y-73318333D01*
X162287142Y-73270714D01*
X162430000Y-73270714D01*
X162525238Y-73318333D01*
X162572857Y-73365952D01*
X162620476Y-73461190D01*
X162620476Y-73746904D01*
X162572857Y-73842142D01*
X162525238Y-73889761D01*
X162430000Y-73937380D01*
X162287142Y-73937380D01*
X163477619Y-73937380D02*
X163477619Y-73413571D01*
X163430000Y-73318333D01*
X163334761Y-73270714D01*
X163144285Y-73270714D01*
X163049047Y-73318333D01*
X163477619Y-73889761D02*
X163382380Y-73937380D01*
X163144285Y-73937380D01*
X163049047Y-73889761D01*
X163001428Y-73794523D01*
X163001428Y-73699285D01*
X163049047Y-73604047D01*
X163144285Y-73556428D01*
X163382380Y-73556428D01*
X163477619Y-73508809D01*
X163953809Y-73937380D02*
X163953809Y-73270714D01*
X163953809Y-73461190D02*
X164001428Y-73365952D01*
X164049047Y-73318333D01*
X164144285Y-73270714D01*
X164239523Y-73270714D01*
X165001428Y-73937380D02*
X165001428Y-72937380D01*
X165001428Y-73889761D02*
X164906190Y-73937380D01*
X164715714Y-73937380D01*
X164620476Y-73889761D01*
X164572857Y-73842142D01*
X164525238Y-73746904D01*
X164525238Y-73461190D01*
X164572857Y-73365952D01*
X164620476Y-73318333D01*
X164715714Y-73270714D01*
X164906190Y-73270714D01*
X165001428Y-73318333D01*
X166239523Y-73270714D02*
X166239523Y-74270714D01*
X166239523Y-73318333D02*
X166334761Y-73270714D01*
X166525238Y-73270714D01*
X166620476Y-73318333D01*
X166668095Y-73365952D01*
X166715714Y-73461190D01*
X166715714Y-73746904D01*
X166668095Y-73842142D01*
X166620476Y-73889761D01*
X166525238Y-73937380D01*
X166334761Y-73937380D01*
X166239523Y-73889761D01*
X167287142Y-73937380D02*
X167191904Y-73889761D01*
X167144285Y-73842142D01*
X167096666Y-73746904D01*
X167096666Y-73461190D01*
X167144285Y-73365952D01*
X167191904Y-73318333D01*
X167287142Y-73270714D01*
X167430000Y-73270714D01*
X167525238Y-73318333D01*
X167572857Y-73365952D01*
X167620476Y-73461190D01*
X167620476Y-73746904D01*
X167572857Y-73842142D01*
X167525238Y-73889761D01*
X167430000Y-73937380D01*
X167287142Y-73937380D01*
X167953809Y-73270714D02*
X168144285Y-73937380D01*
X168334761Y-73461190D01*
X168525238Y-73937380D01*
X168715714Y-73270714D01*
X169477619Y-73889761D02*
X169382380Y-73937380D01*
X169191904Y-73937380D01*
X169096666Y-73889761D01*
X169049047Y-73794523D01*
X169049047Y-73413571D01*
X169096666Y-73318333D01*
X169191904Y-73270714D01*
X169382380Y-73270714D01*
X169477619Y-73318333D01*
X169525238Y-73413571D01*
X169525238Y-73508809D01*
X169049047Y-73604047D01*
X169953809Y-73937380D02*
X169953809Y-73270714D01*
X169953809Y-73461190D02*
X170001428Y-73365952D01*
X170049047Y-73318333D01*
X170144285Y-73270714D01*
X170239523Y-73270714D01*
D11*
X163777142Y-131296666D02*
X164253333Y-131296666D01*
X163681904Y-131582380D02*
X164015238Y-130582380D01*
X164348571Y-131582380D01*
X165205714Y-131582380D02*
X164634285Y-131582380D01*
X164920000Y-131582380D02*
X164920000Y-130582380D01*
X164824761Y-130725238D01*
X164729523Y-130820476D01*
X164634285Y-130868095D01*
X166158095Y-131582380D02*
X165586666Y-131582380D01*
X165872380Y-131582380D02*
X165872380Y-130582380D01*
X165777142Y-130725238D01*
X165681904Y-130820476D01*
X165586666Y-130868095D01*
X167110476Y-131582380D02*
X166539047Y-131582380D01*
X166824761Y-131582380D02*
X166824761Y-130582380D01*
X166729523Y-130725238D01*
X166634285Y-130820476D01*
X166539047Y-130868095D01*
X167443809Y-130582380D02*
X168110476Y-130582380D01*
X167681904Y-131582380D01*
D10*
%TO.C,R1*%
X177333333Y-127602380D02*
X177000000Y-127126190D01*
X176761904Y-127602380D02*
X176761904Y-126602380D01*
X177142857Y-126602380D01*
X177238095Y-126650000D01*
X177285714Y-126697619D01*
X177333333Y-126792857D01*
X177333333Y-126935714D01*
X177285714Y-127030952D01*
X177238095Y-127078571D01*
X177142857Y-127126190D01*
X176761904Y-127126190D01*
X178285714Y-127602380D02*
X177714285Y-127602380D01*
X178000000Y-127602380D02*
X178000000Y-126602380D01*
X177904761Y-126745238D01*
X177809523Y-126840476D01*
X177714285Y-126888095D01*
%TO.C,J4*%
X166176666Y-105442380D02*
X166176666Y-106156666D01*
X166129047Y-106299523D01*
X166033809Y-106394761D01*
X165890952Y-106442380D01*
X165795714Y-106442380D01*
X167081428Y-105775714D02*
X167081428Y-106442380D01*
X166843333Y-105394761D02*
X166605238Y-106109047D01*
X167224285Y-106109047D01*
%TO.C,H4*%
X176298095Y-139332380D02*
X176298095Y-138332380D01*
X176298095Y-138808571D02*
X176869523Y-138808571D01*
X176869523Y-139332380D02*
X176869523Y-138332380D01*
X177774285Y-138665714D02*
X177774285Y-139332380D01*
X177536190Y-138284761D02*
X177298095Y-138999047D01*
X177917142Y-138999047D01*
%TO.C,H1*%
X96468095Y-73232380D02*
X96468095Y-72232380D01*
X96468095Y-72708571D02*
X97039523Y-72708571D01*
X97039523Y-73232380D02*
X97039523Y-72232380D01*
X98039523Y-73232380D02*
X97468095Y-73232380D01*
X97753809Y-73232380D02*
X97753809Y-72232380D01*
X97658571Y-72375238D01*
X97563333Y-72470476D01*
X97468095Y-72518095D01*
%TO.C,J2*%
X128736666Y-126492380D02*
X128736666Y-127206666D01*
X128689047Y-127349523D01*
X128593809Y-127444761D01*
X128450952Y-127492380D01*
X128355714Y-127492380D01*
X129165238Y-126587619D02*
X129212857Y-126540000D01*
X129308095Y-126492380D01*
X129546190Y-126492380D01*
X129641428Y-126540000D01*
X129689047Y-126587619D01*
X129736666Y-126682857D01*
X129736666Y-126778095D01*
X129689047Y-126920952D01*
X129117619Y-127492380D01*
X129736666Y-127492380D01*
%TO.C,C2*%
X171243333Y-128587142D02*
X171195714Y-128634761D01*
X171052857Y-128682380D01*
X170957619Y-128682380D01*
X170814761Y-128634761D01*
X170719523Y-128539523D01*
X170671904Y-128444285D01*
X170624285Y-128253809D01*
X170624285Y-128110952D01*
X170671904Y-127920476D01*
X170719523Y-127825238D01*
X170814761Y-127730000D01*
X170957619Y-127682380D01*
X171052857Y-127682380D01*
X171195714Y-127730000D01*
X171243333Y-127777619D01*
X171624285Y-127777619D02*
X171671904Y-127730000D01*
X171767142Y-127682380D01*
X172005238Y-127682380D01*
X172100476Y-127730000D01*
X172148095Y-127777619D01*
X172195714Y-127872857D01*
X172195714Y-127968095D01*
X172148095Y-128110952D01*
X171576666Y-128682380D01*
X172195714Y-128682380D01*
%TO.C,H2*%
X176278095Y-73782380D02*
X176278095Y-72782380D01*
X176278095Y-73258571D02*
X176849523Y-73258571D01*
X176849523Y-73782380D02*
X176849523Y-72782380D01*
X177278095Y-72877619D02*
X177325714Y-72830000D01*
X177420952Y-72782380D01*
X177659047Y-72782380D01*
X177754285Y-72830000D01*
X177801904Y-72877619D01*
X177849523Y-72972857D01*
X177849523Y-73068095D01*
X177801904Y-73210952D01*
X177230476Y-73782380D01*
X177849523Y-73782380D01*
%TO.C,D2*%
X111991904Y-72932380D02*
X111991904Y-71932380D01*
X112230000Y-71932380D01*
X112372857Y-71980000D01*
X112468095Y-72075238D01*
X112515714Y-72170476D01*
X112563333Y-72360952D01*
X112563333Y-72503809D01*
X112515714Y-72694285D01*
X112468095Y-72789523D01*
X112372857Y-72884761D01*
X112230000Y-72932380D01*
X111991904Y-72932380D01*
X112944285Y-72027619D02*
X112991904Y-71980000D01*
X113087142Y-71932380D01*
X113325238Y-71932380D01*
X113420476Y-71980000D01*
X113468095Y-72027619D01*
X113515714Y-72122857D01*
X113515714Y-72218095D01*
X113468095Y-72360952D01*
X112896666Y-72932380D01*
X113515714Y-72932380D01*
%TO.C,J1*%
X114236666Y-79902380D02*
X114236666Y-80616666D01*
X114189047Y-80759523D01*
X114093809Y-80854761D01*
X113950952Y-80902380D01*
X113855714Y-80902380D01*
X115236666Y-80902380D02*
X114665238Y-80902380D01*
X114950952Y-80902380D02*
X114950952Y-79902380D01*
X114855714Y-80045238D01*
X114760476Y-80140476D01*
X114665238Y-80188095D01*
%TO.C,H3*%
X96418095Y-139792380D02*
X96418095Y-138792380D01*
X96418095Y-139268571D02*
X96989523Y-139268571D01*
X96989523Y-139792380D02*
X96989523Y-138792380D01*
X97370476Y-138792380D02*
X97989523Y-138792380D01*
X97656190Y-139173333D01*
X97799047Y-139173333D01*
X97894285Y-139220952D01*
X97941904Y-139268571D01*
X97989523Y-139363809D01*
X97989523Y-139601904D01*
X97941904Y-139697142D01*
X97894285Y-139744761D01*
X97799047Y-139792380D01*
X97513333Y-139792380D01*
X97418095Y-139744761D01*
X97370476Y-139697142D01*
%TO.C,H6*%
X169358095Y-107532380D02*
X169358095Y-106532380D01*
X169358095Y-107008571D02*
X169929523Y-107008571D01*
X169929523Y-107532380D02*
X169929523Y-106532380D01*
X170834285Y-106532380D02*
X170643809Y-106532380D01*
X170548571Y-106580000D01*
X170500952Y-106627619D01*
X170405714Y-106770476D01*
X170358095Y-106960952D01*
X170358095Y-107341904D01*
X170405714Y-107437142D01*
X170453333Y-107484761D01*
X170548571Y-107532380D01*
X170739047Y-107532380D01*
X170834285Y-107484761D01*
X170881904Y-107437142D01*
X170929523Y-107341904D01*
X170929523Y-107103809D01*
X170881904Y-107008571D01*
X170834285Y-106960952D01*
X170739047Y-106913333D01*
X170548571Y-106913333D01*
X170453333Y-106960952D01*
X170405714Y-107008571D01*
X170358095Y-107103809D01*
%TO.C,SW4*%
X174376666Y-83774761D02*
X174519523Y-83822380D01*
X174757619Y-83822380D01*
X174852857Y-83774761D01*
X174900476Y-83727142D01*
X174948095Y-83631904D01*
X174948095Y-83536666D01*
X174900476Y-83441428D01*
X174852857Y-83393809D01*
X174757619Y-83346190D01*
X174567142Y-83298571D01*
X174471904Y-83250952D01*
X174424285Y-83203333D01*
X174376666Y-83108095D01*
X174376666Y-83012857D01*
X174424285Y-82917619D01*
X174471904Y-82870000D01*
X174567142Y-82822380D01*
X174805238Y-82822380D01*
X174948095Y-82870000D01*
X175281428Y-82822380D02*
X175519523Y-83822380D01*
X175710000Y-83108095D01*
X175900476Y-83822380D01*
X176138571Y-82822380D01*
X176948095Y-83155714D02*
X176948095Y-83822380D01*
X176710000Y-82774761D02*
X176471904Y-83489047D01*
X177090952Y-83489047D01*
%TO.C,U2*%
X109938095Y-101812380D02*
X109938095Y-102621904D01*
X109985714Y-102717142D01*
X110033333Y-102764761D01*
X110128571Y-102812380D01*
X110319047Y-102812380D01*
X110414285Y-102764761D01*
X110461904Y-102717142D01*
X110509523Y-102621904D01*
X110509523Y-101812380D01*
X110938095Y-101907619D02*
X110985714Y-101860000D01*
X111080952Y-101812380D01*
X111319047Y-101812380D01*
X111414285Y-101860000D01*
X111461904Y-101907619D01*
X111509523Y-102002857D01*
X111509523Y-102098095D01*
X111461904Y-102240952D01*
X110890476Y-102812380D01*
X111509523Y-102812380D01*
%TO.C,SW1*%
X104956666Y-124844761D02*
X105099523Y-124892380D01*
X105337619Y-124892380D01*
X105432857Y-124844761D01*
X105480476Y-124797142D01*
X105528095Y-124701904D01*
X105528095Y-124606666D01*
X105480476Y-124511428D01*
X105432857Y-124463809D01*
X105337619Y-124416190D01*
X105147142Y-124368571D01*
X105051904Y-124320952D01*
X105004285Y-124273333D01*
X104956666Y-124178095D01*
X104956666Y-124082857D01*
X105004285Y-123987619D01*
X105051904Y-123940000D01*
X105147142Y-123892380D01*
X105385238Y-123892380D01*
X105528095Y-123940000D01*
X105861428Y-123892380D02*
X106099523Y-124892380D01*
X106290000Y-124178095D01*
X106480476Y-124892380D01*
X106718571Y-123892380D01*
X107623333Y-124892380D02*
X107051904Y-124892380D01*
X107337619Y-124892380D02*
X107337619Y-123892380D01*
X107242380Y-124035238D01*
X107147142Y-124130476D01*
X107051904Y-124178095D01*
%TO.C,SW3*%
X165696666Y-137324761D02*
X165839523Y-137372380D01*
X166077619Y-137372380D01*
X166172857Y-137324761D01*
X166220476Y-137277142D01*
X166268095Y-137181904D01*
X166268095Y-137086666D01*
X166220476Y-136991428D01*
X166172857Y-136943809D01*
X166077619Y-136896190D01*
X165887142Y-136848571D01*
X165791904Y-136800952D01*
X165744285Y-136753333D01*
X165696666Y-136658095D01*
X165696666Y-136562857D01*
X165744285Y-136467619D01*
X165791904Y-136420000D01*
X165887142Y-136372380D01*
X166125238Y-136372380D01*
X166268095Y-136420000D01*
X166601428Y-136372380D02*
X166839523Y-137372380D01*
X167030000Y-136658095D01*
X167220476Y-137372380D01*
X167458571Y-136372380D01*
X167744285Y-136372380D02*
X168363333Y-136372380D01*
X168030000Y-136753333D01*
X168172857Y-136753333D01*
X168268095Y-136800952D01*
X168315714Y-136848571D01*
X168363333Y-136943809D01*
X168363333Y-137181904D01*
X168315714Y-137277142D01*
X168268095Y-137324761D01*
X168172857Y-137372380D01*
X167887142Y-137372380D01*
X167791904Y-137324761D01*
X167744285Y-137277142D01*
%TO.C,J3*%
X160826666Y-77622380D02*
X160826666Y-78336666D01*
X160779047Y-78479523D01*
X160683809Y-78574761D01*
X160540952Y-78622380D01*
X160445714Y-78622380D01*
X161207619Y-77622380D02*
X161826666Y-77622380D01*
X161493333Y-78003333D01*
X161636190Y-78003333D01*
X161731428Y-78050952D01*
X161779047Y-78098571D01*
X161826666Y-78193809D01*
X161826666Y-78431904D01*
X161779047Y-78527142D01*
X161731428Y-78574761D01*
X161636190Y-78622380D01*
X161350476Y-78622380D01*
X161255238Y-78574761D01*
X161207619Y-78527142D01*
%TO.C,D1*%
X174171904Y-133522380D02*
X174171904Y-132522380D01*
X174410000Y-132522380D01*
X174552857Y-132570000D01*
X174648095Y-132665238D01*
X174695714Y-132760476D01*
X174743333Y-132950952D01*
X174743333Y-133093809D01*
X174695714Y-133284285D01*
X174648095Y-133379523D01*
X174552857Y-133474761D01*
X174410000Y-133522380D01*
X174171904Y-133522380D01*
X175695714Y-133522380D02*
X175124285Y-133522380D01*
X175410000Y-133522380D02*
X175410000Y-132522380D01*
X175314761Y-132665238D01*
X175219523Y-132760476D01*
X175124285Y-132808095D01*
%TO.C,U3*%
X151732722Y-93425592D02*
X151651910Y-93452529D01*
X151571097Y-93533341D01*
X151517223Y-93641091D01*
X151517223Y-93748841D01*
X151544160Y-93829653D01*
X151624972Y-93964340D01*
X151705784Y-94045152D01*
X151840471Y-94125964D01*
X151921284Y-94152902D01*
X152029033Y-94152902D01*
X152136783Y-94099027D01*
X152190658Y-94045152D01*
X152244532Y-93937402D01*
X152244532Y-93883528D01*
X152055971Y-93694966D01*
X151948221Y-93802715D01*
X152540844Y-93694966D02*
X151975158Y-93129280D01*
X152190658Y-92913781D01*
X152271470Y-92886844D01*
X152325345Y-92886844D01*
X152406157Y-92913781D01*
X152486969Y-92994593D01*
X152513906Y-93075406D01*
X152513906Y-93129280D01*
X152486969Y-93210093D01*
X152271470Y-93425592D01*
X152567781Y-92644407D02*
X152567781Y-92590532D01*
X152594719Y-92509720D01*
X152729406Y-92375033D01*
X152810218Y-92348096D01*
X152864093Y-92348096D01*
X152944905Y-92375033D01*
X152998780Y-92428908D01*
X153052654Y-92536658D01*
X153052654Y-93183155D01*
X153402841Y-92832969D01*
X153322028Y-91782410D02*
X153214279Y-91890160D01*
X153187341Y-91970972D01*
X153187341Y-92024847D01*
X153214279Y-92159534D01*
X153295091Y-92294221D01*
X153510590Y-92509720D01*
X153591402Y-92536658D01*
X153645277Y-92536658D01*
X153726089Y-92509720D01*
X153833839Y-92401971D01*
X153860776Y-92321158D01*
X153860776Y-92267284D01*
X153833839Y-92186471D01*
X153699152Y-92051784D01*
X153618340Y-92024847D01*
X153564465Y-92024847D01*
X153483653Y-92051784D01*
X153375903Y-92159534D01*
X153348966Y-92240346D01*
X153348966Y-92294221D01*
X153375903Y-92375033D01*
X151721158Y-113503155D02*
X151640346Y-113530093D01*
X151559534Y-113610905D01*
X151505659Y-113718654D01*
X151505659Y-113826404D01*
X151532597Y-113907216D01*
X151613409Y-114041903D01*
X151694221Y-114122715D01*
X151828908Y-114203528D01*
X151909720Y-114230465D01*
X152017470Y-114230465D01*
X152125219Y-114176590D01*
X152179094Y-114122715D01*
X152232969Y-114014966D01*
X152232969Y-113961091D01*
X152044407Y-113772529D01*
X151936658Y-113880279D01*
X152529280Y-113772529D02*
X151963595Y-113206844D01*
X152852529Y-113449280D01*
X152286844Y-112883595D01*
X153121903Y-113179906D02*
X152556218Y-112614221D01*
X152690905Y-112479534D01*
X152798654Y-112425659D01*
X152906404Y-112425659D01*
X152987216Y-112452597D01*
X153121903Y-112533409D01*
X153202715Y-112614221D01*
X153283528Y-112748908D01*
X153310465Y-112829720D01*
X153310465Y-112937470D01*
X153256590Y-113045219D01*
X153121903Y-113179906D01*
X151732722Y-116285592D02*
X151651910Y-116312529D01*
X151571097Y-116393341D01*
X151517223Y-116501091D01*
X151517223Y-116608841D01*
X151544160Y-116689653D01*
X151624972Y-116824340D01*
X151705784Y-116905152D01*
X151840471Y-116985964D01*
X151921284Y-117012902D01*
X152029033Y-117012902D01*
X152136783Y-116959027D01*
X152190658Y-116905152D01*
X152244532Y-116797402D01*
X152244532Y-116743528D01*
X152055971Y-116554966D01*
X151948221Y-116662715D01*
X152540844Y-116554966D02*
X151975158Y-115989280D01*
X152190658Y-115773781D01*
X152271470Y-115746844D01*
X152325345Y-115746844D01*
X152406157Y-115773781D01*
X152486969Y-115854593D01*
X152513906Y-115935406D01*
X152513906Y-115989280D01*
X152486969Y-116070093D01*
X152271470Y-116285592D01*
X153402841Y-115692969D02*
X153079592Y-116016218D01*
X153241216Y-115854593D02*
X152675531Y-115288908D01*
X152702468Y-115423595D01*
X152702468Y-115531345D01*
X152675531Y-115612157D01*
X153025717Y-114938722D02*
X153402841Y-114561598D01*
X153726089Y-115369720D01*
X151557131Y-78263308D02*
X151907317Y-77913122D01*
X151934255Y-78317183D01*
X152015067Y-78236370D01*
X152095879Y-78209433D01*
X152149754Y-78209433D01*
X152230566Y-78236370D01*
X152365253Y-78371057D01*
X152392190Y-78451870D01*
X152392190Y-78505744D01*
X152365253Y-78586557D01*
X152203629Y-78748181D01*
X152122816Y-78775118D01*
X152068942Y-78775118D01*
X152068942Y-77751497D02*
X152823189Y-78128621D01*
X152446065Y-77374374D01*
X152580752Y-77239687D02*
X152930938Y-76889500D01*
X152957876Y-77293561D01*
X153038688Y-77212749D01*
X153119500Y-77185812D01*
X153173375Y-77185812D01*
X153254187Y-77212749D01*
X153388874Y-77347436D01*
X153415812Y-77428248D01*
X153415812Y-77482123D01*
X153388874Y-77562935D01*
X153227250Y-77724560D01*
X153146438Y-77751497D01*
X153092563Y-77751497D01*
X153658248Y-77401311D02*
X154089247Y-76970312D01*
X153873748Y-76485439D02*
X154062309Y-76296877D01*
X154439433Y-76512377D02*
X154170059Y-76781751D01*
X153604374Y-76216065D01*
X153873748Y-75946691D01*
X154681870Y-76269940D02*
X154116184Y-75704255D01*
X155005118Y-75946691D01*
X154439433Y-75381006D01*
X151588129Y-70832309D02*
X152342377Y-71209433D01*
X151965253Y-70455186D01*
X152611751Y-70347436D02*
X152719500Y-70293561D01*
X152773375Y-70293561D01*
X152854187Y-70320499D01*
X152935000Y-70401311D01*
X152961937Y-70482123D01*
X152961937Y-70535998D01*
X152935000Y-70616810D01*
X152719500Y-70832309D01*
X152153815Y-70266624D01*
X152342377Y-70078062D01*
X152423189Y-70051125D01*
X152477064Y-70051125D01*
X152557876Y-70078062D01*
X152611751Y-70131937D01*
X152638688Y-70212749D01*
X152638688Y-70266624D01*
X152611751Y-70347436D01*
X152423189Y-70535998D01*
X152719500Y-69700938D02*
X153177436Y-70158874D01*
X153258248Y-70185812D01*
X153312123Y-70185812D01*
X153392935Y-70158874D01*
X153500685Y-70051125D01*
X153527622Y-69970312D01*
X153527622Y-69916438D01*
X153500685Y-69835625D01*
X153042749Y-69377690D01*
X153823934Y-69674001D02*
X153931683Y-69620126D01*
X154066370Y-69485439D01*
X154093308Y-69404627D01*
X154093308Y-69350752D01*
X154066370Y-69269940D01*
X154012496Y-69216065D01*
X153931683Y-69189128D01*
X153877809Y-69189128D01*
X153796996Y-69216065D01*
X153662309Y-69296877D01*
X153581497Y-69323815D01*
X153527622Y-69323815D01*
X153446810Y-69296877D01*
X153392935Y-69243003D01*
X153365998Y-69162190D01*
X153365998Y-69108316D01*
X153392935Y-69027503D01*
X153527622Y-68892816D01*
X153635372Y-68838942D01*
X151732722Y-90895592D02*
X151651910Y-90922529D01*
X151571097Y-91003341D01*
X151517223Y-91111091D01*
X151517223Y-91218841D01*
X151544160Y-91299653D01*
X151624972Y-91434340D01*
X151705784Y-91515152D01*
X151840471Y-91595964D01*
X151921284Y-91622902D01*
X152029033Y-91622902D01*
X152136783Y-91569027D01*
X152190658Y-91515152D01*
X152244532Y-91407402D01*
X152244532Y-91353528D01*
X152055971Y-91164966D01*
X151948221Y-91272715D01*
X152540844Y-91164966D02*
X151975158Y-90599280D01*
X152190658Y-90383781D01*
X152271470Y-90356844D01*
X152325345Y-90356844D01*
X152406157Y-90383781D01*
X152486969Y-90464593D01*
X152513906Y-90545406D01*
X152513906Y-90599280D01*
X152486969Y-90680093D01*
X152271470Y-90895592D01*
X152567781Y-90114407D02*
X152567781Y-90060532D01*
X152594719Y-89979720D01*
X152729406Y-89845033D01*
X152810218Y-89818096D01*
X152864093Y-89818096D01*
X152944905Y-89845033D01*
X152998780Y-89898908D01*
X153052654Y-90006658D01*
X153052654Y-90653155D01*
X153402841Y-90302969D01*
X153025717Y-89548722D02*
X153402841Y-89171598D01*
X153726089Y-89979720D01*
X151732722Y-98505592D02*
X151651910Y-98532529D01*
X151571097Y-98613341D01*
X151517223Y-98721091D01*
X151517223Y-98828841D01*
X151544160Y-98909653D01*
X151624972Y-99044340D01*
X151705784Y-99125152D01*
X151840471Y-99205964D01*
X151921284Y-99232902D01*
X152029033Y-99232902D01*
X152136783Y-99179027D01*
X152190658Y-99125152D01*
X152244532Y-99017402D01*
X152244532Y-98963528D01*
X152055971Y-98774966D01*
X151948221Y-98882715D01*
X152540844Y-98774966D02*
X151975158Y-98209280D01*
X152190658Y-97993781D01*
X152271470Y-97966844D01*
X152325345Y-97966844D01*
X152406157Y-97993781D01*
X152486969Y-98074593D01*
X152513906Y-98155406D01*
X152513906Y-98209280D01*
X152486969Y-98290093D01*
X152271470Y-98505592D01*
X152567781Y-97724407D02*
X152567781Y-97670532D01*
X152594719Y-97589720D01*
X152729406Y-97455033D01*
X152810218Y-97428096D01*
X152864093Y-97428096D01*
X152944905Y-97455033D01*
X152998780Y-97508908D01*
X153052654Y-97616658D01*
X153052654Y-98263155D01*
X153402841Y-97912969D01*
X153106529Y-97185659D02*
X153106529Y-97131784D01*
X153133467Y-97050972D01*
X153268154Y-96916285D01*
X153348966Y-96889348D01*
X153402841Y-96889348D01*
X153483653Y-96916285D01*
X153537528Y-96970160D01*
X153591402Y-97077910D01*
X153591402Y-97724407D01*
X153941589Y-97374221D01*
X152473375Y-96248435D02*
X152015439Y-96167622D01*
X152150126Y-96571683D02*
X151584441Y-96005998D01*
X151799940Y-95790499D01*
X151880752Y-95763561D01*
X151934627Y-95763561D01*
X152015439Y-95790499D01*
X152096251Y-95871311D01*
X152123189Y-95952123D01*
X152123189Y-96005998D01*
X152096251Y-96086810D01*
X151880752Y-96302309D01*
X152150126Y-95440312D02*
X152608062Y-95898248D01*
X152688874Y-95925186D01*
X152742749Y-95925186D01*
X152823561Y-95898248D01*
X152931311Y-95790499D01*
X152958248Y-95709687D01*
X152958248Y-95655812D01*
X152931311Y-95574999D01*
X152473375Y-95117064D01*
X153308435Y-95413375D02*
X152742749Y-94847690D01*
X153631683Y-95090126D01*
X153065998Y-94524441D01*
X151732722Y-118825592D02*
X151651910Y-118852529D01*
X151571097Y-118933341D01*
X151517223Y-119041091D01*
X151517223Y-119148841D01*
X151544160Y-119229653D01*
X151624972Y-119364340D01*
X151705784Y-119445152D01*
X151840471Y-119525964D01*
X151921284Y-119552902D01*
X152029033Y-119552902D01*
X152136783Y-119499027D01*
X152190658Y-119445152D01*
X152244532Y-119337402D01*
X152244532Y-119283528D01*
X152055971Y-119094966D01*
X151948221Y-119202715D01*
X152540844Y-119094966D02*
X151975158Y-118529280D01*
X152190658Y-118313781D01*
X152271470Y-118286844D01*
X152325345Y-118286844D01*
X152406157Y-118313781D01*
X152486969Y-118394593D01*
X152513906Y-118475406D01*
X152513906Y-118529280D01*
X152486969Y-118610093D01*
X152271470Y-118825592D01*
X153402841Y-118232969D02*
X153079592Y-118556218D01*
X153241216Y-118394593D02*
X152675531Y-117828908D01*
X152702468Y-117963595D01*
X152702468Y-118071345D01*
X152675531Y-118152157D01*
X153322028Y-117182410D02*
X153214279Y-117290160D01*
X153187341Y-117370972D01*
X153187341Y-117424847D01*
X153214279Y-117559534D01*
X153295091Y-117694221D01*
X153510590Y-117909720D01*
X153591402Y-117936658D01*
X153645277Y-117936658D01*
X153726089Y-117909720D01*
X153833839Y-117801971D01*
X153860776Y-117721158D01*
X153860776Y-117667284D01*
X153833839Y-117586471D01*
X153699152Y-117451784D01*
X153618340Y-117424847D01*
X153564465Y-117424847D01*
X153483653Y-117451784D01*
X153375903Y-117559534D01*
X153348966Y-117640346D01*
X153348966Y-117694221D01*
X153375903Y-117775033D01*
X151789788Y-83838773D02*
X152059162Y-83569399D01*
X151897537Y-84054272D02*
X151520414Y-83300025D01*
X152274661Y-83677149D01*
X152463223Y-83488587D02*
X151897537Y-82922902D01*
X152032224Y-82788215D01*
X152139974Y-82734340D01*
X152247723Y-82734340D01*
X152328536Y-82761277D01*
X152463223Y-82842089D01*
X152544035Y-82922902D01*
X152624847Y-83057589D01*
X152651784Y-83138401D01*
X152651784Y-83246150D01*
X152597910Y-83353900D01*
X152463223Y-83488587D01*
X153298282Y-82545778D02*
X153298282Y-82599653D01*
X153244407Y-82707402D01*
X153190532Y-82761277D01*
X153082783Y-82815152D01*
X152975033Y-82815152D01*
X152894221Y-82788215D01*
X152759534Y-82707402D01*
X152678722Y-82626590D01*
X152597910Y-82491903D01*
X152570972Y-82411091D01*
X152570972Y-82303341D01*
X152624847Y-82195592D01*
X152678722Y-82141717D01*
X152786471Y-82087842D01*
X152840346Y-82087842D01*
X153513781Y-82545778D02*
X153944780Y-82114780D01*
X153379094Y-81441345D02*
X154133341Y-81818468D01*
X153756218Y-81064221D01*
X154833714Y-81118096D02*
X154375778Y-81037284D01*
X154510465Y-81441345D02*
X153944780Y-80875659D01*
X154160279Y-80660160D01*
X154241091Y-80633223D01*
X154294966Y-80633223D01*
X154375778Y-80660160D01*
X154456590Y-80740972D01*
X154483528Y-80821784D01*
X154483528Y-80875659D01*
X154456590Y-80956471D01*
X154241091Y-81171971D01*
X154779839Y-80579348D02*
X154968401Y-80390786D01*
X155345524Y-80606285D02*
X155076150Y-80875659D01*
X154510465Y-80309974D01*
X154779839Y-80040600D01*
X155480211Y-79878975D02*
X155291650Y-80067537D01*
X155587961Y-80363849D02*
X155022276Y-79798163D01*
X155291650Y-79528789D01*
X151721158Y-100803155D02*
X151640346Y-100830093D01*
X151559534Y-100910905D01*
X151505659Y-101018654D01*
X151505659Y-101126404D01*
X151532597Y-101207216D01*
X151613409Y-101341903D01*
X151694221Y-101422715D01*
X151828908Y-101503528D01*
X151909720Y-101530465D01*
X152017470Y-101530465D01*
X152125219Y-101476590D01*
X152179094Y-101422715D01*
X152232969Y-101314966D01*
X152232969Y-101261091D01*
X152044407Y-101072529D01*
X151936658Y-101180279D01*
X152529280Y-101072529D02*
X151963595Y-100506844D01*
X152852529Y-100749280D01*
X152286844Y-100183595D01*
X153121903Y-100479906D02*
X152556218Y-99914221D01*
X152690905Y-99779534D01*
X152798654Y-99725659D01*
X152906404Y-99725659D01*
X152987216Y-99752597D01*
X153121903Y-99833409D01*
X153202715Y-99914221D01*
X153283528Y-100048908D01*
X153310465Y-100129720D01*
X153310465Y-100237470D01*
X153256590Y-100345219D01*
X153121903Y-100479906D01*
X126148096Y-85536218D02*
X126067284Y-85563155D01*
X125986471Y-85643967D01*
X125932597Y-85751717D01*
X125932597Y-85859467D01*
X125959534Y-85940279D01*
X126040346Y-86074966D01*
X126121158Y-86155778D01*
X126255845Y-86236590D01*
X126336658Y-86263528D01*
X126444407Y-86263528D01*
X126552157Y-86209653D01*
X126606032Y-86155778D01*
X126659906Y-86048028D01*
X126659906Y-85994154D01*
X126471345Y-85805592D01*
X126363595Y-85913341D01*
X126956218Y-85805592D02*
X126390532Y-85239906D01*
X126606032Y-85024407D01*
X126686844Y-84997470D01*
X126740719Y-84997470D01*
X126821531Y-85024407D01*
X126902343Y-85105219D01*
X126929280Y-85186032D01*
X126929280Y-85239906D01*
X126902343Y-85320719D01*
X126686844Y-85536218D01*
X127225592Y-84404847D02*
X126956218Y-84674221D01*
X127198654Y-84970532D01*
X127198654Y-84916658D01*
X127225592Y-84835845D01*
X127360279Y-84701158D01*
X127441091Y-84674221D01*
X127494966Y-84674221D01*
X127575778Y-84701158D01*
X127710465Y-84835845D01*
X127737402Y-84916658D01*
X127737402Y-84970532D01*
X127710465Y-85051345D01*
X127575778Y-85186032D01*
X127494966Y-85212969D01*
X127441091Y-85212969D01*
X126148096Y-95696218D02*
X126067284Y-95723155D01*
X125986471Y-95803967D01*
X125932597Y-95911717D01*
X125932597Y-96019467D01*
X125959534Y-96100279D01*
X126040346Y-96234966D01*
X126121158Y-96315778D01*
X126255845Y-96396590D01*
X126336658Y-96423528D01*
X126444407Y-96423528D01*
X126552157Y-96369653D01*
X126606032Y-96315778D01*
X126659906Y-96208028D01*
X126659906Y-96154154D01*
X126471345Y-95965592D01*
X126363595Y-96073341D01*
X126956218Y-95965592D02*
X126390532Y-95399906D01*
X126606032Y-95184407D01*
X126686844Y-95157470D01*
X126740719Y-95157470D01*
X126821531Y-95184407D01*
X126902343Y-95265219D01*
X126929280Y-95346032D01*
X126929280Y-95399906D01*
X126902343Y-95480719D01*
X126686844Y-95696218D01*
X127279467Y-94995845D02*
X127198654Y-95022783D01*
X127144780Y-95022783D01*
X127063967Y-94995845D01*
X127037030Y-94968908D01*
X127010093Y-94888096D01*
X127010093Y-94834221D01*
X127037030Y-94753409D01*
X127144780Y-94645659D01*
X127225592Y-94618722D01*
X127279467Y-94618722D01*
X127360279Y-94645659D01*
X127387216Y-94672597D01*
X127414154Y-94753409D01*
X127414154Y-94807284D01*
X127387216Y-94888096D01*
X127279467Y-94995845D01*
X127252529Y-95076658D01*
X127252529Y-95130532D01*
X127279467Y-95211345D01*
X127387216Y-95319094D01*
X127468028Y-95346032D01*
X127521903Y-95346032D01*
X127602715Y-95319094D01*
X127710465Y-95211345D01*
X127737402Y-95130532D01*
X127737402Y-95076658D01*
X127710465Y-94995845D01*
X127602715Y-94888096D01*
X127521903Y-94861158D01*
X127468028Y-94861158D01*
X127387216Y-94888096D01*
X126121158Y-100803155D02*
X126040346Y-100830093D01*
X125959534Y-100910905D01*
X125905659Y-101018654D01*
X125905659Y-101126404D01*
X125932597Y-101207216D01*
X126013409Y-101341903D01*
X126094221Y-101422715D01*
X126228908Y-101503528D01*
X126309720Y-101530465D01*
X126417470Y-101530465D01*
X126525219Y-101476590D01*
X126579094Y-101422715D01*
X126632969Y-101314966D01*
X126632969Y-101261091D01*
X126444407Y-101072529D01*
X126336658Y-101180279D01*
X126929280Y-101072529D02*
X126363595Y-100506844D01*
X127252529Y-100749280D01*
X126686844Y-100183595D01*
X127521903Y-100479906D02*
X126956218Y-99914221D01*
X127090905Y-99779534D01*
X127198654Y-99725659D01*
X127306404Y-99725659D01*
X127387216Y-99752597D01*
X127521903Y-99833409D01*
X127602715Y-99914221D01*
X127683528Y-100048908D01*
X127710465Y-100129720D01*
X127710465Y-100237470D01*
X127656590Y-100345219D01*
X127521903Y-100479906D01*
X151732722Y-108665592D02*
X151651910Y-108692529D01*
X151571097Y-108773341D01*
X151517223Y-108881091D01*
X151517223Y-108988841D01*
X151544160Y-109069653D01*
X151624972Y-109204340D01*
X151705784Y-109285152D01*
X151840471Y-109365964D01*
X151921284Y-109392902D01*
X152029033Y-109392902D01*
X152136783Y-109339027D01*
X152190658Y-109285152D01*
X152244532Y-109177402D01*
X152244532Y-109123528D01*
X152055971Y-108934966D01*
X151948221Y-109042715D01*
X152540844Y-108934966D02*
X151975158Y-108369280D01*
X152190658Y-108153781D01*
X152271470Y-108126844D01*
X152325345Y-108126844D01*
X152406157Y-108153781D01*
X152486969Y-108234593D01*
X152513906Y-108315406D01*
X152513906Y-108369280D01*
X152486969Y-108450093D01*
X152271470Y-108665592D01*
X153402841Y-108072969D02*
X153079592Y-108396218D01*
X153241216Y-108234593D02*
X152675531Y-107668908D01*
X152702468Y-107803595D01*
X152702468Y-107911345D01*
X152675531Y-107992157D01*
X153672215Y-107803595D02*
X153779964Y-107695845D01*
X153806902Y-107615033D01*
X153806902Y-107561158D01*
X153779964Y-107426471D01*
X153699152Y-107291784D01*
X153483653Y-107076285D01*
X153402841Y-107049348D01*
X153348966Y-107049348D01*
X153268154Y-107076285D01*
X153160404Y-107184035D01*
X153133467Y-107264847D01*
X153133467Y-107318722D01*
X153160404Y-107399534D01*
X153295091Y-107534221D01*
X153375903Y-107561158D01*
X153429778Y-107561158D01*
X153510590Y-107534221D01*
X153618340Y-107426471D01*
X153645277Y-107345659D01*
X153645277Y-107291784D01*
X153618340Y-107210972D01*
X125624722Y-103585592D02*
X125543910Y-103612529D01*
X125463097Y-103693341D01*
X125409223Y-103801091D01*
X125409223Y-103908841D01*
X125436160Y-103989653D01*
X125516972Y-104124340D01*
X125597784Y-104205152D01*
X125732471Y-104285964D01*
X125813284Y-104312902D01*
X125921033Y-104312902D01*
X126028783Y-104259027D01*
X126082658Y-104205152D01*
X126136532Y-104097402D01*
X126136532Y-104043528D01*
X125947971Y-103854966D01*
X125840221Y-103962715D01*
X126432844Y-103854966D02*
X125867158Y-103289280D01*
X126082658Y-103073781D01*
X126163470Y-103046844D01*
X126217345Y-103046844D01*
X126298157Y-103073781D01*
X126378969Y-103154593D01*
X126405906Y-103235406D01*
X126405906Y-103289280D01*
X126378969Y-103370093D01*
X126163470Y-103585592D01*
X127294841Y-102992969D02*
X126971592Y-103316218D01*
X127133216Y-103154593D02*
X126567531Y-102588908D01*
X126594468Y-102723595D01*
X126594468Y-102831345D01*
X126567531Y-102912157D01*
X127079341Y-102077097D02*
X127133216Y-102023223D01*
X127214028Y-101996285D01*
X127267903Y-101996285D01*
X127348715Y-102023223D01*
X127483402Y-102104035D01*
X127618089Y-102238722D01*
X127698902Y-102373409D01*
X127725839Y-102454221D01*
X127725839Y-102508096D01*
X127698902Y-102588908D01*
X127645027Y-102642783D01*
X127564215Y-102669720D01*
X127510340Y-102669720D01*
X127429528Y-102642783D01*
X127294841Y-102561971D01*
X127160154Y-102427284D01*
X127079341Y-102292597D01*
X127052404Y-102211784D01*
X127052404Y-102157910D01*
X127079341Y-102077097D01*
X151732722Y-85551592D02*
X151651910Y-85578529D01*
X151571097Y-85659341D01*
X151517223Y-85767091D01*
X151517223Y-85874841D01*
X151544160Y-85955653D01*
X151624972Y-86090340D01*
X151705784Y-86171152D01*
X151840471Y-86251964D01*
X151921284Y-86278902D01*
X152029033Y-86278902D01*
X152136783Y-86225027D01*
X152190658Y-86171152D01*
X152244532Y-86063402D01*
X152244532Y-86009528D01*
X152055971Y-85820966D01*
X151948221Y-85928715D01*
X152540844Y-85820966D02*
X151975158Y-85255280D01*
X152190658Y-85039781D01*
X152271470Y-85012844D01*
X152325345Y-85012844D01*
X152406157Y-85039781D01*
X152486969Y-85120593D01*
X152513906Y-85201406D01*
X152513906Y-85255280D01*
X152486969Y-85336093D01*
X152271470Y-85551592D01*
X152567781Y-84770407D02*
X152567781Y-84716532D01*
X152594719Y-84635720D01*
X152729406Y-84501033D01*
X152810218Y-84474096D01*
X152864093Y-84474096D01*
X152944905Y-84501033D01*
X152998780Y-84554908D01*
X153052654Y-84662658D01*
X153052654Y-85309155D01*
X153402841Y-84958969D01*
X153402841Y-84312471D02*
X153322028Y-84339409D01*
X153268154Y-84339409D01*
X153187341Y-84312471D01*
X153160404Y-84285534D01*
X153133467Y-84204722D01*
X153133467Y-84150847D01*
X153160404Y-84070035D01*
X153268154Y-83962285D01*
X153348966Y-83935348D01*
X153402841Y-83935348D01*
X153483653Y-83962285D01*
X153510590Y-83989223D01*
X153537528Y-84070035D01*
X153537528Y-84123910D01*
X153510590Y-84204722D01*
X153402841Y-84312471D01*
X153375903Y-84393284D01*
X153375903Y-84447158D01*
X153402841Y-84527971D01*
X153510590Y-84635720D01*
X153591402Y-84662658D01*
X153645277Y-84662658D01*
X153726089Y-84635720D01*
X153833839Y-84527971D01*
X153860776Y-84447158D01*
X153860776Y-84393284D01*
X153833839Y-84312471D01*
X153726089Y-84204722D01*
X153645277Y-84177784D01*
X153591402Y-84177784D01*
X153510590Y-84204722D01*
X126148096Y-80456218D02*
X126067284Y-80483155D01*
X125986471Y-80563967D01*
X125932597Y-80671717D01*
X125932597Y-80779467D01*
X125959534Y-80860279D01*
X126040346Y-80994966D01*
X126121158Y-81075778D01*
X126255845Y-81156590D01*
X126336658Y-81183528D01*
X126444407Y-81183528D01*
X126552157Y-81129653D01*
X126606032Y-81075778D01*
X126659906Y-80968028D01*
X126659906Y-80914154D01*
X126471345Y-80725592D01*
X126363595Y-80833341D01*
X126956218Y-80725592D02*
X126390532Y-80159906D01*
X126606032Y-79944407D01*
X126686844Y-79917470D01*
X126740719Y-79917470D01*
X126821531Y-79944407D01*
X126902343Y-80025219D01*
X126929280Y-80106032D01*
X126929280Y-80159906D01*
X126902343Y-80240719D01*
X126686844Y-80456218D01*
X126902343Y-79648096D02*
X127252529Y-79297910D01*
X127279467Y-79701971D01*
X127360279Y-79621158D01*
X127441091Y-79594221D01*
X127494966Y-79594221D01*
X127575778Y-79621158D01*
X127710465Y-79755845D01*
X127737402Y-79836658D01*
X127737402Y-79890532D01*
X127710465Y-79971345D01*
X127548841Y-80132969D01*
X127468028Y-80159906D01*
X127414154Y-80159906D01*
X151732722Y-103595592D02*
X151651910Y-103622529D01*
X151571097Y-103703341D01*
X151517223Y-103811091D01*
X151517223Y-103918841D01*
X151544160Y-103999653D01*
X151624972Y-104134340D01*
X151705784Y-104215152D01*
X151840471Y-104295964D01*
X151921284Y-104322902D01*
X152029033Y-104322902D01*
X152136783Y-104269027D01*
X152190658Y-104215152D01*
X152244532Y-104107402D01*
X152244532Y-104053528D01*
X152055971Y-103864966D01*
X151948221Y-103972715D01*
X152540844Y-103864966D02*
X151975158Y-103299280D01*
X152190658Y-103083781D01*
X152271470Y-103056844D01*
X152325345Y-103056844D01*
X152406157Y-103083781D01*
X152486969Y-103164593D01*
X152513906Y-103245406D01*
X152513906Y-103299280D01*
X152486969Y-103380093D01*
X152271470Y-103595592D01*
X152567781Y-102814407D02*
X152567781Y-102760532D01*
X152594719Y-102679720D01*
X152729406Y-102545033D01*
X152810218Y-102518096D01*
X152864093Y-102518096D01*
X152944905Y-102545033D01*
X152998780Y-102598908D01*
X153052654Y-102706658D01*
X153052654Y-103353155D01*
X153402841Y-103002969D01*
X153941589Y-102464221D02*
X153618340Y-102787470D01*
X153779964Y-102625845D02*
X153214279Y-102060160D01*
X153241216Y-102194847D01*
X153241216Y-102302597D01*
X153214279Y-102383409D01*
X126148096Y-90616218D02*
X126067284Y-90643155D01*
X125986471Y-90723967D01*
X125932597Y-90831717D01*
X125932597Y-90939467D01*
X125959534Y-91020279D01*
X126040346Y-91154966D01*
X126121158Y-91235778D01*
X126255845Y-91316590D01*
X126336658Y-91343528D01*
X126444407Y-91343528D01*
X126552157Y-91289653D01*
X126606032Y-91235778D01*
X126659906Y-91128028D01*
X126659906Y-91074154D01*
X126471345Y-90885592D01*
X126363595Y-90993341D01*
X126956218Y-90885592D02*
X126390532Y-90319906D01*
X126606032Y-90104407D01*
X126686844Y-90077470D01*
X126740719Y-90077470D01*
X126821531Y-90104407D01*
X126902343Y-90185219D01*
X126929280Y-90266032D01*
X126929280Y-90319906D01*
X126902343Y-90400719D01*
X126686844Y-90616218D01*
X127198654Y-89511784D02*
X127090905Y-89619534D01*
X127063967Y-89700346D01*
X127063967Y-89754221D01*
X127090905Y-89888908D01*
X127171717Y-90023595D01*
X127387216Y-90239094D01*
X127468028Y-90266032D01*
X127521903Y-90266032D01*
X127602715Y-90239094D01*
X127710465Y-90131345D01*
X127737402Y-90050532D01*
X127737402Y-89996658D01*
X127710465Y-89915845D01*
X127575778Y-89781158D01*
X127494966Y-89754221D01*
X127441091Y-89754221D01*
X127360279Y-89781158D01*
X127252529Y-89888908D01*
X127225592Y-89969720D01*
X127225592Y-90023595D01*
X127252529Y-90104407D01*
X126121158Y-88103155D02*
X126040346Y-88130093D01*
X125959534Y-88210905D01*
X125905659Y-88318654D01*
X125905659Y-88426404D01*
X125932597Y-88507216D01*
X126013409Y-88641903D01*
X126094221Y-88722715D01*
X126228908Y-88803528D01*
X126309720Y-88830465D01*
X126417470Y-88830465D01*
X126525219Y-88776590D01*
X126579094Y-88722715D01*
X126632969Y-88614966D01*
X126632969Y-88561091D01*
X126444407Y-88372529D01*
X126336658Y-88480279D01*
X126929280Y-88372529D02*
X126363595Y-87806844D01*
X127252529Y-88049280D01*
X126686844Y-87483595D01*
X127521903Y-87779906D02*
X126956218Y-87214221D01*
X127090905Y-87079534D01*
X127198654Y-87025659D01*
X127306404Y-87025659D01*
X127387216Y-87052597D01*
X127521903Y-87133409D01*
X127602715Y-87214221D01*
X127683528Y-87348908D01*
X127710465Y-87429720D01*
X127710465Y-87537470D01*
X127656590Y-87645219D01*
X127521903Y-87779906D01*
X126121158Y-113503155D02*
X126040346Y-113530093D01*
X125959534Y-113610905D01*
X125905659Y-113718654D01*
X125905659Y-113826404D01*
X125932597Y-113907216D01*
X126013409Y-114041903D01*
X126094221Y-114122715D01*
X126228908Y-114203528D01*
X126309720Y-114230465D01*
X126417470Y-114230465D01*
X126525219Y-114176590D01*
X126579094Y-114122715D01*
X126632969Y-114014966D01*
X126632969Y-113961091D01*
X126444407Y-113772529D01*
X126336658Y-113880279D01*
X126929280Y-113772529D02*
X126363595Y-113206844D01*
X127252529Y-113449280D01*
X126686844Y-112883595D01*
X127521903Y-113179906D02*
X126956218Y-112614221D01*
X127090905Y-112479534D01*
X127198654Y-112425659D01*
X127306404Y-112425659D01*
X127387216Y-112452597D01*
X127521903Y-112533409D01*
X127602715Y-112614221D01*
X127683528Y-112748908D01*
X127710465Y-112829720D01*
X127710465Y-112937470D01*
X127656590Y-113045219D01*
X127521903Y-113179906D01*
X151555473Y-73374966D02*
X152309720Y-73752089D01*
X151932597Y-72997842D01*
X152632969Y-73374966D02*
X152740719Y-73321091D01*
X152875406Y-73186404D01*
X152902343Y-73105592D01*
X152902343Y-73051717D01*
X152875406Y-72970905D01*
X152821531Y-72917030D01*
X152740719Y-72890093D01*
X152686844Y-72890093D01*
X152606032Y-72917030D01*
X152471345Y-72997842D01*
X152390532Y-73024780D01*
X152336658Y-73024780D01*
X152255845Y-72997842D01*
X152201971Y-72943967D01*
X152175033Y-72863155D01*
X152175033Y-72809280D01*
X152201971Y-72728468D01*
X152336658Y-72593781D01*
X152444407Y-72539906D01*
X153063967Y-72459094D02*
X153333341Y-72728468D01*
X152579094Y-72351345D02*
X153063967Y-72459094D01*
X152956218Y-71974221D01*
X153656590Y-72351345D02*
X153764340Y-72297470D01*
X153899027Y-72162783D01*
X153925964Y-72081971D01*
X153925964Y-72028096D01*
X153899027Y-71947284D01*
X153845152Y-71893409D01*
X153764340Y-71866471D01*
X153710465Y-71866471D01*
X153629653Y-71893409D01*
X153494966Y-71974221D01*
X153414154Y-72001158D01*
X153360279Y-72001158D01*
X153279467Y-71974221D01*
X153225592Y-71920346D01*
X153198654Y-71839534D01*
X153198654Y-71785659D01*
X153225592Y-71704847D01*
X153360279Y-71570160D01*
X153468028Y-71516285D01*
X125578722Y-116285592D02*
X125497910Y-116312529D01*
X125417097Y-116393341D01*
X125363223Y-116501091D01*
X125363223Y-116608841D01*
X125390160Y-116689653D01*
X125470972Y-116824340D01*
X125551784Y-116905152D01*
X125686471Y-116985964D01*
X125767284Y-117012902D01*
X125875033Y-117012902D01*
X125982783Y-116959027D01*
X126036658Y-116905152D01*
X126090532Y-116797402D01*
X126090532Y-116743528D01*
X125901971Y-116554966D01*
X125794221Y-116662715D01*
X126386844Y-116554966D02*
X125821158Y-115989280D01*
X126036658Y-115773781D01*
X126117470Y-115746844D01*
X126171345Y-115746844D01*
X126252157Y-115773781D01*
X126332969Y-115854593D01*
X126359906Y-115935406D01*
X126359906Y-115989280D01*
X126332969Y-116070093D01*
X126117470Y-116285592D01*
X127248841Y-115692969D02*
X126925592Y-116016218D01*
X127087216Y-115854593D02*
X126521531Y-115288908D01*
X126548468Y-115423595D01*
X126548468Y-115531345D01*
X126521531Y-115612157D01*
X127356590Y-114830972D02*
X127733714Y-115208096D01*
X127006404Y-114750160D02*
X127275778Y-115288908D01*
X127625964Y-114938722D01*
X151786597Y-89045964D02*
X152055971Y-88776590D01*
X151894346Y-89261463D02*
X151517223Y-88507216D01*
X152271470Y-88884340D01*
X152217595Y-87860719D02*
X152136783Y-87887656D01*
X152055971Y-87968468D01*
X152002096Y-88076218D01*
X152002096Y-88183967D01*
X152029033Y-88264780D01*
X152109845Y-88399467D01*
X152190658Y-88480279D01*
X152325345Y-88561091D01*
X152406157Y-88588028D01*
X152513906Y-88588028D01*
X152621656Y-88534154D01*
X152675531Y-88480279D01*
X152729406Y-88372529D01*
X152729406Y-88318654D01*
X152540844Y-88130093D01*
X152433094Y-88237842D01*
X153025717Y-88130093D02*
X152460032Y-87564407D01*
X153348966Y-87806844D01*
X152783280Y-87241158D01*
X153618340Y-87537470D02*
X153052654Y-86971784D01*
X153187341Y-86837097D01*
X153295091Y-86783223D01*
X153402841Y-86783223D01*
X153483653Y-86810160D01*
X153618340Y-86890972D01*
X153699152Y-86971784D01*
X153779964Y-87106471D01*
X153806902Y-87187284D01*
X153806902Y-87295033D01*
X153753027Y-87402783D01*
X153618340Y-87537470D01*
X126148096Y-98236218D02*
X126067284Y-98263155D01*
X125986471Y-98343967D01*
X125932597Y-98451717D01*
X125932597Y-98559467D01*
X125959534Y-98640279D01*
X126040346Y-98774966D01*
X126121158Y-98855778D01*
X126255845Y-98936590D01*
X126336658Y-98963528D01*
X126444407Y-98963528D01*
X126552157Y-98909653D01*
X126606032Y-98855778D01*
X126659906Y-98748028D01*
X126659906Y-98694154D01*
X126471345Y-98505592D01*
X126363595Y-98613341D01*
X126956218Y-98505592D02*
X126390532Y-97939906D01*
X126606032Y-97724407D01*
X126686844Y-97697470D01*
X126740719Y-97697470D01*
X126821531Y-97724407D01*
X126902343Y-97805219D01*
X126929280Y-97886032D01*
X126929280Y-97939906D01*
X126902343Y-98020719D01*
X126686844Y-98236218D01*
X127548841Y-97912969D02*
X127656590Y-97805219D01*
X127683528Y-97724407D01*
X127683528Y-97670532D01*
X127656590Y-97535845D01*
X127575778Y-97401158D01*
X127360279Y-97185659D01*
X127279467Y-97158722D01*
X127225592Y-97158722D01*
X127144780Y-97185659D01*
X127037030Y-97293409D01*
X127010093Y-97374221D01*
X127010093Y-97428096D01*
X127037030Y-97508908D01*
X127171717Y-97643595D01*
X127252529Y-97670532D01*
X127306404Y-97670532D01*
X127387216Y-97643595D01*
X127494966Y-97535845D01*
X127521903Y-97455033D01*
X127521903Y-97401158D01*
X127494966Y-97320346D01*
X126148096Y-70296218D02*
X126067284Y-70323155D01*
X125986471Y-70403967D01*
X125932597Y-70511717D01*
X125932597Y-70619467D01*
X125959534Y-70700279D01*
X126040346Y-70834966D01*
X126121158Y-70915778D01*
X126255845Y-70996590D01*
X126336658Y-71023528D01*
X126444407Y-71023528D01*
X126552157Y-70969653D01*
X126606032Y-70915778D01*
X126659906Y-70808028D01*
X126659906Y-70754154D01*
X126471345Y-70565592D01*
X126363595Y-70673341D01*
X126956218Y-70565592D02*
X126390532Y-69999906D01*
X126606032Y-69784407D01*
X126686844Y-69757470D01*
X126740719Y-69757470D01*
X126821531Y-69784407D01*
X126902343Y-69865219D01*
X126929280Y-69946032D01*
X126929280Y-69999906D01*
X126902343Y-70080719D01*
X126686844Y-70296218D01*
X127063967Y-69326471D02*
X127117842Y-69272597D01*
X127198654Y-69245659D01*
X127252529Y-69245659D01*
X127333341Y-69272597D01*
X127468028Y-69353409D01*
X127602715Y-69488096D01*
X127683528Y-69622783D01*
X127710465Y-69703595D01*
X127710465Y-69757470D01*
X127683528Y-69838282D01*
X127629653Y-69892157D01*
X127548841Y-69919094D01*
X127494966Y-69919094D01*
X127414154Y-69892157D01*
X127279467Y-69811345D01*
X127144780Y-69676658D01*
X127063967Y-69541971D01*
X127037030Y-69461158D01*
X127037030Y-69407284D01*
X127063967Y-69326471D01*
X125478722Y-106125592D02*
X125397910Y-106152529D01*
X125317097Y-106233341D01*
X125263223Y-106341091D01*
X125263223Y-106448841D01*
X125290160Y-106529653D01*
X125370972Y-106664340D01*
X125451784Y-106745152D01*
X125586471Y-106825964D01*
X125667284Y-106852902D01*
X125775033Y-106852902D01*
X125882783Y-106799027D01*
X125936658Y-106745152D01*
X125990532Y-106637402D01*
X125990532Y-106583528D01*
X125801971Y-106394966D01*
X125694221Y-106502715D01*
X126286844Y-106394966D02*
X125721158Y-105829280D01*
X125936658Y-105613781D01*
X126017470Y-105586844D01*
X126071345Y-105586844D01*
X126152157Y-105613781D01*
X126232969Y-105694593D01*
X126259906Y-105775406D01*
X126259906Y-105829280D01*
X126232969Y-105910093D01*
X126017470Y-106125592D01*
X127148841Y-105532969D02*
X126825592Y-105856218D01*
X126987216Y-105694593D02*
X126421531Y-105128908D01*
X126448468Y-105263595D01*
X126448468Y-105371345D01*
X126421531Y-105452157D01*
X127687589Y-104994221D02*
X127364340Y-105317470D01*
X127525964Y-105155845D02*
X126960279Y-104590160D01*
X126987216Y-104724847D01*
X126987216Y-104832597D01*
X126960279Y-104913409D01*
X126121158Y-75403155D02*
X126040346Y-75430093D01*
X125959534Y-75510905D01*
X125905659Y-75618654D01*
X125905659Y-75726404D01*
X125932597Y-75807216D01*
X126013409Y-75941903D01*
X126094221Y-76022715D01*
X126228908Y-76103528D01*
X126309720Y-76130465D01*
X126417470Y-76130465D01*
X126525219Y-76076590D01*
X126579094Y-76022715D01*
X126632969Y-75914966D01*
X126632969Y-75861091D01*
X126444407Y-75672529D01*
X126336658Y-75780279D01*
X126929280Y-75672529D02*
X126363595Y-75106844D01*
X127252529Y-75349280D01*
X126686844Y-74783595D01*
X127521903Y-75079906D02*
X126956218Y-74514221D01*
X127090905Y-74379534D01*
X127198654Y-74325659D01*
X127306404Y-74325659D01*
X127387216Y-74352597D01*
X127521903Y-74433409D01*
X127602715Y-74514221D01*
X127683528Y-74648908D01*
X127710465Y-74729720D01*
X127710465Y-74837470D01*
X127656590Y-74945219D01*
X127521903Y-75079906D01*
X126048096Y-72826218D02*
X125967284Y-72853155D01*
X125886471Y-72933967D01*
X125832597Y-73041717D01*
X125832597Y-73149467D01*
X125859534Y-73230279D01*
X125940346Y-73364966D01*
X126021158Y-73445778D01*
X126155845Y-73526590D01*
X126236658Y-73553528D01*
X126344407Y-73553528D01*
X126452157Y-73499653D01*
X126506032Y-73445778D01*
X126559906Y-73338028D01*
X126559906Y-73284154D01*
X126371345Y-73095592D01*
X126263595Y-73203341D01*
X126856218Y-73095592D02*
X126290532Y-72529906D01*
X126506032Y-72314407D01*
X126586844Y-72287470D01*
X126640719Y-72287470D01*
X126721531Y-72314407D01*
X126802343Y-72395219D01*
X126829280Y-72476032D01*
X126829280Y-72529906D01*
X126802343Y-72610719D01*
X126586844Y-72826218D01*
X127718215Y-72233595D02*
X127394966Y-72556844D01*
X127556590Y-72395219D02*
X126990905Y-71829534D01*
X127017842Y-71964221D01*
X127017842Y-72071971D01*
X126990905Y-72152783D01*
X126248096Y-93126218D02*
X126167284Y-93153155D01*
X126086471Y-93233967D01*
X126032597Y-93341717D01*
X126032597Y-93449467D01*
X126059534Y-93530279D01*
X126140346Y-93664966D01*
X126221158Y-93745778D01*
X126355845Y-93826590D01*
X126436658Y-93853528D01*
X126544407Y-93853528D01*
X126652157Y-93799653D01*
X126706032Y-93745778D01*
X126759906Y-93638028D01*
X126759906Y-93584154D01*
X126571345Y-93395592D01*
X126463595Y-93503341D01*
X127056218Y-93395592D02*
X126490532Y-92829906D01*
X126706032Y-92614407D01*
X126786844Y-92587470D01*
X126840719Y-92587470D01*
X126921531Y-92614407D01*
X127002343Y-92695219D01*
X127029280Y-92776032D01*
X127029280Y-92829906D01*
X127002343Y-92910719D01*
X126786844Y-93126218D01*
X127002343Y-92318096D02*
X127379467Y-91940972D01*
X127702715Y-92749094D01*
X126048096Y-77916218D02*
X125967284Y-77943155D01*
X125886471Y-78023967D01*
X125832597Y-78131717D01*
X125832597Y-78239467D01*
X125859534Y-78320279D01*
X125940346Y-78454966D01*
X126021158Y-78535778D01*
X126155845Y-78616590D01*
X126236658Y-78643528D01*
X126344407Y-78643528D01*
X126452157Y-78589653D01*
X126506032Y-78535778D01*
X126559906Y-78428028D01*
X126559906Y-78374154D01*
X126371345Y-78185592D01*
X126263595Y-78293341D01*
X126856218Y-78185592D02*
X126290532Y-77619906D01*
X126506032Y-77404407D01*
X126586844Y-77377470D01*
X126640719Y-77377470D01*
X126721531Y-77404407D01*
X126802343Y-77485219D01*
X126829280Y-77566032D01*
X126829280Y-77619906D01*
X126802343Y-77700719D01*
X126586844Y-77916218D01*
X126883155Y-77135033D02*
X126883155Y-77081158D01*
X126910093Y-77000346D01*
X127044780Y-76865659D01*
X127125592Y-76838722D01*
X127179467Y-76838722D01*
X127260279Y-76865659D01*
X127314154Y-76919534D01*
X127368028Y-77027284D01*
X127368028Y-77673781D01*
X127718215Y-77323595D01*
X125478722Y-108665592D02*
X125397910Y-108692529D01*
X125317097Y-108773341D01*
X125263223Y-108881091D01*
X125263223Y-108988841D01*
X125290160Y-109069653D01*
X125370972Y-109204340D01*
X125451784Y-109285152D01*
X125586471Y-109365964D01*
X125667284Y-109392902D01*
X125775033Y-109392902D01*
X125882783Y-109339027D01*
X125936658Y-109285152D01*
X125990532Y-109177402D01*
X125990532Y-109123528D01*
X125801971Y-108934966D01*
X125694221Y-109042715D01*
X126286844Y-108934966D02*
X125721158Y-108369280D01*
X125936658Y-108153781D01*
X126017470Y-108126844D01*
X126071345Y-108126844D01*
X126152157Y-108153781D01*
X126232969Y-108234593D01*
X126259906Y-108315406D01*
X126259906Y-108369280D01*
X126232969Y-108450093D01*
X126017470Y-108665592D01*
X127148841Y-108072969D02*
X126825592Y-108396218D01*
X126987216Y-108234593D02*
X126421531Y-107668908D01*
X126448468Y-107803595D01*
X126448468Y-107911345D01*
X126421531Y-107992157D01*
X126852529Y-107345659D02*
X126852529Y-107291784D01*
X126879467Y-107210972D01*
X127014154Y-107076285D01*
X127094966Y-107049348D01*
X127148841Y-107049348D01*
X127229653Y-107076285D01*
X127283528Y-107130160D01*
X127337402Y-107237910D01*
X127337402Y-107884407D01*
X127687589Y-107534221D01*
X125624722Y-111205592D02*
X125543910Y-111232529D01*
X125463097Y-111313341D01*
X125409223Y-111421091D01*
X125409223Y-111528841D01*
X125436160Y-111609653D01*
X125516972Y-111744340D01*
X125597784Y-111825152D01*
X125732471Y-111905964D01*
X125813284Y-111932902D01*
X125921033Y-111932902D01*
X126028783Y-111879027D01*
X126082658Y-111825152D01*
X126136532Y-111717402D01*
X126136532Y-111663528D01*
X125947971Y-111474966D01*
X125840221Y-111582715D01*
X126432844Y-111474966D02*
X125867158Y-110909280D01*
X126082658Y-110693781D01*
X126163470Y-110666844D01*
X126217345Y-110666844D01*
X126298157Y-110693781D01*
X126378969Y-110774593D01*
X126405906Y-110855406D01*
X126405906Y-110909280D01*
X126378969Y-110990093D01*
X126163470Y-111205592D01*
X127294841Y-110612969D02*
X126971592Y-110936218D01*
X127133216Y-110774593D02*
X126567531Y-110208908D01*
X126594468Y-110343595D01*
X126594468Y-110451345D01*
X126567531Y-110532157D01*
X126917717Y-109858722D02*
X127267903Y-109508536D01*
X127294841Y-109912597D01*
X127375653Y-109831784D01*
X127456465Y-109804847D01*
X127510340Y-109804847D01*
X127591152Y-109831784D01*
X127725839Y-109966471D01*
X127752776Y-110047284D01*
X127752776Y-110101158D01*
X127725839Y-110181971D01*
X127564215Y-110343595D01*
X127483402Y-110370532D01*
X127429528Y-110370532D01*
X151721158Y-75403155D02*
X151640346Y-75430093D01*
X151559534Y-75510905D01*
X151505659Y-75618654D01*
X151505659Y-75726404D01*
X151532597Y-75807216D01*
X151613409Y-75941903D01*
X151694221Y-76022715D01*
X151828908Y-76103528D01*
X151909720Y-76130465D01*
X152017470Y-76130465D01*
X152125219Y-76076590D01*
X152179094Y-76022715D01*
X152232969Y-75914966D01*
X152232969Y-75861091D01*
X152044407Y-75672529D01*
X151936658Y-75780279D01*
X152529280Y-75672529D02*
X151963595Y-75106844D01*
X152852529Y-75349280D01*
X152286844Y-74783595D01*
X153121903Y-75079906D02*
X152556218Y-74514221D01*
X152690905Y-74379534D01*
X152798654Y-74325659D01*
X152906404Y-74325659D01*
X152987216Y-74352597D01*
X153121903Y-74433409D01*
X153202715Y-74514221D01*
X153283528Y-74648908D01*
X153310465Y-74729720D01*
X153310465Y-74837470D01*
X153256590Y-74945219D01*
X153121903Y-75079906D01*
X151732722Y-111205592D02*
X151651910Y-111232529D01*
X151571097Y-111313341D01*
X151517223Y-111421091D01*
X151517223Y-111528841D01*
X151544160Y-111609653D01*
X151624972Y-111744340D01*
X151705784Y-111825152D01*
X151840471Y-111905964D01*
X151921284Y-111932902D01*
X152029033Y-111932902D01*
X152136783Y-111879027D01*
X152190658Y-111825152D01*
X152244532Y-111717402D01*
X152244532Y-111663528D01*
X152055971Y-111474966D01*
X151948221Y-111582715D01*
X152540844Y-111474966D02*
X151975158Y-110909280D01*
X152190658Y-110693781D01*
X152271470Y-110666844D01*
X152325345Y-110666844D01*
X152406157Y-110693781D01*
X152486969Y-110774593D01*
X152513906Y-110855406D01*
X152513906Y-110909280D01*
X152486969Y-110990093D01*
X152271470Y-111205592D01*
X153402841Y-110612969D02*
X153079592Y-110936218D01*
X153241216Y-110774593D02*
X152675531Y-110208908D01*
X152702468Y-110343595D01*
X152702468Y-110451345D01*
X152675531Y-110532157D01*
X153402841Y-109966471D02*
X153322028Y-109993409D01*
X153268154Y-109993409D01*
X153187341Y-109966471D01*
X153160404Y-109939534D01*
X153133467Y-109858722D01*
X153133467Y-109804847D01*
X153160404Y-109724035D01*
X153268154Y-109616285D01*
X153348966Y-109589348D01*
X153402841Y-109589348D01*
X153483653Y-109616285D01*
X153510590Y-109643223D01*
X153537528Y-109724035D01*
X153537528Y-109777910D01*
X153510590Y-109858722D01*
X153402841Y-109966471D01*
X153375903Y-110047284D01*
X153375903Y-110101158D01*
X153402841Y-110181971D01*
X153510590Y-110289720D01*
X153591402Y-110316658D01*
X153645277Y-110316658D01*
X153726089Y-110289720D01*
X153833839Y-110181971D01*
X153860776Y-110101158D01*
X153860776Y-110047284D01*
X153833839Y-109966471D01*
X153726089Y-109858722D01*
X153645277Y-109831784D01*
X153591402Y-109831784D01*
X153510590Y-109858722D01*
X126148096Y-82996218D02*
X126067284Y-83023155D01*
X125986471Y-83103967D01*
X125932597Y-83211717D01*
X125932597Y-83319467D01*
X125959534Y-83400279D01*
X126040346Y-83534966D01*
X126121158Y-83615778D01*
X126255845Y-83696590D01*
X126336658Y-83723528D01*
X126444407Y-83723528D01*
X126552157Y-83669653D01*
X126606032Y-83615778D01*
X126659906Y-83508028D01*
X126659906Y-83454154D01*
X126471345Y-83265592D01*
X126363595Y-83373341D01*
X126956218Y-83265592D02*
X126390532Y-82699906D01*
X126606032Y-82484407D01*
X126686844Y-82457470D01*
X126740719Y-82457470D01*
X126821531Y-82484407D01*
X126902343Y-82565219D01*
X126929280Y-82646032D01*
X126929280Y-82699906D01*
X126902343Y-82780719D01*
X126686844Y-82996218D01*
X127387216Y-82080346D02*
X127764340Y-82457470D01*
X127037030Y-81999534D02*
X127306404Y-82538282D01*
X127656590Y-82188096D01*
X151732722Y-106125592D02*
X151651910Y-106152529D01*
X151571097Y-106233341D01*
X151517223Y-106341091D01*
X151517223Y-106448841D01*
X151544160Y-106529653D01*
X151624972Y-106664340D01*
X151705784Y-106745152D01*
X151840471Y-106825964D01*
X151921284Y-106852902D01*
X152029033Y-106852902D01*
X152136783Y-106799027D01*
X152190658Y-106745152D01*
X152244532Y-106637402D01*
X152244532Y-106583528D01*
X152055971Y-106394966D01*
X151948221Y-106502715D01*
X152540844Y-106394966D02*
X151975158Y-105829280D01*
X152190658Y-105613781D01*
X152271470Y-105586844D01*
X152325345Y-105586844D01*
X152406157Y-105613781D01*
X152486969Y-105694593D01*
X152513906Y-105775406D01*
X152513906Y-105829280D01*
X152486969Y-105910093D01*
X152271470Y-106125592D01*
X152567781Y-105344407D02*
X152567781Y-105290532D01*
X152594719Y-105209720D01*
X152729406Y-105075033D01*
X152810218Y-105048096D01*
X152864093Y-105048096D01*
X152944905Y-105075033D01*
X152998780Y-105128908D01*
X153052654Y-105236658D01*
X153052654Y-105883155D01*
X153402841Y-105532969D01*
X153187341Y-104617097D02*
X153241216Y-104563223D01*
X153322028Y-104536285D01*
X153375903Y-104536285D01*
X153456715Y-104563223D01*
X153591402Y-104644035D01*
X153726089Y-104778722D01*
X153806902Y-104913409D01*
X153833839Y-104994221D01*
X153833839Y-105048096D01*
X153806902Y-105128908D01*
X153753027Y-105182783D01*
X153672215Y-105209720D01*
X153618340Y-105209720D01*
X153537528Y-105182783D01*
X153402841Y-105101971D01*
X153268154Y-104967284D01*
X153187341Y-104832597D01*
X153160404Y-104751784D01*
X153160404Y-104697910D01*
X153187341Y-104617097D01*
X125624722Y-118825592D02*
X125543910Y-118852529D01*
X125463097Y-118933341D01*
X125409223Y-119041091D01*
X125409223Y-119148841D01*
X125436160Y-119229653D01*
X125516972Y-119364340D01*
X125597784Y-119445152D01*
X125732471Y-119525964D01*
X125813284Y-119552902D01*
X125921033Y-119552902D01*
X126028783Y-119499027D01*
X126082658Y-119445152D01*
X126136532Y-119337402D01*
X126136532Y-119283528D01*
X125947971Y-119094966D01*
X125840221Y-119202715D01*
X126432844Y-119094966D02*
X125867158Y-118529280D01*
X126082658Y-118313781D01*
X126163470Y-118286844D01*
X126217345Y-118286844D01*
X126298157Y-118313781D01*
X126378969Y-118394593D01*
X126405906Y-118475406D01*
X126405906Y-118529280D01*
X126378969Y-118610093D01*
X126163470Y-118825592D01*
X127294841Y-118232969D02*
X126971592Y-118556218D01*
X127133216Y-118394593D02*
X126567531Y-117828908D01*
X126594468Y-117963595D01*
X126594468Y-118071345D01*
X126567531Y-118152157D01*
X127240966Y-117155473D02*
X126971592Y-117424847D01*
X127214028Y-117721158D01*
X127214028Y-117667284D01*
X127240966Y-117586471D01*
X127375653Y-117451784D01*
X127456465Y-117424847D01*
X127510340Y-117424847D01*
X127591152Y-117451784D01*
X127725839Y-117586471D01*
X127752776Y-117667284D01*
X127752776Y-117721158D01*
X127725839Y-117801971D01*
X127591152Y-117936658D01*
X127510340Y-117963595D01*
X127456465Y-117963595D01*
X151524847Y-80795592D02*
X151875033Y-80445406D01*
X151901971Y-80849467D01*
X151982783Y-80768654D01*
X152063595Y-80741717D01*
X152117470Y-80741717D01*
X152198282Y-80768654D01*
X152332969Y-80903341D01*
X152359906Y-80984154D01*
X152359906Y-81038028D01*
X152332969Y-81118841D01*
X152171345Y-81280465D01*
X152090532Y-81307402D01*
X152036658Y-81307402D01*
X152036658Y-80283781D02*
X152790905Y-80660905D01*
X152413781Y-79906658D01*
X152548468Y-79771971D02*
X152898654Y-79421784D01*
X152925592Y-79825845D01*
X153006404Y-79745033D01*
X153087216Y-79718096D01*
X153141091Y-79718096D01*
X153221903Y-79745033D01*
X153356590Y-79879720D01*
X153383528Y-79960532D01*
X153383528Y-80014407D01*
X153356590Y-80095219D01*
X153194966Y-80256844D01*
X153114154Y-80283781D01*
X153060279Y-80283781D01*
%TO.C,U1*%
X160210595Y-130062380D02*
X160210595Y-130871904D01*
X160258214Y-130967142D01*
X160305833Y-131014761D01*
X160401071Y-131062380D01*
X160591547Y-131062380D01*
X160686785Y-131014761D01*
X160734404Y-130967142D01*
X160782023Y-130871904D01*
X160782023Y-130062380D01*
X161782023Y-131062380D02*
X161210595Y-131062380D01*
X161496309Y-131062380D02*
X161496309Y-130062380D01*
X161401071Y-130205238D01*
X161305833Y-130300476D01*
X161210595Y-130348095D01*
%TO.C,SW2*%
X105036666Y-136694761D02*
X105179523Y-136742380D01*
X105417619Y-136742380D01*
X105512857Y-136694761D01*
X105560476Y-136647142D01*
X105608095Y-136551904D01*
X105608095Y-136456666D01*
X105560476Y-136361428D01*
X105512857Y-136313809D01*
X105417619Y-136266190D01*
X105227142Y-136218571D01*
X105131904Y-136170952D01*
X105084285Y-136123333D01*
X105036666Y-136028095D01*
X105036666Y-135932857D01*
X105084285Y-135837619D01*
X105131904Y-135790000D01*
X105227142Y-135742380D01*
X105465238Y-135742380D01*
X105608095Y-135790000D01*
X105941428Y-135742380D02*
X106179523Y-136742380D01*
X106370000Y-136028095D01*
X106560476Y-136742380D01*
X106798571Y-135742380D01*
X107131904Y-135837619D02*
X107179523Y-135790000D01*
X107274761Y-135742380D01*
X107512857Y-135742380D01*
X107608095Y-135790000D01*
X107655714Y-135837619D01*
X107703333Y-135932857D01*
X107703333Y-136028095D01*
X107655714Y-136170952D01*
X107084285Y-136742380D01*
X107703333Y-136742380D01*
%TO.C,H5*%
X169698095Y-85732380D02*
X169698095Y-84732380D01*
X169698095Y-85208571D02*
X170269523Y-85208571D01*
X170269523Y-85732380D02*
X170269523Y-84732380D01*
X171221904Y-84732380D02*
X170745714Y-84732380D01*
X170698095Y-85208571D01*
X170745714Y-85160952D01*
X170840952Y-85113333D01*
X171079047Y-85113333D01*
X171174285Y-85160952D01*
X171221904Y-85208571D01*
X171269523Y-85303809D01*
X171269523Y-85541904D01*
X171221904Y-85637142D01*
X171174285Y-85684761D01*
X171079047Y-85732380D01*
X170840952Y-85732380D01*
X170745714Y-85684761D01*
X170698095Y-85637142D01*
%TO.C,C1*%
X164553333Y-123047142D02*
X164505714Y-123094761D01*
X164362857Y-123142380D01*
X164267619Y-123142380D01*
X164124761Y-123094761D01*
X164029523Y-122999523D01*
X163981904Y-122904285D01*
X163934285Y-122713809D01*
X163934285Y-122570952D01*
X163981904Y-122380476D01*
X164029523Y-122285238D01*
X164124761Y-122190000D01*
X164267619Y-122142380D01*
X164362857Y-122142380D01*
X164505714Y-122190000D01*
X164553333Y-122237619D01*
X165505714Y-123142380D02*
X164934285Y-123142380D01*
X165220000Y-123142380D02*
X165220000Y-122142380D01*
X165124761Y-122285238D01*
X165029523Y-122380476D01*
X164934285Y-122428095D01*
D13*
%TO.C,R1*%
X174325000Y-127287258D02*
X174325000Y-126812742D01*
X175370000Y-127287258D02*
X175370000Y-126812742D01*
%TO.C,C2*%
X172007500Y-130810580D02*
X172007500Y-130529420D01*
X170987500Y-130810580D02*
X170987500Y-130529420D01*
D14*
%TO.C,D2*%
X114860000Y-71763500D02*
X114860000Y-73336500D01*
X119860000Y-71763500D02*
X119860000Y-73336500D01*
X114860000Y-75050000D02*
X119860000Y-75050000D01*
X119860000Y-70050000D02*
X114860000Y-70050000D01*
D11*
X121210000Y-74150000D02*
G75*
G03*
X121210000Y-74150000I-100000J0D01*
G01*
D13*
%TO.C,SW5*%
X176109999Y-121220000D02*
X176110000Y-118053333D01*
X175750000Y-114886667D02*
X176110000Y-114886667D01*
X176110000Y-111720000D02*
X168130001Y-111720000D01*
X176110000Y-114886667D02*
X176110000Y-111720000D01*
X175750000Y-118053333D02*
X175750000Y-114886667D01*
X168130000Y-121220000D02*
X176109999Y-121220000D01*
X176110000Y-118053333D02*
X175750000Y-118053333D01*
X168130001Y-111720000D02*
X168130000Y-121220000D01*
%TO.C,J1*%
X117920000Y-94780000D02*
X117920000Y-94580000D01*
X114920000Y-97180000D02*
X114920000Y-99130000D01*
X114310000Y-97980000D02*
X114110000Y-97980000D01*
X118420000Y-82230000D02*
X114920000Y-82230000D01*
X114310000Y-81620000D02*
X114310000Y-99740000D01*
X114920000Y-82230000D02*
X114920000Y-84180000D01*
X114310000Y-99740000D02*
X119030000Y-99740000D01*
X118420000Y-94680000D02*
X117920000Y-94680000D01*
X114310000Y-97180000D02*
X114920000Y-97180000D01*
X115620000Y-99740000D02*
X115620000Y-99130000D01*
X116920000Y-99740000D02*
X116920000Y-99130000D01*
X118420000Y-88780000D02*
X117920000Y-88780000D01*
X117920000Y-88780000D02*
X117920000Y-88580000D01*
X114920000Y-99130000D02*
X118420000Y-99130000D01*
X118420000Y-96680000D02*
X117920000Y-96680000D01*
X118420000Y-84680000D02*
X117920000Y-84680000D01*
X117920000Y-92580000D02*
X118420000Y-92580000D01*
X117920000Y-94580000D02*
X118420000Y-94580000D01*
X117920000Y-84580000D02*
X118420000Y-84580000D01*
X118420000Y-84780000D02*
X117920000Y-84780000D01*
X115620000Y-81620000D02*
X115620000Y-82230000D01*
X114010000Y-98790000D02*
X114010000Y-100040000D01*
X118420000Y-92780000D02*
X117920000Y-92780000D01*
X119030000Y-81620000D02*
X114310000Y-81620000D01*
X118420000Y-94780000D02*
X117920000Y-94780000D01*
X119030000Y-99740000D02*
X119030000Y-81620000D01*
X117920000Y-88580000D02*
X118420000Y-88580000D01*
X117920000Y-90580000D02*
X118420000Y-90580000D01*
X117920000Y-84780000D02*
X117920000Y-84580000D01*
X118420000Y-86680000D02*
X117920000Y-86680000D01*
X114110000Y-97980000D02*
X114110000Y-98280000D01*
X117920000Y-90780000D02*
X117920000Y-90580000D01*
X114920000Y-84180000D02*
X114310000Y-84180000D01*
X118420000Y-88680000D02*
X117920000Y-88680000D01*
X114210000Y-97980000D02*
X114210000Y-98280000D01*
X118420000Y-90680000D02*
X117920000Y-90680000D01*
X114110000Y-98280000D02*
X114310000Y-98280000D01*
X118420000Y-90780000D02*
X117920000Y-90780000D01*
X118420000Y-92680000D02*
X117920000Y-92680000D01*
X118420000Y-99130000D02*
X118420000Y-82230000D01*
X118420000Y-96780000D02*
X117920000Y-96780000D01*
X117920000Y-96780000D02*
X117920000Y-96580000D01*
X117920000Y-96580000D02*
X118420000Y-96580000D01*
X114010000Y-100040000D02*
X115260000Y-100040000D01*
X117920000Y-92780000D02*
X117920000Y-92580000D01*
X116920000Y-81620000D02*
X116920000Y-82230000D01*
X117920000Y-86580000D02*
X118420000Y-86580000D01*
X117920000Y-86780000D02*
X117920000Y-86580000D01*
X118420000Y-86780000D02*
X117920000Y-86780000D01*
%TO.C,SW4*%
X169990000Y-80980000D02*
X169990000Y-79280000D01*
X169990000Y-77980000D02*
X169990000Y-77780000D01*
X171830000Y-75930000D02*
X171040000Y-75930000D01*
X171040000Y-82830000D02*
X171830000Y-82830000D01*
X172840000Y-82230000D02*
X172840000Y-76530000D01*
%TO.C,U2*%
X118700000Y-103250000D02*
X102590000Y-103250000D01*
X102590000Y-103250000D02*
X102590000Y-104860000D01*
X118700000Y-119470000D02*
X102700000Y-119470000D01*
%TO.C,SW1*%
X104040000Y-131940000D02*
X108540000Y-131940000D01*
X109790000Y-129440000D02*
X109790000Y-127940000D01*
X108540000Y-125440000D02*
X104040000Y-125440000D01*
X102790000Y-127940000D02*
X102790000Y-129440000D01*
%TO.C,SW3*%
X169280000Y-137920000D02*
X164780000Y-137920000D01*
X170530000Y-141920000D02*
X170530000Y-140420000D01*
X164780000Y-144420000D02*
X169280000Y-144420000D01*
X163530000Y-140420000D02*
X163530000Y-141920000D01*
%TO.C,J3*%
X162490000Y-81770000D02*
X162490000Y-84370000D01*
X159830000Y-84370000D02*
X162490000Y-84370000D01*
X159830000Y-79170000D02*
X161160000Y-79170000D01*
X159830000Y-81770000D02*
X159830000Y-84370000D01*
X159830000Y-80500000D02*
X159830000Y-79170000D01*
X159830000Y-81770000D02*
X162490000Y-81770000D01*
%TO.C,D1*%
X174082500Y-129125000D02*
X174082500Y-131410000D01*
X175552500Y-129125000D02*
X174082500Y-129125000D01*
X175552500Y-131410000D02*
X175552500Y-129125000D01*
%TO.C,U3*%
X129135000Y-76305000D02*
X129135000Y-76705000D01*
X129135000Y-114405000D02*
X129135000Y-114805000D01*
X150135000Y-76305000D02*
X150135000Y-76705000D01*
X129135000Y-83905000D02*
X129135000Y-84305000D01*
X150135000Y-104305000D02*
X150135000Y-104705000D01*
X129135000Y-91605000D02*
X129135000Y-92005000D01*
X150135000Y-94105000D02*
X150135000Y-94505000D01*
X129135000Y-111905000D02*
X129135000Y-112305000D01*
X129135000Y-94105000D02*
X129135000Y-94505000D01*
X129135000Y-99205000D02*
X129135000Y-99605000D01*
X150135000Y-86505000D02*
X150135000Y-86905000D01*
X150135000Y-96605000D02*
X150135000Y-97005000D01*
X129135000Y-104305000D02*
X129135000Y-104705000D01*
X150135000Y-71205000D02*
X150135000Y-71605000D01*
X150135000Y-101705000D02*
X150135000Y-102105000D01*
X129135000Y-101705000D02*
X129135000Y-102105000D01*
X132142000Y-71472000D02*
X132142000Y-68805000D01*
X129135000Y-96605000D02*
X129135000Y-97005000D01*
X129135000Y-109405000D02*
X129135000Y-109805000D01*
X129135000Y-68805000D02*
X150135000Y-68805000D01*
X150135000Y-99205000D02*
X150135000Y-99605000D01*
X129135000Y-71205000D02*
X129135000Y-71605000D01*
X150135000Y-106805000D02*
X150135000Y-107205000D01*
X150135000Y-68805000D02*
X150135000Y-69105000D01*
X150135000Y-119805000D02*
X143335000Y-119805000D01*
X129135000Y-89005000D02*
X129135000Y-89405000D01*
X129135000Y-71472000D02*
X132142000Y-71472000D01*
X150135000Y-89005000D02*
X150135000Y-89405000D01*
X138135000Y-119805000D02*
X140735000Y-119805000D01*
X129135000Y-86505000D02*
X129135000Y-86905000D01*
X129135000Y-81405000D02*
X129135000Y-81805000D01*
X129135000Y-68805000D02*
X129135000Y-69105000D01*
X150135000Y-83905000D02*
X150135000Y-84305000D01*
X138135000Y-119805000D02*
X129135000Y-119805000D01*
X140735000Y-119805000D02*
X143335000Y-119805000D01*
X129135000Y-117005000D02*
X129135000Y-117405000D01*
X150135000Y-114405000D02*
X150135000Y-114805000D01*
X150135000Y-91605000D02*
X150135000Y-92005000D01*
X150135000Y-109405000D02*
X150135000Y-109805000D01*
X150135000Y-81405000D02*
X150135000Y-81805000D01*
X150135000Y-117005000D02*
X150135000Y-117405000D01*
X129135000Y-73805000D02*
X129135000Y-74205000D01*
X150135000Y-78905000D02*
X150135000Y-79305000D01*
X150135000Y-73805000D02*
X150135000Y-74205000D01*
X129135000Y-106805000D02*
X129135000Y-107205000D01*
X150135000Y-111905000D02*
X150135000Y-112305000D01*
X129135000Y-78905000D02*
X129135000Y-79305000D01*
%TO.C,U1*%
X169342500Y-126780000D02*
X169342500Y-132790000D01*
X162522500Y-132790000D02*
X163782500Y-132790000D01*
X162522500Y-129030000D02*
X162522500Y-132790000D01*
X169342500Y-132790000D02*
X168082500Y-132790000D01*
%TO.C,SW2*%
X102870000Y-139790000D02*
X102870000Y-141290000D01*
X109870000Y-141290000D02*
X109870000Y-139790000D01*
X104120000Y-143790000D02*
X108620000Y-143790000D01*
X108620000Y-137290000D02*
X104120000Y-137290000D01*
%TO.C,C1*%
X163941920Y-124782500D02*
X164223080Y-124782500D01*
X163941920Y-123762500D02*
X164223080Y-123762500D01*
%TD*%
M02*
